Crimson-Roman.ufo
<glyph name="numbersign" format="1">
  <advance width="480"/>
  <unicode hex="0023"/>
  <outline>
    <contour>
      <point x="278" y="64" type="curve" smooth="yes"/>
      <point x="271" y="64"/>
      <point x="267" y="68"/>
      <point x="267" y="68" type="curve"/>
      <point x="285" y="178" type="line"/>
      <point x="156" y="178" type="line"/>
      <point x="140" y="77" type="line" smooth="yes"/>
      <point x="139" y="73"/>
      <point x="127" y="64"/>
      <point x="117" y="64" type="curve" smooth="yes"/>
      <point x="110" y="64"/>
      <point x="106" y="68"/>
      <point x="106" y="68" type="curve"/>
      <point x="124" y="178" type="line"/>
      <point x="57" y="178" type="line" smooth="yes"/>
      <point x="45" y="178"/>
      <point x="53" y="226"/>
      <point x="67" y="227" type="curve"/>
      <point x="131" y="227" type="line"/>
      <point x="154" y="369" type="line"/>
      <point x="85" y="369" type="line" smooth="yes"/>
      <point x="73" y="369"/>
      <point x="81" y="414"/>
      <point x="94" y="418" type="curve"/>
      <point x="162" y="418" type="line"/>
      <point x="178" y="518" type="line" smooth="yes"/>
      <point x="179" y="523"/>
      <point x="181" y="531"/>
      <point x="200" y="531" type="curve" smooth="yes"/>
      <point x="204" y="531"/>
      <point x="210" y="530"/>
      <point x="213" y="528" type="curve"/>
      <point x="195" y="418" type="line"/>
      <point x="323" y="418" type="line"/>
      <point x="339" y="518" type="line" smooth="yes"/>
      <point x="340" y="523"/>
      <point x="342" y="531"/>
      <point x="361" y="531" type="curve" smooth="yes"/>
      <point x="370" y="531"/>
      <point x="371" y="530"/>
      <point x="374" y="528" type="curve"/>
      <point x="356" y="418" type="line"/>
      <point x="420" y="418" type="line" smooth="yes"/>
      <point x="434" y="418"/>
      <point x="424" y="376"/>
      <point x="414" y="369" type="curve"/>
      <point x="349" y="369" type="line"/>
      <point x="326" y="227" type="line"/>
      <point x="393" y="227" type="line" smooth="yes"/>
      <point x="407" y="227"/>
      <point x="399" y="184"/>
      <point x="386" y="178" type="curve"/>
      <point x="318" y="178" type="line"/>
      <point x="302" y="77" type="line" smooth="yes"/>
      <point x="301" y="73"/>
      <point x="288" y="64"/>
    </contour>
    <contour>
      <point x="187" y="369" type="line"/>
      <point x="164" y="227" type="line"/>
      <point x="292" y="227" type="line"/>
      <point x="315" y="369" type="line"/>
    </contour>
  </outline>
</glyph>
<glyph name="dollar" format="1">
  <advance width="498"/>
  <unicode hex="0024"/>
  <outline>
    <contour>
      <point x="51" y="165" type="curve"/>
      <point x="55" y="169"/>
      <point x="69" y="173"/>
      <point x="76" y="173" type="curve" smooth="yes"/>
      <point x="81" y="173"/>
      <point x="85" y="172"/>
      <point x="87" y="168" type="curve"/>
      <point x="92" y="145"/>
      <point x="111" y="66"/>
      <point x="185" y="36" type="curve"/>
      <point x="226" y="284" type="line"/>
      <point x="154" y="326"/>
      <point x="69" y="377"/>
      <point x="69" y="470" type="curve" smooth="yes"/>
      <point x="69" y="572"/>
      <point x="161" y="639"/>
      <point x="257" y="639" type="curve" smooth="yes"/>
      <point x="267" y="639"/>
      <point x="277" y="639"/>
      <point x="285" y="638" type="curve"/>
      <point x="292" y="683" type="line"/>
      <point x="300" y="683"/>
      <point x="327" y="683"/>
      <point x="327" y="676" type="curve"/>
      <point x="320" y="633" type="line"/>
      <point x="344" y="628"/>
      <point x="366" y="620"/>
      <point x="402" y="612" type="curve"/>
      <point x="414" y="561"/>
      <point x="413" y="502"/>
      <point x="414" y="476" type="curve"/>
      <point x="409" y="473"/>
      <point x="403" y="472"/>
      <point x="396" y="472" type="curve" smooth="yes"/>
      <point x="392" y="472"/>
      <point x="385" y="474"/>
      <point x="382" y="477" type="curve"/>
      <point x="378" y="510"/>
      <point x="352" y="560"/>
      <point x="312" y="587" type="curve"/>
      <point x="274" y="355" type="line"/>
      <point x="368" y="300"/>
      <point x="448" y="253"/>
      <point x="448" y="166" type="curve" smooth="yes"/>
      <point x="448" y="60"/>
      <point x="350" y="-10"/>
      <point x="247" y="-10" type="curve" smooth="yes"/>
      <point x="236" y="-10"/>
      <point x="225" y="-10"/>
      <point x="214" y="-9" type="curve"/>
      <point x="207" y="-52" type="line"/>
      <point x="198" y="-52"/>
      <point x="172" y="-50"/>
      <point x="172" y="-43" type="curve"/>
      <point x="178" y="-4" type="line"/>
      <point x="139" y="2"/>
      <point x="104" y="12"/>
      <point x="74" y="18" type="curve"/>
      <point x="62" y="75"/>
      <point x="51" y="154"/>
    </contour>
    <contour>
      <point x="146" y="500" type="curve" smooth="yes"/>
      <point x="146" y="439"/>
      <point x="191" y="406"/>
      <point x="241" y="375" type="curve"/>
      <point x="279" y="602" type="line"/>
      <point x="270" y="604"/>
      <point x="261" y="606"/>
      <point x="251" y="606" type="curve" smooth="yes"/>
      <point x="167" y="606"/>
      <point x="146" y="546"/>
    </contour>
    <contour>
      <point x="220" y="26" type="line"/>
      <point x="229" y="25"/>
      <point x="239" y="24"/>
      <point x="249" y="24" type="curve" smooth="yes"/>
      <point x="309" y="24"/>
      <point x="364" y="65"/>
      <point x="364" y="140" type="curve" smooth="yes"/>
      <point x="364" y="208"/>
      <point x="320" y="232"/>
      <point x="259" y="265" type="curve"/>
    </contour>
  </outline>
</glyph>
<glyph name="percent" format="1">
  <advance width="667"/>
  <unicode hex="0025"/>
  <outline>
    <contour>
      <point x="40" y="484" type="curve" smooth="yes"/>
      <point x="40" y="573"/>
      <point x="101" y="645"/>
      <point x="190" y="645" type="curve" smooth="yes"/>
      <point x="277" y="645"/>
      <point x="337" y="571"/>
      <point x="337" y="484" type="curve" smooth="yes"/>
      <point x="337" y="404"/>
      <point x="281" y="325"/>
      <point x="190" y="325" type="curve" smooth="yes"/>
      <point x="107" y="325"/>
      <point x="40" y="396"/>
    </contour>
    <contour>
      <point x="64" y="-1" type="curve"/>
      <point x="549" y="628" type="line" smooth="yes"/>
      <point x="553" y="634"/>
      <point x="557" y="636"/>
      <point x="572" y="636" type="curve" smooth="yes"/>
      <point x="589" y="636"/>
      <point x="596" y="633"/>
      <point x="596" y="622" type="curve"/>
      <point x="115" y="0" type="line" smooth="yes"/>
      <point x="110" y="-7"/>
      <point x="94" y="-12"/>
      <point x="82" y="-12" type="curve" smooth="yes"/>
      <point x="70" y="-12"/>
      <point x="65" y="-7"/>
    </contour>
    <contour>
      <point x="104" y="496" type="curve" smooth="yes"/>
      <point x="104" y="427"/>
      <point x="146" y="350"/>
      <point x="196" y="350" type="curve" smooth="yes"/>
      <point x="254" y="350"/>
      <point x="271" y="418"/>
      <point x="271" y="476" type="curve" smooth="yes"/>
      <point x="271" y="543"/>
      <point x="239" y="621"/>
      <point x="186" y="621" type="curve" smooth="yes"/>
      <point x="127" y="621"/>
      <point x="104" y="555"/>
    </contour>
    <contour>
      <point x="328" y="152" type="curve" smooth="yes"/>
      <point x="328" y="241"/>
      <point x="390" y="313"/>
      <point x="479" y="313" type="curve" smooth="yes"/>
      <point x="566" y="313"/>
      <point x="625" y="239"/>
      <point x="625" y="152" type="curve" smooth="yes"/>
      <point x="625" y="72"/>
      <point x="570" y="-7"/>
      <point x="478" y="-7" type="curve" smooth="yes"/>
      <point x="395" y="-7"/>
      <point x="328" y="64"/>
    </contour>
    <contour>
      <point x="392" y="164" type="curve" smooth="yes"/>
      <point x="392" y="95"/>
      <point x="435" y="18"/>
      <point x="485" y="18" type="curve" smooth="yes"/>
      <point x="543" y="18"/>
      <point x="559" y="86"/>
      <point x="559" y="144" type="curve" smooth="yes"/>
      <point x="559" y="211"/>
      <point x="528" y="289"/>
      <point x="475" y="289" type="curve" smooth="yes"/>
      <point x="416" y="289"/>
      <point x="392" y="223"/>
    </contour>
  </outline>
</glyph>
<glyph name="asterisk" format="1">
  <advance width="443"/>
  <unicode hex="002A"/>
  <outline>
    <contour>
      <point x="35" y="463" type="curve" smooth="yes"/>
      <point x="35" y="486"/>
      <point x="55" y="500"/>
      <point x="93" y="500" type="curve" smooth="yes"/>
      <point x="111" y="500"/>
      <point x="126" y="499"/>
      <point x="142" y="496" type="curve" smooth="yes"/>
      <point x="153" y="494"/>
      <point x="165" y="493"/>
      <point x="176" y="493" type="curve" smooth="yes"/>
      <point x="186" y="493"/>
      <point x="202" y="495"/>
      <point x="202" y="507" type="curve" smooth="yes"/>
      <point x="202" y="510"/>
      <point x="201" y="513"/>
      <point x="199" y="516" type="curve" smooth="yes"/>
      <point x="191" y="529"/>
      <point x="182" y="541"/>
      <point x="171" y="552" type="curve" smooth="yes"/>
      <point x="158" y="565"/>
      <point x="143" y="581"/>
      <point x="130" y="604" type="curve" smooth="yes"/>
      <point x="124" y="614"/>
      <point x="122" y="623"/>
      <point x="122" y="633" type="curve" smooth="yes"/>
      <point x="122" y="652"/>
      <point x="135" y="664"/>
      <point x="152" y="664" type="curve" smooth="yes"/>
      <point x="166" y="664"/>
      <point x="179" y="654"/>
      <point x="187" y="637" type="curve" smooth="yes"/>
      <point x="198" y="613"/>
      <point x="202" y="592"/>
      <point x="205" y="572" type="curve" smooth="yes"/>
      <point x="207" y="556"/>
      <point x="210" y="541"/>
      <point x="218" y="525" type="curve" smooth="yes"/>
      <point x="221" y="519"/>
      <point x="226" y="514"/>
      <point x="229" y="514" type="curve" smooth="yes"/>
      <point x="234" y="514"/>
      <point x="237" y="516"/>
      <point x="241" y="520" type="curve" smooth="yes"/>
      <point x="253" y="533"/>
      <point x="260" y="546"/>
      <point x="268" y="561" type="curve" smooth="yes"/>
      <point x="284" y="593"/>
      <point x="309" y="633"/>
      <point x="339" y="633" type="curve" smooth="yes"/>
      <point x="353" y="633"/>
      <point x="368" y="620"/>
      <point x="368" y="602" type="curve" smooth="yes"/>
      <point x="368" y="571"/>
      <point x="329" y="550"/>
      <point x="298" y="534" type="curve" smooth="yes"/>
      <point x="283" y="526"/>
      <point x="269" y="519"/>
      <point x="256" y="506" type="curve" smooth="yes"/>
      <point x="253" y="503"/>
      <point x="249" y="498"/>
      <point x="249" y="493" type="curve" smooth="yes"/>
      <point x="249" y="487"/>
      <point x="254" y="484"/>
      <point x="260" y="481" type="curve" smooth="yes"/>
      <point x="273" y="475"/>
      <point x="286" y="472"/>
      <point x="304" y="469" type="curve" smooth="yes"/>
      <point x="343" y="462"/>
      <point x="399" y="447"/>
      <point x="399" y="414" type="curve" smooth="yes"/>
      <point x="399" y="401"/>
      <point x="388" y="383"/>
      <point x="365" y="383" type="curve" smooth="yes"/>
      <point x="342" y="383"/>
      <point x="315" y="406"/>
      <point x="285" y="435" type="curve" smooth="yes"/>
      <point x="274" y="445"/>
      <point x="263" y="455"/>
      <point x="250" y="462" type="curve" smooth="yes"/>
      <point x="245" y="465"/>
      <point x="242" y="466"/>
      <point x="239" y="466" type="curve" smooth="yes"/>
      <point x="231" y="466"/>
      <point x="229" y="458"/>
      <point x="229" y="449" type="curve" smooth="yes"/>
      <point x="229" y="436"/>
      <point x="230" y="424"/>
      <point x="231" y="412" type="curve" smooth="yes"/>
      <point x="233" y="397"/>
      <point x="235" y="378"/>
      <point x="235" y="360" type="curve" smooth="yes"/>
      <point x="235" y="327"/>
      <point x="225" y="299"/>
      <point x="200" y="299" type="curve" smooth="yes"/>
      <point x="179" y="299"/>
      <point x="167" y="315"/>
      <point x="167" y="335" type="curve" smooth="yes"/>
      <point x="167" y="360"/>
      <point x="182" y="393"/>
      <point x="195" y="418" type="curve" smooth="yes"/>
      <point x="201" y="430"/>
      <point x="209" y="451"/>
      <point x="209" y="460" type="curve" smooth="yes"/>
      <point x="209" y="468"/>
      <point x="205" y="474"/>
      <point x="197" y="474" type="curve" smooth="yes"/>
      <point x="188" y="474"/>
      <point x="166" y="465"/>
      <point x="152" y="458" type="curve" smooth="yes"/>
      <point x="132" y="448"/>
      <point x="98" y="432"/>
      <point x="73" y="432" type="curve" smooth="yes"/>
      <point x="52" y="432"/>
      <point x="35" y="442"/>
    </contour>
  </outline>
</glyph>
<glyph name="period" format="1">
  <advance width="207"/>
  <unicode hex="002E"/>
  <outline>
    <contour>
      <point x="48" y="45" type="curve" smooth="yes"/>
      <point x="48" y="75"/>
      <point x="74" y="99"/>
      <point x="104" y="99" type="curve" smooth="yes"/>
      <point x="134" y="99"/>
      <point x="158" y="75"/>
      <point x="158" y="45" type="curve" smooth="yes"/>
      <point x="158" y="15"/>
      <point x="134" y="-11"/>
      <point x="104" y="-11" type="curve" smooth="yes"/>
      <point x="74" y="-11"/>
      <point x="48" y="15"/>
    </contour>
  </outline>
</glyph>
<glyph name="slash" format="1">
  <advance width="413"/>
  <unicode hex="002F"/>
  <outline>
    <contour>
      <point x="30" y="-28" type="curve"/>
      <point x="329" y="746" type="line" smooth="yes"/>
      <point x="330" y="749"/>
      <point x="345" y="761"/>
      <point x="369" y="761" type="curve" smooth="yes"/>
      <point x="377" y="761"/>
      <point x="381" y="755"/>
      <point x="382" y="752" type="curve"/>
      <point x="87" y="-12" type="line" smooth="yes"/>
      <point x="84" y="-19"/>
      <point x="71" y="-35"/>
      <point x="48" y="-35" type="curve" smooth="yes"/>
      <point x="33" y="-35"/>
      <point x="30" y="-28"/>
    </contour>
  </outline>
</glyph>
<glyph name="zero" format="1">
  <advance width="497"/>
  <unicode hex="0030"/>
  <outline>
    <contour>
      <point x="30" y="319" type="curve" smooth="yes"/>
      <point x="30" y="493"/>
      <point x="110" y="641"/>
      <point x="248" y="641" type="curve" smooth="yes"/>
      <point x="388" y="641"/>
      <point x="466" y="493"/>
      <point x="466" y="319" type="curve" smooth="yes"/>
      <point x="466" y="145"/>
      <point x="386" y="-3"/>
      <point x="248" y="-3" type="curve" smooth="yes"/>
      <point x="112" y="-3"/>
      <point x="30" y="145"/>
    </contour>
    <contour>
      <point x="118" y="320" type="curve" smooth="yes"/>
      <point x="118" y="163"/>
      <point x="170" y="34"/>
      <point x="244" y="34" type="curve" smooth="yes"/>
      <point x="333" y="34"/>
      <point x="378" y="168"/>
      <point x="378" y="325" type="curve" smooth="yes"/>
      <point x="378" y="482"/>
      <point x="328" y="604"/>
      <point x="254" y="604" type="curve" smooth="yes"/>
      <point x="170" y="604"/>
      <point x="118" y="477"/>
    </contour>
  </outline>
</glyph>
<glyph name="four" format="1">
  <advance width="497"/>
  <unicode hex="0034"/>
  <outline>
    <contour>
      <point x="26" y="193" type="curve"/>
      <point x="352" y="619" type="line" smooth="yes"/>
      <point x="358" y="627"/>
      <point x="374" y="644"/>
      <point x="382" y="644" type="curve" smooth="yes"/>
      <point x="392" y="644"/>
      <point x="397" y="634"/>
      <point x="397" y="626" type="curve" smooth="yes"/>
      <point x="397" y="231" type="line"/>
      <point x="456" y="231" type="line" smooth="yes"/>
      <point x="462" y="231"/>
      <point x="470" y="211"/>
      <point x="470" y="190" type="curve" smooth="yes"/>
      <point x="470" y="181"/>
      <point x="468" y="177"/>
      <point x="466" y="174" type="curve"/>
      <point x="397" y="174" type="line"/>
      <point x="397" y="-1" type="line"/>
      <point x="397" y="-1"/>
      <point x="393" y="-6"/>
      <point x="354" y="-6" type="curve" smooth="yes"/>
      <point x="330" y="-6"/>
      <point x="318" y="-5"/>
      <point x="318" y="2" type="curve" smooth="yes"/>
      <point x="318" y="174" type="line"/>
      <point x="36" y="174" type="line"/>
      <point x="29" y="178"/>
      <point x="26" y="187"/>
    </contour>
    <contour>
      <point x="94" y="231" type="line"/>
      <point x="318" y="231" type="line"/>
      <point x="318" y="524" type="line"/>
    </contour>
  </outline>
</glyph>
<glyph name="question" format="1">
  <advance width="356"/>
  <unicode hex="003F"/>
  <outline>
    <contour>
      <point x="56" y="598" type="curve" smooth="yes"/>
      <point x="56" y="613"/>
      <point x="60" y="628"/>
      <point x="65" y="635" type="curve"/>
      <point x="75" y="640"/>
      <point x="92" y="642"/>
      <point x="113" y="642" type="curve" smooth="yes"/>
      <point x="179" y="642"/>
      <point x="310" y="574"/>
      <point x="310" y="457" type="curve" smooth="yes"/>
      <point x="310" y="393"/>
      <point x="285" y="348"/>
      <point x="222" y="312" type="curve" smooth="yes"/>
      <point x="191" y="294"/>
      <point x="140" y="258"/>
      <point x="131" y="242" type="curve" smooth="yes"/>
      <point x="121" y="225"/>
      <point x="125" y="195"/>
      <point x="125" y="172" type="curve"/>
      <point x="121" y="164"/>
      <point x="118" y="160"/>
      <point x="109" y="159" type="curve"/>
      <point x="104" y="161"/>
      <point x="99" y="164"/>
      <point x="96" y="170" type="curve"/>
      <point x="91" y="191"/>
      <point x="88" y="234"/>
      <point x="88" y="261" type="curve" smooth="yes"/>
      <point x="88" y="335"/>
      <point x="136" y="361"/>
      <point x="173" y="385" type="curve" smooth="yes"/>
      <point x="222" y="416"/>
      <point x="260" y="439"/>
      <point x="260" y="487" type="curve" smooth="yes"/>
      <point x="260" y="539"/>
      <point x="224" y="569"/>
      <point x="186" y="569" type="curve" smooth="yes"/>
      <point x="133" y="569"/>
      <point x="126" y="548"/>
      <point x="100" y="548" type="curve" smooth="yes"/>
      <point x="86" y="548"/>
      <point x="56" y="565"/>
    </contour>
    <component base="period" xOffset="15"/>
  </outline>
</glyph>
<glyph name="F" format="1">
  <advance width="535"/>
  <unicode hex="0046"/>
  <outline>
    <contour>
      <point x="45" y="-3" type="curve"/>
      <point x="40" y="2"/>
      <point x="41" y="21"/>
      <point x="45" y="26" type="curve"/>
      <point x="57" y="26"/>
      <point x="111" y="31"/>
      <point x="114" y="42" type="curve" smooth="yes"/>
      <point x="119" y="58"/>
      <point x="119" y="86"/>
      <point x="119" y="116" type="curve" smooth="yes"/>
      <point x="119" y="543" type="line" smooth="yes"/>
      <point x="119" y="573"/>
      <point x="119" y="601"/>
      <point x="114" y="617" type="curve" smooth="yes"/>
      <point x="111" y="628"/>
      <point x="57" y="633"/>
      <point x="45" y="633" type="curve"/>
      <point x="41" y="638"/>
      <point x="40" y="657"/>
      <point x="45" y="662" type="curve"/>
      <point x="86" y="660"/>
      <point x="124" y="657"/>
      <point x="163" y="657" type="curve" smooth="yes"/>
      <point x="257" y="657"/>
      <point x="376" y="664"/>
      <point x="485" y="664" type="curve"/>
      <point x="492" y="614"/>
      <point x="505" y="573"/>
      <point x="514" y="528" type="curve"/>
      <point x="511" y="525"/>
      <point x="503" y="523"/>
      <point x="496" y="523" type="curve" smooth="yes"/>
      <point x="489" y="523"/>
      <point x="483" y="525"/>
      <point x="482" y="530" type="curve" smooth="yes"/>
      <point x="460" y="610"/>
      <point x="419" y="624"/>
      <point x="366" y="624" type="curve" smooth="yes"/>
      <point x="280" y="624" type="line" smooth="yes"/>
      <point x="268" y="624"/>
      <point x="214" y="623"/>
      <point x="211" y="613" type="curve" smooth="yes"/>
      <point x="206" y="597"/>
      <point x="206" y="569"/>
      <point x="206" y="542" type="curve" smooth="yes"/>
      <point x="206" y="355" type="line" smooth="yes"/>
      <point x="206" y="350"/>
      <point x="227" y="349"/>
      <point x="249" y="349" type="curve" smooth="yes"/>
      <point x="302" y="349" type="line" smooth="yes"/>
      <point x="398" y="349"/>
      <point x="395" y="355"/>
      <point x="412" y="421" type="curve" smooth="yes"/>
      <point x="413" y="426"/>
      <point x="420" y="428"/>
      <point x="427" y="428" type="curve" smooth="yes"/>
      <point x="434" y="428"/>
      <point x="441" y="426"/>
      <point x="444" y="423" type="curve"/>
      <point x="444" y="234" type="line"/>
      <point x="442" y="232"/>
      <point x="435" y="230"/>
      <point x="428" y="230" type="curve" smooth="yes"/>
      <point x="421" y="230"/>
      <point x="414" y="233"/>
      <point x="412" y="238" type="curve" smooth="yes"/>
      <point x="397" y="295"/>
      <point x="393" y="298"/>
      <point x="384" y="304" type="curve" smooth="yes"/>
      <point x="373" y="311"/>
      <point x="316" y="312"/>
      <point x="278" y="312" type="curve" smooth="yes"/>
      <point x="250" y="312"/>
      <point x="206" y="312"/>
      <point x="206" y="303" type="curve" smooth="yes"/>
      <point x="206" y="116" type="line" smooth="yes"/>
      <point x="206" y="86"/>
      <point x="206" y="58"/>
      <point x="211" y="42" type="curve" smooth="yes"/>
      <point x="214" y="31"/>
      <point x="278" y="26"/>
      <point x="290" y="26" type="curve"/>
      <point x="294" y="21"/>
      <point x="295" y="2"/>
      <point x="290" y="-3" type="curve"/>
      <point x="249" y="-1"/>
      <point x="202" y="2"/>
      <point x="163" y="2" type="curve" smooth="yes"/>
      <point x="116" y="2"/>
      <point x="84" y="-3"/>
    </contour>
  </outline>
</glyph>
<glyph name="G" format="1">
  <advance width="720"/>
  <unicode hex="0047"/>
  <outline>
    <contour>
      <point x="48" y="322" type="curve" smooth="yes"/>
      <point x="48" y="509"/>
      <point x="189" y="667"/>
      <point x="386" y="667" type="curve" smooth="yes"/>
      <point x="452" y="667"/>
      <point x="524" y="662"/>
      <point x="598" y="646" type="curve"/>
      <point x="598" y="646"/>
      <point x="621" y="508"/>
      <point x="621" y="498" type="curve"/>
      <point x="622" y="492"/>
      <point x="609" y="485"/>
      <point x="599" y="485" type="curve" smooth="yes"/>
      <point x="593" y="485"/>
      <point x="590" y="486"/>
      <point x="587" y="488" type="curve"/>
      <point x="581" y="519"/>
      <point x="558" y="634"/>
      <point x="391" y="634" type="curve" smooth="yes"/>
      <point x="243" y="634"/>
      <point x="147" y="483"/>
      <point x="147" y="343" type="curve" smooth="yes"/>
      <point x="147" y="187"/>
      <point x="232" y="27"/>
      <point x="407" y="27" type="curve" smooth="yes"/>
      <point x="459" y="27"/>
      <point x="498" y="44"/>
      <point x="528" y="59" type="curve" smooth="yes"/>
      <point x="534" y="62"/>
      <point x="535" y="67"/>
      <point x="535" y="74" type="curve" smooth="yes"/>
      <point x="535" y="175" type="line" smooth="yes"/>
      <point x="535" y="205"/>
      <point x="535" y="233"/>
      <point x="530" y="249" type="curve" smooth="yes"/>
      <point x="527" y="260"/>
      <point x="474" y="265"/>
      <point x="462" y="265" type="curve"/>
      <point x="458" y="270"/>
      <point x="457" y="289"/>
      <point x="462" y="294" type="curve"/>
      <point x="503" y="292"/>
      <point x="540" y="289"/>
      <point x="579" y="289" type="curve" smooth="yes"/>
      <point x="618" y="289"/>
      <point x="650" y="292"/>
      <point x="691" y="294" type="curve"/>
      <point x="696" y="289"/>
      <point x="695" y="270"/>
      <point x="691" y="265" type="curve"/>
      <point x="679" y="265"/>
      <point x="629" y="260"/>
      <point x="626" y="249" type="curve" smooth="yes"/>
      <point x="621" y="233"/>
      <point x="621" y="205"/>
      <point x="621" y="175" type="curve" smooth="yes"/>
      <point x="621" y="104" type="line" smooth="yes"/>
      <point x="621" y="83"/>
      <point x="631" y="74"/>
      <point x="631" y="64" type="curve" smooth="yes"/>
      <point x="631" y="58"/>
      <point x="628" y="55"/>
      <point x="611" y="46" type="curve" smooth="yes"/>
      <point x="568" y="23"/>
      <point x="514" y="-6"/>
      <point x="382" y="-6" type="curve" smooth="yes"/>
      <point x="184" y="-6"/>
      <point x="48" y="145"/>
    </contour>
  </outline>
</glyph>
<glyph name="H" format="1">
  <advance width="726"/>
  <unicode hex="0048"/>
  <outline>
    <contour>
      <point x="45" y="-3" type="curve"/>
      <point x="40" y="2"/>
      <point x="41" y="24"/>
      <point x="45" y="29" type="curve"/>
      <point x="57" y="29"/>
      <point x="111" y="34"/>
      <point x="114" y="45" type="curve" smooth="yes"/>
      <point x="119" y="61"/>
      <point x="119" y="89"/>
      <point x="119" y="119" type="curve" smooth="yes"/>
      <point x="119" y="540" type="line" smooth="yes"/>
      <point x="119" y="570"/>
      <point x="119" y="598"/>
      <point x="114" y="614" type="curve" smooth="yes"/>
      <point x="111" y="625"/>
      <point x="57" y="630"/>
      <point x="45" y="630" type="curve"/>
      <point x="41" y="635"/>
      <point x="40" y="657"/>
      <point x="45" y="662" type="curve"/>
      <point x="86" y="660"/>
      <point x="124" y="657"/>
      <point x="163" y="657" type="curve" smooth="yes"/>
      <point x="202" y="657"/>
      <point x="239" y="660"/>
      <point x="280" y="662" type="curve"/>
      <point x="285" y="657"/>
      <point x="284" y="635"/>
      <point x="280" y="630" type="curve"/>
      <point x="268" y="630"/>
      <point x="214" y="625"/>
      <point x="211" y="614" type="curve" smooth="yes"/>
      <point x="206" y="598"/>
      <point x="206" y="570"/>
      <point x="206" y="540" type="curve" smooth="yes"/>
      <point x="206" y="370" type="line" smooth="yes"/>
      <point x="206" y="364"/>
      <point x="211" y="362"/>
      <point x="217" y="362" type="curve" smooth="yes"/>
      <point x="266" y="361"/>
      <point x="309" y="359"/>
      <point x="365" y="359" type="curve" smooth="yes"/>
      <point x="412" y="359"/>
      <point x="462" y="361"/>
      <point x="502" y="362" type="curve" smooth="yes"/>
      <point x="513" y="362"/>
      <point x="520" y="363"/>
      <point x="520" y="370" type="curve" smooth="yes"/>
      <point x="520" y="540" type="line" smooth="yes"/>
      <point x="520" y="570"/>
      <point x="520" y="598"/>
      <point x="515" y="614" type="curve" smooth="yes"/>
      <point x="512" y="625"/>
      <point x="458" y="630"/>
      <point x="446" y="630" type="curve"/>
      <point x="442" y="635"/>
      <point x="441" y="657"/>
      <point x="446" y="662" type="curve"/>
      <point x="487" y="660"/>
      <point x="525" y="657"/>
      <point x="564" y="657" type="curve" smooth="yes"/>
      <point x="603" y="657"/>
      <point x="640" y="660"/>
      <point x="681" y="662" type="curve"/>
      <point x="686" y="657"/>
      <point x="685" y="635"/>
      <point x="681" y="630" type="curve"/>
      <point x="669" y="630"/>
      <point x="615" y="625"/>
      <point x="612" y="614" type="curve" smooth="yes"/>
      <point x="607" y="598"/>
      <point x="607" y="570"/>
      <point x="607" y="540" type="curve" smooth="yes"/>
      <point x="607" y="119" type="line" smooth="yes"/>
      <point x="607" y="89"/>
      <point x="607" y="61"/>
      <point x="612" y="45" type="curve" smooth="yes"/>
      <point x="615" y="34"/>
      <point x="669" y="29"/>
      <point x="681" y="29" type="curve"/>
      <point x="685" y="24"/>
      <point x="686" y="2"/>
      <point x="681" y="-3" type="curve"/>
      <point x="640" y="-1"/>
      <point x="603" y="2"/>
      <point x="564" y="2" type="curve" smooth="yes"/>
      <point x="525" y="2"/>
      <point x="487" y="-1"/>
      <point x="446" y="-3" type="curve"/>
      <point x="441" y="2"/>
      <point x="442" y="24"/>
      <point x="446" y="29" type="curve"/>
      <point x="458" y="29"/>
      <point x="512" y="34"/>
      <point x="515" y="45" type="curve" smooth="yes"/>
      <point x="520" y="61"/>
      <point x="520" y="89"/>
      <point x="520" y="119" type="curve" smooth="yes"/>
      <point x="520" y="315" type="line" smooth="yes"/>
      <point x="520" y="319"/>
      <point x="515" y="321"/>
      <point x="509" y="321" type="curve" smooth="yes"/>
      <point x="464" y="322"/>
      <point x="416" y="325"/>
      <point x="365" y="325" type="curve" smooth="yes"/>
      <point x="242" y="325"/>
      <point x="221" y="322"/>
      <point x="215" y="321" type="curve" smooth="yes"/>
      <point x="210" y="320"/>
      <point x="206" y="318"/>
      <point x="206" y="313" type="curve" smooth="yes"/>
      <point x="206" y="119" type="line" smooth="yes"/>
      <point x="206" y="89"/>
      <point x="206" y="61"/>
      <point x="211" y="45" type="curve" smooth="yes"/>
      <point x="214" y="34"/>
      <point x="268" y="29"/>
      <point x="280" y="29" type="curve"/>
      <point x="284" y="24"/>
      <point x="285" y="2"/>
      <point x="280" y="-3" type="curve"/>
      <point x="239" y="-1"/>
      <point x="202" y="2"/>
      <point x="163" y="2" type="curve" smooth="yes"/>
      <point x="124" y="2"/>
      <point x="86" y="-1"/>
    </contour>
  </outline>
</glyph>
<glyph name="K" format="1">
  <advance width="657"/>
  <unicode hex="004B"/>
  <outline>
    <contour>
      <point x="45" y="-3" type="curve"/>
      <point x="40" y="2"/>
      <point x="41" y="24"/>
      <point x="45" y="29" type="curve"/>
      <point x="57" y="29"/>
      <point x="111" y="34"/>
      <point x="114" y="45" type="curve" smooth="yes"/>
      <point x="119" y="61"/>
      <point x="119" y="89"/>
      <point x="119" y="119" type="curve" smooth="yes"/>
      <point x="119" y="540" type="line" smooth="yes"/>
      <point x="119" y="570"/>
      <point x="119" y="598"/>
      <point x="114" y="614" type="curve" smooth="yes"/>
      <point x="111" y="625"/>
      <point x="57" y="630"/>
      <point x="45" y="630" type="curve"/>
      <point x="41" y="635"/>
      <point x="40" y="657"/>
      <point x="45" y="662" type="curve"/>
      <point x="86" y="660"/>
      <point x="124" y="657"/>
      <point x="163" y="657" type="curve" smooth="yes"/>
      <point x="202" y="657"/>
      <point x="239" y="660"/>
      <point x="280" y="662" type="curve"/>
      <point x="285" y="657"/>
      <point x="284" y="635"/>
      <point x="280" y="630" type="curve"/>
      <point x="268" y="630"/>
      <point x="214" y="625"/>
      <point x="211" y="614" type="curve" smooth="yes"/>
      <point x="206" y="598"/>
      <point x="206" y="570"/>
      <point x="206" y="540" type="curve" smooth="yes"/>
      <point x="206" y="341" type="line"/>
      <point x="227" y="354"/>
      <point x="278" y="402"/>
      <point x="319" y="442" type="curve" smooth="yes"/>
      <point x="397" y="519"/>
      <point x="416" y="539"/>
      <point x="446" y="578" type="curve" smooth="yes"/>
      <point x="452" y="586"/>
      <point x="460" y="599"/>
      <point x="460" y="609" type="curve" smooth="yes"/>
      <point x="460" y="634"/>
      <point x="413" y="631"/>
      <point x="404" y="631" type="curve"/>
      <point x="401" y="637"/>
      <point x="401" y="653"/>
      <point x="404" y="662" type="curve"/>
      <point x="441" y="660"/>
      <point x="482" y="656"/>
      <point x="519" y="656" type="curve" smooth="yes"/>
      <point x="563" y="656"/>
      <point x="587" y="660"/>
      <point x="627" y="662" type="curve"/>
      <point x="629" y="656"/>
      <point x="630" y="631"/>
      <point x="625" y="631" type="curve" smooth="yes"/>
      <point x="616" y="630"/>
      <point x="560" y="631"/>
      <point x="526" y="594" type="curve" smooth="yes"/>
      <point x="440" y="500"/>
      <point x="382" y="448"/>
      <point x="295" y="364" type="curve" smooth="yes"/>
      <point x="293" y="361"/>
      <point x="293" y="359"/>
      <point x="295" y="356" type="curve" smooth="yes"/>
      <point x="391" y="244"/>
      <point x="474" y="145"/>
      <point x="551" y="72" type="curve" smooth="yes"/>
      <point x="576" y="49"/>
      <point x="605" y="30"/>
      <point x="660" y="26" type="curve"/>
      <point x="665" y="21"/>
      <point x="660" y="-1"/>
      <point x="659" y="-3" type="curve"/>
      <point x="592" y="-3"/>
      <point x="537" y="1"/>
      <point x="517" y="8" type="curve" smooth="yes"/>
      <point x="503" y="13"/>
      <point x="477" y="23"/>
      <point x="449" y="51" type="curve" smooth="yes"/>
      <point x="428" y="72"/>
      <point x="337" y="175"/>
      <point x="224" y="304" type="curve" smooth="yes"/>
      <point x="222" y="307"/>
      <point x="219" y="307"/>
      <point x="215" y="307" type="curve" smooth="yes"/>
      <point x="212" y="307"/>
      <point x="208" y="306"/>
      <point x="206" y="305" type="curve"/>
      <point x="206" y="119" type="line" smooth="yes"/>
      <point x="206" y="89"/>
      <point x="206" y="61"/>
      <point x="211" y="45" type="curve" smooth="yes"/>
      <point x="214" y="34"/>
      <point x="268" y="29"/>
      <point x="280" y="29" type="curve"/>
      <point x="284" y="24"/>
      <point x="285" y="2"/>
      <point x="280" y="-3" type="curve"/>
      <point x="239" y="-1"/>
      <point x="202" y="2"/>
      <point x="163" y="2" type="curve" smooth="yes"/>
      <point x="124" y="2"/>
      <point x="86" y="-1"/>
    </contour>
  </outline>
</glyph>
<glyph name="M" format="1">
  <advance width="907"/>
  <unicode hex="004D"/>
  <outline>
    <contour>
      <point x="26" y="-3" type="curve"/>
      <point x="24" y="-1"/>
      <point x="22" y="18"/>
      <point x="26" y="26" type="curve"/>
      <point x="38" y="26"/>
      <point x="98" y="31"/>
      <point x="107" y="44" type="curve" smooth="yes"/>
      <point x="116" y="57"/>
      <point x="118" y="73"/>
      <point x="119" y="94" type="curve" smooth="yes"/>
      <point x="128" y="334"/>
      <point x="133" y="554"/>
      <point x="133" y="572" type="curve" smooth="yes"/>
      <point x="133" y="586"/>
      <point x="133" y="601"/>
      <point x="129" y="612" type="curve" smooth="yes"/>
      <point x="125" y="624"/>
      <point x="71" y="633"/>
      <point x="59" y="633" type="curve" smooth="yes"/>
      <point x="57" y="633"/>
      <point x="57" y="660"/>
      <point x="59" y="662" type="curve"/>
      <point x="105" y="660"/>
      <point x="116" y="657"/>
      <point x="162" y="657" type="curve" smooth="yes"/>
      <point x="196" y="657"/>
      <point x="221" y="660"/>
      <point x="243" y="662" type="curve"/>
      <point x="263" y="599"/>
      <point x="384" y="324"/>
      <point x="455" y="146" type="curve" smooth="yes"/>
      <point x="456" y="144"/>
      <point x="458" y="144"/>
      <point x="459" y="144" type="curve" smooth="yes"/>
      <point x="460" y="144"/>
      <point x="463" y="145"/>
      <point x="464" y="148" type="curve" smooth="yes"/>
      <point x="523" y="300"/>
      <point x="559" y="394"/>
      <point x="617" y="542" type="curve" smooth="yes"/>
      <point x="635" y="588"/>
      <point x="661" y="662"/>
      <point x="661" y="662" type="curve"/>
      <point x="693" y="660"/>
      <point x="721" y="658"/>
      <point x="740" y="658" type="curve" smooth="yes"/>
      <point x="775" y="658"/>
      <point x="827" y="660"/>
      <point x="852" y="662" type="curve"/>
      <point x="853" y="659"/>
      <point x="855" y="633"/>
      <point x="855" y="633" type="curve"/>
      <point x="841" y="633"/>
      <point x="789" y="625"/>
      <point x="784" y="615" type="curve" smooth="yes"/>
      <point x="780" y="606"/>
      <point x="779" y="589"/>
      <point x="779" y="577" type="curve" smooth="yes"/>
      <point x="781" y="508"/>
      <point x="786" y="270"/>
      <point x="789" y="140" type="curve" smooth="yes"/>
      <point x="790" y="101"/>
      <point x="792" y="67"/>
      <point x="801" y="43" type="curve" smooth="yes"/>
      <point x="806" y="29"/>
      <point x="863" y="26"/>
      <point x="871" y="26" type="curve"/>
      <point x="876" y="17"/>
      <point x="874" y="0"/>
      <point x="873" y="-3" type="curve"/>
      <point x="833" y="-1"/>
      <point x="798" y="2"/>
      <point x="754" y="2" type="curve" smooth="yes"/>
      <point x="708" y="2"/>
      <point x="680" y="-1"/>
      <point x="634" y="-3" type="curve"/>
      <point x="632" y="-1"/>
      <point x="630" y="18"/>
      <point x="634" y="26" type="curve"/>
      <point x="646" y="26"/>
      <point x="687" y="30"/>
      <point x="699" y="37" type="curve" smooth="yes"/>
      <point x="706" y="41"/>
      <point x="708" y="65"/>
      <point x="708" y="79" type="curve" smooth="yes"/>
      <point x="708" y="93"/>
      <point x="706" y="122"/>
      <point x="706" y="137" type="curve" smooth="yes"/>
      <point x="702" y="281"/>
      <point x="699" y="403"/>
      <point x="693" y="565" type="curve" smooth="yes"/>
      <point x="693" y="569"/>
      <point x="691" y="585"/>
      <point x="684" y="585" type="curve" smooth="yes"/>
      <point x="682" y="585"/>
      <point x="681" y="583"/>
      <point x="679" y="578" type="curve" smooth="yes"/>
      <point x="597" y="372"/>
      <point x="545" y="242"/>
      <point x="468" y="49" type="curve" smooth="yes"/>
      <point x="464" y="40"/>
      <point x="441" y="0"/>
      <point x="430" y="-2" type="curve" smooth="yes"/>
      <point x="427" y="-3"/>
      <point x="424" y="-1"/>
      <point x="421" y="0" type="curve"/>
      <point x="177" y="584" type="line"/>
      <point x="173" y="366"/>
      <point x="164" y="85"/>
      <point x="164" y="75" type="curve" smooth="yes"/>
      <point x="164" y="66"/>
      <point x="165" y="52"/>
      <point x="168" y="44" type="curve" smooth="yes"/>
      <point x="174" y="29"/>
      <point x="239" y="26"/>
      <point x="247" y="26" type="curve"/>
      <point x="252" y="20"/>
      <point x="250" y="0"/>
      <point x="249" y="-3" type="curve"/>
      <point x="209" y="-1"/>
      <point x="187" y="2"/>
      <point x="143" y="2" type="curve" smooth="yes"/>
      <point x="97" y="2"/>
      <point x="72" y="-1"/>
    </contour>
  </outline>
</glyph>
<glyph name="N" format="1">
  <advance width="776"/>
  <unicode hex="004E"/>
  <outline>
    <contour>
      <point x="41" y="-3" type="curve"/>
      <point x="38" y="2"/>
      <point x="36" y="15"/>
      <point x="41" y="26" type="curve"/>
      <point x="53" y="26"/>
      <point x="112" y="34"/>
      <point x="119" y="46" type="curve" smooth="yes"/>
      <point x="128" y="61"/>
      <point x="129" y="76"/>
      <point x="129" y="114" type="curve" smooth="yes"/>
      <point x="129" y="548" type="line" smooth="yes"/>
      <point x="129" y="586"/>
      <point x="128" y="601"/>
      <point x="119" y="616" type="curve" smooth="yes"/>
      <point x="112" y="628"/>
      <point x="53" y="636"/>
      <point x="41" y="636" type="curve"/>
      <point x="36" y="647"/>
      <point x="38" y="660"/>
      <point x="41" y="665" type="curve"/>
      <point x="87" y="663"/>
      <point x="110" y="660"/>
      <point x="143" y="660" type="curve" smooth="yes"/>
      <point x="173" y="660"/>
      <point x="205" y="661"/>
      <point x="219" y="662" type="curve"/>
      <point x="270" y="582"/>
      <point x="500" y="321"/>
      <point x="611" y="166" type="curve"/>
      <point x="611" y="545" type="line" smooth="yes"/>
      <point x="611" y="581"/>
      <point x="611" y="598"/>
      <point x="601" y="614" type="curve" smooth="yes"/>
      <point x="595" y="624"/>
      <point x="541" y="634"/>
      <point x="525" y="634" type="curve"/>
      <point x="520" y="641"/>
      <point x="521" y="657"/>
      <point x="523" y="663" type="curve"/>
      <point x="563" y="661"/>
      <point x="594" y="658"/>
      <point x="638" y="658" type="curve" smooth="yes"/>
      <point x="684" y="658"/>
      <point x="699" y="661"/>
      <point x="745" y="663" type="curve"/>
      <point x="748" y="658"/>
      <point x="750" y="645"/>
      <point x="745" y="634" type="curve"/>
      <point x="733" y="634"/>
      <point x="674" y="626"/>
      <point x="667" y="614" type="curve" smooth="yes"/>
      <point x="658" y="599"/>
      <point x="657" y="584"/>
      <point x="657" y="546" type="curve" smooth="yes"/>
      <point x="657" y="139" type="line" smooth="yes"/>
      <point x="657" y="81"/>
      <point x="657" y="53"/>
      <point x="659" y="1" type="curve"/>
      <point x="658" y="-4"/>
      <point x="649" y="-5"/>
      <point x="646" y="-5" type="curve" smooth="yes"/>
      <point x="641" y="-5"/>
      <point x="625" y="0"/>
      <point x="611" y="18" type="curve" smooth="yes"/>
      <point x="175" y="569" type="line"/>
      <point x="175" y="115" type="line" smooth="yes"/>
      <point x="175" y="79"/>
      <point x="175" y="62"/>
      <point x="185" y="46" type="curve" smooth="yes"/>
      <point x="191" y="36"/>
      <point x="244" y="26"/>
      <point x="260" y="26" type="curve"/>
      <point x="265" y="19"/>
      <point x="264" y="3"/>
      <point x="262" y="-3" type="curve"/>
      <point x="222" y="-1"/>
      <point x="192" y="2"/>
      <point x="148" y="2" type="curve" smooth="yes"/>
      <point x="102" y="2"/>
      <point x="87" y="-1"/>
    </contour>
  </outline>
</glyph>
<glyph name="O" format="1">
  <advance width="748"/>
  <unicode hex="004F"/>
  <outline>
    <contour>
      <point x="49" y="328" type="curve" smooth="yes"/>
      <point x="49" y="515"/>
      <point x="197" y="667"/>
      <point x="373" y="667" type="curve" smooth="yes"/>
      <point x="549" y="667"/>
      <point x="699" y="527"/>
      <point x="699" y="328" type="curve" smooth="yes"/>
      <point x="699" y="141"/>
      <point x="549" y="-10"/>
      <point x="373" y="-10" type="curve" smooth="yes"/>
      <point x="197" y="-10"/>
      <point x="49" y="130"/>
    </contour>
    <contour>
      <point x="148" y="350" type="curve" smooth="yes"/>
      <point x="148" y="195"/>
      <point x="234" y="24"/>
      <point x="389" y="24" type="curve" smooth="yes"/>
      <point x="539" y="24"/>
      <point x="600" y="174"/>
      <point x="600" y="309" type="curve" smooth="yes"/>
      <point x="600" y="464"/>
      <point x="513" y="633"/>
      <point x="358" y="633" type="curve" smooth="yes"/>
      <point x="208" y="633"/>
      <point x="148" y="484"/>
    </contour>
  </outline>
</glyph>
<glyph name="R" format="1">
  <advance width="621"/>
  <unicode hex="0052"/>
  <outline>
    <contour>
      <point x="45" y="-3" type="curve"/>
      <point x="40" y="2"/>
      <point x="41" y="21"/>
      <point x="45" y="26" type="curve"/>
      <point x="57" y="26"/>
      <point x="111" y="31"/>
      <point x="114" y="42" type="curve" smooth="yes"/>
      <point x="119" y="58"/>
      <point x="119" y="86"/>
      <point x="119" y="116" type="curve" smooth="yes"/>
      <point x="119" y="543" type="line" smooth="yes"/>
      <point x="119" y="573"/>
      <point x="119" y="601"/>
      <point x="114" y="617" type="curve" smooth="yes"/>
      <point x="111" y="628"/>
      <point x="57" y="633"/>
      <point x="45" y="633" type="curve"/>
      <point x="41" y="638"/>
      <point x="40" y="657"/>
      <point x="45" y="662" type="curve"/>
      <point x="86" y="660"/>
      <point x="124" y="657"/>
      <point x="163" y="657" type="curve" smooth="yes"/>
      <point x="202" y="657"/>
      <point x="246" y="659"/>
      <point x="305" y="659" type="curve" smooth="yes"/>
      <point x="396" y="659"/>
      <point x="508" y="600"/>
      <point x="508" y="486" type="curve" smooth="yes"/>
      <point x="508" y="414"/>
      <point x="439" y="344"/>
      <point x="372" y="321" type="curve"/>
      <point x="425" y="233"/>
      <point x="467" y="173"/>
      <point x="533" y="86" type="curve" smooth="yes"/>
      <point x="562" y="48"/>
      <point x="591" y="30"/>
      <point x="646" y="26" type="curve"/>
      <point x="651" y="21"/>
      <point x="646" y="-1"/>
      <point x="645" y="-3" type="curve"/>
      <point x="578" y="-3"/>
      <point x="533" y="2"/>
      <point x="513" y="9" type="curve" smooth="yes"/>
      <point x="499" y="14"/>
      <point x="472" y="22"/>
      <point x="448" y="53" type="curve" smooth="yes"/>
      <point x="433" y="73"/>
      <point x="352" y="192"/>
      <point x="289" y="290" type="curve" smooth="yes"/>
      <point x="283" y="299"/>
      <point x="273" y="302"/>
      <point x="259" y="302" type="curve" smooth="yes"/>
      <point x="206" y="302" type="line"/>
      <point x="206" y="116" type="line" smooth="yes"/>
      <point x="206" y="86"/>
      <point x="206" y="58"/>
      <point x="211" y="42" type="curve" smooth="yes"/>
      <point x="214" y="31"/>
      <point x="268" y="26"/>
      <point x="280" y="26" type="curve"/>
      <point x="284" y="21"/>
      <point x="285" y="2"/>
      <point x="280" y="-3" type="curve"/>
      <point x="239" y="-1"/>
      <point x="202" y="2"/>
      <point x="163" y="2" type="curve" smooth="yes"/>
      <point x="124" y="2"/>
      <point x="86" y="-1"/>
    </contour>
    <contour>
      <point x="206" y="333" type="line"/>
      <point x="260" y="333" type="line" smooth="yes"/>
      <point x="338" y="333"/>
      <point x="415" y="389"/>
      <point x="415" y="477" type="curve" smooth="yes"/>
      <point x="415" y="564"/>
      <point x="372" y="627"/>
      <point x="261" y="627" type="curve" smooth="yes"/>
      <point x="249" y="627"/>
      <point x="215" y="626"/>
      <point x="211" y="617" type="curve" smooth="yes"/>
      <point x="206" y="605"/>
      <point x="206" y="572"/>
      <point x="206" y="542" type="curve" smooth="yes"/>
    </contour>
  </outline>
</glyph>
<glyph name="T" format="1">
  <advance width="626"/>
  <unicode hex="0054"/>
  <outline>
    <contour>
      <point x="12" y="506" type="curve"/>
      <point x="23" y="559"/>
      <point x="31" y="617"/>
      <point x="38" y="678" type="curve"/>
      <point x="44" y="681"/>
      <point x="55" y="678"/>
      <point x="61" y="675" type="curve" smooth="yes"/>
      <point x="73" y="669"/>
      <point x="101" y="661"/>
      <point x="117" y="661" type="curve" smooth="yes"/>
      <point x="508" y="661" type="line" smooth="yes"/>
      <point x="524" y="661"/>
      <point x="556" y="670"/>
      <point x="568" y="676" type="curve" smooth="yes"/>
      <point x="578" y="681"/>
      <point x="581" y="681"/>
      <point x="587" y="678" type="curve"/>
      <point x="594" y="617"/>
      <point x="602" y="559"/>
      <point x="613" y="506" type="curve"/>
      <point x="610" y="503"/>
      <point x="603" y="498"/>
      <point x="594" y="499" type="curve" smooth="yes"/>
      <point x="589" y="499"/>
      <point x="582" y="501"/>
      <point x="580" y="504" type="curve"/>
      <point x="566" y="574"/>
      <point x="534" y="626"/>
      <point x="484" y="626" type="curve" smooth="yes"/>
      <point x="357" y="626" type="line"/>
      <point x="357" y="116" type="line" smooth="yes"/>
      <point x="357" y="86"/>
      <point x="357" y="58"/>
      <point x="362" y="42" type="curve" smooth="yes"/>
      <point x="365" y="31"/>
      <point x="419" y="26"/>
      <point x="431" y="26" type="curve"/>
      <point x="435" y="21"/>
      <point x="436" y="2"/>
      <point x="431" y="-3" type="curve"/>
      <point x="390" y="-1"/>
      <point x="353" y="2"/>
      <point x="314" y="2" type="curve" smooth="yes"/>
      <point x="275" y="2"/>
      <point x="237" y="-1"/>
      <point x="196" y="-3" type="curve"/>
      <point x="191" y="2"/>
      <point x="192" y="21"/>
      <point x="196" y="26" type="curve"/>
      <point x="208" y="26"/>
      <point x="262" y="31"/>
      <point x="265" y="42" type="curve" smooth="yes"/>
      <point x="270" y="58"/>
      <point x="270" y="86"/>
      <point x="270" y="116" type="curve" smooth="yes"/>
      <point x="270" y="626" type="line"/>
      <point x="141" y="626" type="line" smooth="yes"/>
      <point x="91" y="626"/>
      <point x="59" y="574"/>
      <point x="45" y="504" type="curve"/>
      <point x="43" y="501"/>
      <point x="36" y="499"/>
      <point x="31" y="499" type="curve" smooth="yes"/>
      <point x="22" y="498"/>
      <point x="15" y="503"/>
    </contour>
  </outline>
</glyph>
<glyph name="U" format="1">
  <advance width="723"/>
  <unicode hex="0055"/>
  <outline>
    <contour>
      <point x="29" y="633" type="curve"/>
      <point x="25" y="638"/>
      <point x="24" y="657"/>
      <point x="29" y="662" type="curve"/>
      <point x="70" y="660"/>
      <point x="108" y="657"/>
      <point x="147" y="657" type="curve" smooth="yes"/>
      <point x="186" y="657"/>
      <point x="223" y="660"/>
      <point x="264" y="662" type="curve"/>
      <point x="269" y="657"/>
      <point x="268" y="638"/>
      <point x="264" y="633" type="curve"/>
      <point x="252" y="633"/>
      <point x="198" y="628"/>
      <point x="195" y="617" type="curve" smooth="yes"/>
      <point x="190" y="601"/>
      <point x="190" y="573"/>
      <point x="190" y="543" type="curve" smooth="yes"/>
      <point x="190" y="296" type="line" smooth="yes"/>
      <point x="190" y="213"/>
      <point x="207" y="152"/>
      <point x="239" y="112" type="curve" smooth="yes"/>
      <point x="270" y="73"/>
      <point x="317" y="54"/>
      <point x="376" y="54" type="curve" smooth="yes"/>
      <point x="479" y="54"/>
      <point x="567" y="102"/>
      <point x="570" y="274" type="curve"/>
      <point x="570" y="545" type="line" smooth="yes"/>
      <point x="570" y="581"/>
      <point x="570" y="598"/>
      <point x="560" y="614" type="curve" smooth="yes"/>
      <point x="554" y="624"/>
      <point x="504" y="634"/>
      <point x="488" y="634" type="curve"/>
      <point x="483" y="641"/>
      <point x="484" y="657"/>
      <point x="486" y="663" type="curve"/>
      <point x="526" y="661"/>
      <point x="553" y="658"/>
      <point x="597" y="658" type="curve" smooth="yes"/>
      <point x="643" y="658"/>
      <point x="658" y="661"/>
      <point x="704" y="663" type="curve"/>
      <point x="707" y="658"/>
      <point x="709" y="645"/>
      <point x="704" y="634" type="curve"/>
      <point x="692" y="634"/>
      <point x="633" y="626"/>
      <point x="626" y="614" type="curve" smooth="yes"/>
      <point x="617" y="599"/>
      <point x="616" y="584"/>
      <point x="616" y="546" type="curve" smooth="yes"/>
      <point x="616" y="276" type="line" smooth="yes"/>
      <point x="616" y="76"/>
      <point x="511" y="-4"/>
      <point x="355" y="-4" type="curve" smooth="yes"/>
      <point x="283" y="-4"/>
      <point x="221" y="20"/>
      <point x="177" y="62" type="curve" smooth="yes"/>
      <point x="131" y="106"/>
      <point x="103" y="171"/>
      <point x="103" y="251" type="curve" smooth="yes"/>
      <point x="103" y="543" type="line" smooth="yes"/>
      <point x="103" y="573"/>
      <point x="103" y="601"/>
      <point x="98" y="617" type="curve" smooth="yes"/>
      <point x="95" y="628"/>
      <point x="41" y="633"/>
    </contour>
  </outline>
</glyph>
<glyph name="Y" format="1">
  <advance width="598"/>
  <unicode hex="0059"/>
  <outline>
    <contour>
      <point x="-10" y="633" type="curve" smooth="yes"/>
      <point x="-15" y="633"/>
      <point x="-15" y="657"/>
      <point x="-10" y="662" type="curve"/>
      <point x="39" y="660"/>
      <point x="66" y="657"/>
      <point x="115" y="657" type="curve" smooth="yes"/>
      <point x="164" y="657"/>
      <point x="203" y="660"/>
      <point x="243" y="662" type="curve"/>
      <point x="245" y="656"/>
      <point x="246" y="633"/>
      <point x="241" y="633" type="curve" smooth="yes"/>
      <point x="227" y="633"/>
      <point x="181" y="627"/>
      <point x="181" y="601" type="curve" smooth="yes"/>
      <point x="181" y="593"/>
      <point x="185" y="584"/>
      <point x="193" y="571" type="curve" smooth="yes"/>
      <point x="332" y="331" type="line"/>
      <point x="381" y="419"/>
      <point x="447" y="554"/>
      <point x="462" y="590" type="curve" smooth="yes"/>
      <point x="463" y="593"/>
      <point x="465" y="599"/>
      <point x="465" y="605" type="curve" smooth="yes"/>
      <point x="465" y="615"/>
      <point x="451" y="632"/>
      <point x="395" y="632" type="curve" smooth="yes"/>
      <point x="392" y="632"/>
      <point x="391" y="658"/>
      <point x="393" y="661" type="curve"/>
      <point x="430" y="659"/>
      <point x="456" y="656"/>
      <point x="493" y="656" type="curve" smooth="yes"/>
      <point x="545" y="656"/>
      <point x="563" y="659"/>
      <point x="603" y="661" type="curve"/>
      <point x="605" y="655"/>
      <point x="604" y="632"/>
      <point x="601" y="632" type="curve" smooth="yes"/>
      <point x="593" y="632"/>
      <point x="535" y="632"/>
      <point x="512" y="592" type="curve" smooth="yes"/>
      <point x="474" y="525"/>
      <point x="397" y="381"/>
      <point x="354" y="301" type="curve" smooth="yes"/>
      <point x="348" y="290"/>
      <point x="349" y="279"/>
      <point x="349" y="270" type="curve" smooth="yes"/>
      <point x="349" y="210"/>
      <point x="348" y="116"/>
      <point x="348" y="116" type="curve" smooth="yes"/>
      <point x="348" y="86"/>
      <point x="348" y="58"/>
      <point x="353" y="42" type="curve" smooth="yes"/>
      <point x="356" y="31"/>
      <point x="410" y="26"/>
      <point x="422" y="26" type="curve"/>
      <point x="426" y="21"/>
      <point x="427" y="2"/>
      <point x="422" y="-3" type="curve"/>
      <point x="381" y="-1"/>
      <point x="344" y="2"/>
      <point x="305" y="2" type="curve" smooth="yes"/>
      <point x="266" y="2"/>
      <point x="228" y="-1"/>
      <point x="187" y="-3" type="curve"/>
      <point x="182" y="2"/>
      <point x="183" y="21"/>
      <point x="187" y="26" type="curve"/>
      <point x="199" y="26"/>
      <point x="253" y="31"/>
      <point x="256" y="42" type="curve" smooth="yes"/>
      <point x="261" y="58"/>
      <point x="261" y="86"/>
      <point x="261" y="116" type="curve" smooth="yes"/>
      <point x="261" y="267" type="line" smooth="yes"/>
      <point x="261" y="274"/>
      <point x="259" y="285"/>
      <point x="254" y="295" type="curve" smooth="yes"/>
      <point x="196" y="400"/>
      <point x="171" y="442"/>
      <point x="112" y="548" type="curve" smooth="yes"/>
      <point x="91" y="585"/>
      <point x="74" y="601"/>
      <point x="46" y="617" type="curve" smooth="yes"/>
      <point x="29" y="627"/>
      <point x="2" y="633"/>
    </contour>
  </outline>
</glyph>
<glyph name="Z" format="1">
  <advance width="633"/>
  <unicode hex="005A"/>
  <outline>
    <contour>
      <point x="35" y="14" type="curve" smooth="yes"/>
      <point x="460" y="626" type="line"/>
      <point x="216" y="626" type="line" smooth="yes"/>
      <point x="148" y="626"/>
      <point x="102" y="577"/>
      <point x="80" y="495" type="curve"/>
      <point x="78" y="492"/>
      <point x="74" y="491"/>
      <point x="69" y="491" type="curve" smooth="yes"/>
      <point x="60" y="491"/>
      <point x="46" y="496"/>
      <point x="43" y="499" type="curve"/>
      <point x="60" y="545"/>
      <point x="70" y="601"/>
      <point x="76" y="669" type="curve"/>
      <point x="97" y="666"/>
      <point x="131" y="661"/>
      <point x="158" y="661" type="curve" smooth="yes"/>
      <point x="352" y="661" type="line" smooth="yes"/>
      <point x="436" y="661"/>
      <point x="478" y="665"/>
      <point x="562" y="671" type="curve"/>
      <point x="566" y="670"/>
      <point x="580" y="657"/>
      <point x="580" y="649" type="curve"/>
      <point x="578" y="641"/>
      <point x="157" y="35"/>
      <point x="157" y="35" type="curve"/>
      <point x="418" y="35" type="line" smooth="yes"/>
      <point x="461" y="35"/>
      <point x="490" y="50"/>
      <point x="511" y="71" type="curve" smooth="yes"/>
      <point x="540" y="100"/>
      <point x="553" y="140"/>
      <point x="564" y="169" type="curve" smooth="yes"/>
      <point x="565" y="171"/>
      <point x="573" y="172"/>
      <point x="578" y="172" type="curve" smooth="yes"/>
      <point x="588" y="172"/>
      <point x="598" y="167"/>
      <point x="602" y="163" type="curve"/>
      <point x="578" y="84"/>
      <point x="566" y="51"/>
      <point x="554" y="0" type="curve"/>
      <point x="53" y="0" type="line" smooth="yes"/>
      <point x="42" y="0"/>
      <point x="31" y="8"/>
    </contour>
  </outline>
</glyph>
<glyph name="backslash" format="1">
  <advance width="401"/>
  <unicode hex="005C"/>
  <outline>
    <contour>
      <point x="31" y="750" type="curve"/>
      <point x="34" y="755"/>
      <point x="44" y="757"/>
      <point x="51" y="757" type="curve" smooth="yes"/>
      <point x="62" y="757"/>
      <point x="76" y="749"/>
      <point x="79" y="741" type="curve" smooth="yes"/>
      <point x="79" y="741"/>
      <point x="369" y="-11"/>
      <point x="369" y="-17" type="curve"/>
      <point x="368" y="-21"/>
      <point x="358" y="-28"/>
      <point x="346" y="-28" type="curve" smooth="yes"/>
      <point x="339" y="-28"/>
      <point x="329" y="-25"/>
      <point x="325" y="-14" type="curve" smooth="yes"/>
      <point x="213" y="274"/>
      <point x="119" y="525"/>
    </contour>
  </outline>
</glyph>
<glyph name="asciicircum" format="1">
  <advance width="390"/>
  <unicode hex="005E"/>
  <outline>
    <contour>
      <point x="61" y="439" type="curve"/>
      <point x="104" y="514"/>
      <point x="131" y="553"/>
      <point x="171" y="632" type="curve" smooth="yes"/>
      <point x="175" y="640"/>
      <point x="181" y="645"/>
      <point x="186" y="645" type="curve" smooth="yes"/>
      <point x="191" y="645"/>
      <point x="198" y="640"/>
      <point x="202" y="632" type="curve" smooth="yes"/>
      <point x="242" y="553"/>
      <point x="268" y="514"/>
      <point x="311" y="439" type="curve"/>
      <point x="311" y="429"/>
      <point x="302" y="423"/>
      <point x="296" y="423" type="curve"/>
      <point x="250" y="471"/>
      <point x="186" y="552"/>
      <point x="186" y="552" type="curve"/>
      <point x="186" y="552"/>
      <point x="123" y="471"/>
      <point x="77" y="423" type="curve"/>
      <point x="71" y="423"/>
      <point x="61" y="429"/>
    </contour>
  </outline>
</glyph>
<glyph name="underscore" format="1">
  <advance width="505"/>
  <unicode hex="005F"/>
  <outline>
    <contour>
      <point x="14" y="-33" type="curve"/>
      <point x="14" y="-33"/>
      <point x="19" y="13"/>
      <point x="29" y="13" type="curve" smooth="yes"/>
      <point x="478" y="13" type="line" smooth="yes"/>
      <point x="480" y="13"/>
      <point x="482" y="12"/>
      <point x="482" y="8" type="curve" smooth="yes"/>
      <point x="482" y="-1"/>
      <point x="478" y="-15"/>
      <point x="472" y="-37" type="curve" smooth="yes"/>
      <point x="470" y="-43"/>
      <point x="466" y="-43"/>
      <point x="466" y="-43" type="curve"/>
      <point x="21" y="-43" type="line"/>
      <point x="21" y="-43"/>
      <point x="14" y="-43"/>
    </contour>
  </outline>
</glyph>
<glyph name="a" format="1">
  <advance width="431"/>
  <unicode hex="0061"/>
  <outline>
    <contour>
      <point x="37" y="107" type="curve" smooth="yes"/>
      <point x="37" y="148"/>
      <point x="65" y="179"/>
      <point x="87" y="187" type="curve" smooth="yes"/>
      <point x="143" y="207"/>
      <point x="233" y="237"/>
      <point x="262" y="250" type="curve" smooth="yes"/>
      <point x="272" y="254"/>
      <point x="274" y="257"/>
      <point x="274" y="275" type="curve" smooth="yes"/>
      <point x="274" y="302" type="line" smooth="yes"/>
      <point x="274" y="347"/>
      <point x="237" y="398"/>
      <point x="188" y="398" type="curve" smooth="yes"/>
      <point x="153" y="398"/>
      <point x="140" y="375"/>
      <point x="133" y="336" type="curve" smooth="yes"/>
      <point x="127" y="302"/>
      <point x="111" y="288"/>
      <point x="86" y="288" type="curve" smooth="yes"/>
      <point x="65" y="288"/>
      <point x="52" y="310"/>
      <point x="52" y="330" type="curve" smooth="yes"/>
      <point x="52" y="334"/>
      <point x="55" y="349"/>
      <point x="59" y="354" type="curve" smooth="yes"/>
      <point x="90" y="383"/>
      <point x="168" y="436"/>
      <point x="241" y="436" type="curve" smooth="yes"/>
      <point x="298" y="436"/>
      <point x="350" y="376"/>
      <point x="350" y="299" type="curve" smooth="yes"/>
      <point x="350" y="93" type="line" smooth="yes"/>
      <point x="350" y="66"/>
      <point x="358" y="46"/>
      <point x="381" y="46" type="curve" smooth="yes"/>
      <point x="399" y="46"/>
      <point x="411" y="57"/>
      <point x="414" y="59" type="curve"/>
      <point x="417" y="59"/>
      <point x="418" y="54"/>
      <point x="418" y="51" type="curve" smooth="yes"/>
      <point x="418" y="45"/>
      <point x="416" y="37"/>
      <point x="413" y="32" type="curve"/>
      <point x="401" y="21"/>
      <point x="359" y="-6"/>
      <point x="338" y="-6" type="curve" smooth="yes"/>
      <point x="309" y="-6"/>
      <point x="283" y="28"/>
      <point x="277" y="59" type="curve"/>
      <point x="265" y="47"/>
      <point x="189" y="-8"/>
      <point x="154" y="-8" type="curve" smooth="yes"/>
      <point x="88" y="-8"/>
      <point x="37" y="42"/>
    </contour>
    <contour>
      <point x="120" y="116" type="curve" smooth="yes"/>
      <point x="120" y="79"/>
      <point x="149" y="46"/>
      <point x="187" y="46" type="curve" smooth="yes"/>
      <point x="222" y="46"/>
      <point x="274" y="77"/>
      <point x="274" y="87" type="curve" smooth="yes"/>
      <point x="274" y="223" type="line"/>
      <point x="247" y="215"/>
      <point x="199" y="201"/>
      <point x="181" y="194" type="curve" smooth="yes"/>
      <point x="145" y="180"/>
      <point x="120" y="154"/>
    </contour>
  </outline>
</glyph>
<glyph name="c" format="1">
  <advance width="423"/>
  <unicode hex="0063"/>
  <outline>
    <contour>
      <point x="39" y="194" type="curve" smooth="yes"/>
      <point x="39" y="340"/>
      <point x="178" y="438"/>
      <point x="282" y="438" type="curve" smooth="yes"/>
      <point x="317" y="438"/>
      <point x="348" y="430"/>
      <point x="372" y="414" type="curve"/>
      <point x="376" y="410"/>
      <point x="382" y="396"/>
      <point x="382" y="386" type="curve" smooth="yes"/>
      <point x="382" y="350"/>
      <point x="361" y="338"/>
      <point x="344" y="338" type="curve" smooth="yes"/>
      <point x="322" y="338"/>
      <point x="303" y="364"/>
      <point x="286" y="375" type="curve" smooth="yes"/>
      <point x="265" y="389"/>
      <point x="255" y="394"/>
      <point x="229" y="394" type="curve" smooth="yes"/>
      <point x="176" y="394"/>
      <point x="117" y="332"/>
      <point x="117" y="227" type="curve" smooth="yes"/>
      <point x="117" y="110"/>
      <point x="189" y="58"/>
      <point x="279" y="58" type="curve" smooth="yes"/>
      <point x="334" y="58"/>
      <point x="372" y="94"/>
      <point x="385" y="109" type="curve" smooth="yes"/>
      <point x="386" y="109"/>
      <point x="393" y="103"/>
      <point x="393" y="95" type="curve" smooth="yes"/>
      <point x="393" y="90"/>
      <point x="390" y="82"/>
      <point x="387" y="77" type="curve" smooth="yes"/>
      <point x="369" y="48"/>
      <point x="319" y="-8"/>
      <point x="241" y="-8" type="curve" smooth="yes"/>
      <point x="120" y="-8"/>
      <point x="39" y="90"/>
    </contour>
  </outline>
</glyph>
<glyph name="d" format="1">
  <advance width="515"/>
  <unicode hex="0064"/>
  <outline>
    <contour>
      <point x="39" y="206" type="curve" smooth="yes"/>
      <point x="39" y="337"/>
      <point x="187" y="438"/>
      <point x="277" y="438" type="curve" smooth="yes"/>
      <point x="298" y="438"/>
      <point x="336" y="432"/>
      <point x="346" y="428" type="curve"/>
      <point x="350" y="428"/>
      <point x="351" y="437"/>
      <point x="351" y="449" type="curve" smooth="yes"/>
      <point x="351" y="558" type="line" smooth="yes"/>
      <point x="351" y="572"/>
      <point x="351" y="598"/>
      <point x="346" y="610" type="curve" smooth="yes"/>
      <point x="340" y="624"/>
      <point x="313" y="628"/>
      <point x="285" y="628" type="curve" smooth="yes"/>
      <point x="284" y="628"/>
      <point x="282" y="653"/>
      <point x="286" y="654" type="curve" smooth="yes"/>
      <point x="336" y="659"/>
      <point x="386" y="675"/>
      <point x="428" y="694" type="curve"/>
      <point x="433" y="694"/>
      <point x="439" y="685"/>
      <point x="439" y="678" type="curve" smooth="yes"/>
      <point x="439" y="678"/>
      <point x="428" y="646"/>
      <point x="428" y="591" type="curve" smooth="yes"/>
      <point x="428" y="163" type="line" smooth="yes"/>
      <point x="428" y="124"/>
      <point x="429" y="79"/>
      <point x="435" y="65" type="curve" smooth="yes"/>
      <point x="443" y="47"/>
      <point x="491" y="48"/>
      <point x="494" y="47" type="curve" smooth="yes"/>
      <point x="496" y="46"/>
      <point x="497" y="38"/>
      <point x="497" y="35" type="curve" smooth="yes"/>
      <point x="497" y="33"/>
      <point x="494" y="20"/>
      <point x="489" y="20" type="curve" smooth="yes"/>
      <point x="437" y="17"/>
      <point x="360" y="-8"/>
      <point x="359" y="-8" type="curve" smooth="yes"/>
      <point x="353" y="-8"/>
      <point x="351" y="4"/>
      <point x="351" y="11" type="curve" smooth="yes"/>
      <point x="351" y="46" type="line" smooth="yes"/>
      <point x="351" y="51"/>
      <point x="350" y="54"/>
      <point x="348" y="52" type="curve" smooth="yes"/>
      <point x="333" y="36"/>
      <point x="263" y="-8"/>
      <point x="215" y="-8" type="curve" smooth="yes"/>
      <point x="124" y="-8"/>
      <point x="39" y="84"/>
    </contour>
    <contour>
      <point x="123" y="230" type="curve" smooth="yes"/>
      <point x="123" y="136"/>
      <point x="173" y="54"/>
      <point x="264" y="54" type="curve" smooth="yes"/>
      <point x="309" y="54"/>
      <point x="351" y="78"/>
      <point x="351" y="94" type="curve" smooth="yes"/>
      <point x="351" y="347" type="line" smooth="yes"/>
      <point x="351" y="370"/>
      <point x="301" y="396"/>
      <point x="245" y="396" type="curve" smooth="yes"/>
      <point x="169" y="396"/>
      <point x="123" y="314"/>
    </contour>
  </outline>
</glyph>
<glyph name="e" format="1">
  <advance width="430"/>
  <unicode hex="0065"/>
  <outline>
    <contour>
      <point x="40" y="200" type="curve" smooth="yes"/>
      <point x="40" y="334"/>
      <point x="149" y="438"/>
      <point x="237" y="438" type="curve" smooth="yes"/>
      <point x="357" y="438"/>
      <point x="387" y="342"/>
      <point x="387" y="302" type="curve" smooth="yes"/>
      <point x="387" y="273"/>
      <point x="382" y="256"/>
      <point x="363" y="255" type="curve" smooth="yes"/>
      <point x="332" y="253"/>
      <point x="123" y="248"/>
      <point x="111" y="248" type="curve"/>
      <point x="111" y="241" type="line" smooth="yes"/>
      <point x="111" y="118"/>
      <point x="188" y="56"/>
      <point x="274" y="56" type="curve" smooth="yes"/>
      <point x="329" y="56"/>
      <point x="371" y="94"/>
      <point x="384" y="109" type="curve" smooth="yes"/>
      <point x="385" y="109"/>
      <point x="392" y="103"/>
      <point x="392" y="95" type="curve" smooth="yes"/>
      <point x="392" y="90"/>
      <point x="389" y="82"/>
      <point x="386" y="77" type="curve" smooth="yes"/>
      <point x="368" y="48"/>
      <point x="318" y="-8"/>
      <point x="240" y="-8" type="curve" smooth="yes"/>
      <point x="122" y="-8"/>
      <point x="40" y="82"/>
    </contour>
    <contour>
      <point x="116" y="285" type="curve" smooth="yes"/>
      <point x="279" y="285" type="line" smooth="yes"/>
      <point x="291" y="285"/>
      <point x="302" y="290"/>
      <point x="302" y="308" type="curve" smooth="yes"/>
      <point x="302" y="337"/>
      <point x="281" y="402"/>
      <point x="220" y="402" type="curve" smooth="yes"/>
      <point x="136" y="402"/>
      <point x="114" y="285"/>
    </contour>
  </outline>
</glyph>
<glyph name="n" format="1">
  <advance width="532"/>
  <unicode hex="006E"/>
  <outline>
    <contour>
      <point x="34" y="372" type="curve"/>
      <point x="32" y="374"/>
      <point x="30" y="393"/>
      <point x="34" y="398" type="curve"/>
      <point x="85" y="405"/>
      <point x="137" y="419"/>
      <point x="177" y="440" type="curve"/>
      <point x="182" y="440"/>
      <point x="188" y="429"/>
      <point x="188" y="424" type="curve" smooth="yes"/>
      <point x="187" y="417"/>
      <point x="182" y="375"/>
      <point x="182" y="367" type="curve" smooth="yes"/>
      <point x="182" y="366"/>
      <point x="182" y="363"/>
      <point x="184" y="363" type="curve" smooth="yes"/>
      <point x="185" y="363"/>
      <point x="186" y="364"/>
      <point x="187" y="365" type="curve" smooth="yes"/>
      <point x="207" y="387"/>
      <point x="274" y="438"/>
      <point x="322" y="438" type="curve" smooth="yes"/>
      <point x="430" y="438"/>
      <point x="451" y="371"/>
      <point x="451" y="226" type="curve" smooth="yes"/>
      <point x="451" y="116" type="line" smooth="yes"/>
      <point x="451" y="86"/>
      <point x="451" y="58"/>
      <point x="456" y="42" type="curve" smooth="yes"/>
      <point x="459" y="31"/>
      <point x="507" y="26"/>
      <point x="519" y="26" type="curve"/>
      <point x="523" y="21"/>
      <point x="524" y="2"/>
      <point x="519" y="-3" type="curve"/>
      <point x="478" y="-1"/>
      <point x="451" y="2"/>
      <point x="412" y="2" type="curve" smooth="yes"/>
      <point x="373" y="2"/>
      <point x="347" y="-1"/>
      <point x="306" y="-3" type="curve"/>
      <point x="301" y="2"/>
      <point x="302" y="21"/>
      <point x="306" y="26" type="curve"/>
      <point x="318" y="26"/>
      <point x="366" y="31"/>
      <point x="369" y="42" type="curve" smooth="yes"/>
      <point x="374" y="58"/>
      <point x="374" y="86"/>
      <point x="374" y="116" type="curve" smooth="yes"/>
      <point x="374" y="216" type="line" smooth="yes"/>
      <point x="374" y="340"/>
      <point x="354" y="380"/>
      <point x="276" y="380" type="curve" smooth="yes"/>
      <point x="239" y="380"/>
      <point x="181" y="334"/>
      <point x="181" y="325" type="curve" smooth="yes"/>
      <point x="181" y="116" type="line" smooth="yes"/>
      <point x="181" y="86"/>
      <point x="181" y="58"/>
      <point x="186" y="42" type="curve" smooth="yes"/>
      <point x="189" y="31"/>
      <point x="237" y="26"/>
      <point x="249" y="26" type="curve"/>
      <point x="253" y="21"/>
      <point x="254" y="2"/>
      <point x="249" y="-3" type="curve"/>
      <point x="208" y="-1"/>
      <point x="181" y="2"/>
      <point x="142" y="2" type="curve" smooth="yes"/>
      <point x="103" y="2"/>
      <point x="77" y="-1"/>
      <point x="36" y="-3" type="curve"/>
      <point x="31" y="2"/>
      <point x="32" y="21"/>
      <point x="36" y="26" type="curve"/>
      <point x="48" y="26"/>
      <point x="96" y="31"/>
      <point x="99" y="42" type="curve" smooth="yes"/>
      <point x="104" y="58"/>
      <point x="104" y="86"/>
      <point x="104" y="116" type="curve" smooth="yes"/>
      <point x="104" y="298" type="line" smooth="yes"/>
      <point x="104" y="311"/>
      <point x="104" y="342"/>
      <point x="99" y="354" type="curve" smooth="yes"/>
      <point x="92" y="371"/>
      <point x="41" y="372"/>
    </contour>
  </outline>
</glyph>
<glyph name="q" format="1">
  <advance width="497"/>
  <unicode hex="0071"/>
  <outline>
    <contour>
      <point x="39" y="199" type="curve" smooth="yes"/>
      <point x="39" y="336"/>
      <point x="179" y="438"/>
      <point x="286" y="438" type="curve" smooth="yes"/>
      <point x="316" y="438"/>
      <point x="372" y="413"/>
      <point x="405" y="413" type="curve" smooth="yes"/>
      <point x="411" y="413"/>
      <point x="419" y="414"/>
      <point x="425" y="416" type="curve"/>
      <point x="431" y="416"/>
      <point x="438" y="399"/>
      <point x="438" y="394" type="curve"/>
      <point x="429" y="374"/>
      <point x="426" y="340"/>
      <point x="426" y="320" type="curve" smooth="yes"/>
      <point x="426" y="-108" type="line" smooth="yes"/>
      <point x="426" y="-138"/>
      <point x="426" y="-166"/>
      <point x="431" y="-182" type="curve" smooth="yes"/>
      <point x="434" y="-193"/>
      <point x="482" y="-198"/>
      <point x="494" y="-198" type="curve"/>
      <point x="498" y="-203"/>
      <point x="499" y="-222"/>
      <point x="494" y="-227" type="curve"/>
      <point x="453" y="-225"/>
      <point x="426" y="-222"/>
      <point x="387" y="-222" type="curve" smooth="yes"/>
      <point x="348" y="-222"/>
      <point x="322" y="-225"/>
      <point x="281" y="-227" type="curve"/>
      <point x="276" y="-222"/>
      <point x="277" y="-203"/>
      <point x="281" y="-198" type="curve"/>
      <point x="293" y="-198"/>
      <point x="341" y="-193"/>
      <point x="344" y="-182" type="curve" smooth="yes"/>
      <point x="349" y="-166"/>
      <point x="349" y="-138"/>
      <point x="349" y="-108" type="curve" smooth="yes"/>
      <point x="349" y="40" type="line" smooth="yes"/>
      <point x="349" y="45"/>
      <point x="347" y="54"/>
      <point x="342" y="50" type="curve" smooth="yes"/>
      <point x="327" y="37"/>
      <point x="260" y="-7"/>
      <point x="217" y="-7" type="curve" smooth="yes"/>
      <point x="102" y="-7"/>
      <point x="39" y="110"/>
    </contour>
    <contour>
      <point x="123" y="235" type="curve" smooth="yes"/>
      <point x="123" y="117"/>
      <point x="186" y="53"/>
      <point x="269" y="53" type="curve" smooth="yes"/>
      <point x="309" y="53"/>
      <point x="349" y="78"/>
      <point x="349" y="93" type="curve" smooth="yes"/>
      <point x="349" y="332" type="line" smooth="yes"/>
      <point x="349" y="375"/>
      <point x="300" y="402"/>
      <point x="256" y="402" type="curve" smooth="yes"/>
      <point x="162" y="402"/>
      <point x="123" y="296"/>
    </contour>
  </outline>
</glyph>
<glyph name="s" format="1">
  <advance width="369"/>
  <unicode hex="0073"/>
  <outline>
    <contour>
      <point x="41" y="112" type="curve"/>
      <point x="45" y="115"/>
      <point x="54" y="118"/>
      <point x="59" y="118" type="curve" smooth="yes"/>
      <point x="62" y="118"/>
      <point x="65" y="118"/>
      <point x="68" y="116" type="curve"/>
      <point x="80" y="74"/>
      <point x="123" y="21"/>
      <point x="176" y="21" type="curve" smooth="yes"/>
      <point x="217" y="21"/>
      <point x="248" y="47"/>
      <point x="248" y="93" type="curve" smooth="yes"/>
      <point x="248" y="139.656"/>
      <point x="210.957" y="163.085"/>
      <point x="167" y="185.623" type="curve" smooth="yes"/>
      <point x="98" y="221"/>
      <point x="50" y="251.189"/>
      <point x="50" y="315" type="curve" smooth="yes"/>
      <point x="50" y="389"/>
      <point x="121" y="437"/>
      <point x="195" y="437" type="curve" smooth="yes"/>
      <point x="234" y="437"/>
      <point x="253" y="429"/>
      <point x="297" y="424" type="curve"/>
      <point x="304" y="393"/>
      <point x="308" y="350"/>
      <point x="309" y="314" type="curve" smooth="yes"/>
      <point x="309" y="310"/>
      <point x="304" y="309"/>
      <point x="299" y="309" type="curve" smooth="yes"/>
      <point x="294" y="309"/>
      <point x="287" y="310"/>
      <point x="282" y="314" type="curve"/>
      <point x="272" y="351"/>
      <point x="241" y="406"/>
      <point x="198" y="406" type="curve" smooth="yes"/>
      <point x="150" y="406"/>
      <point x="127" y="379"/>
      <point x="127" y="343" type="curve" smooth="yes"/>
      <point x="127" y="297"/>
      <point x="158.047" y="280.085"/>
      <point x="214" y="249" type="curve" smooth="yes"/>
      <point x="277" y="214"/>
      <point x="329" y="182"/>
      <point x="329" y="127" type="curve" smooth="yes"/>
      <point x="329" y="46"/>
      <point x="256" y="-11"/>
      <point x="175" y="-11" type="curve" smooth="yes"/>
      <point x="129" y="-11"/>
      <point x="102" y="0"/>
      <point x="58" y="8" type="curve"/>
      <point x="50" y="29"/>
      <point x="41" y="86"/>
    </contour>
  </outline>
</glyph>
<glyph name="t" format="1">
  <advance width="311"/>
  <unicode hex="0074"/>
  <outline>
    <contour>
      <point x="20" y="400" type="curve" smooth="yes"/>
      <point x="20" y="404"/>
      <point x="45" y="431"/>
      <point x="46" y="432" type="curve"/>
      <point x="83" y="432" type="line"/>
      <point x="83" y="495" type="line"/>
      <point x="102" y="517"/>
      <point x="142" y="559"/>
      <point x="144" y="562" type="curve" smooth="yes"/>
      <point x="149" y="567"/>
      <point x="160" y="567"/>
      <point x="160" y="563" type="curve" smooth="yes"/>
      <point x="160" y="432" type="line"/>
      <point x="289" y="432" type="line" smooth="yes"/>
      <point x="294" y="432"/>
      <point x="294" y="427"/>
      <point x="294" y="421" type="curve" smooth="yes"/>
      <point x="294" y="412"/>
      <point x="289" y="400"/>
      <point x="280" y="391" type="curve"/>
      <point x="160" y="391" type="line"/>
      <point x="160" y="129" type="line" smooth="yes"/>
      <point x="160" y="76"/>
      <point x="182" y="47"/>
      <point x="226" y="47" type="curve" smooth="yes"/>
      <point x="256" y="47"/>
      <point x="284" y="65"/>
      <point x="291" y="70" type="curve"/>
      <point x="293" y="69"/>
      <point x="294" y="66"/>
      <point x="294" y="63" type="curve" smooth="yes"/>
      <point x="294" y="57"/>
      <point x="291" y="49"/>
      <point x="290" y="48" type="curve" smooth="yes"/>
      <point x="276" y="32"/>
      <point x="236" y="-7"/>
      <point x="187" y="-7" type="curve" smooth="yes"/>
      <point x="136" y="-7"/>
      <point x="83" y="15"/>
      <point x="83" y="101" type="curve" smooth="yes"/>
      <point x="83" y="391" type="line"/>
      <point x="25" y="391" type="line" smooth="yes"/>
      <point x="22" y="391"/>
      <point x="20" y="397"/>
    </contour>
  </outline>
</glyph>
<glyph name="u" format="1">
  <advance width="515"/>
  <unicode hex="0075"/>
  <outline>
    <contour>
      <point x="17" y="394" type="curve"/>
      <point x="14" y="397"/>
      <point x="13" y="415"/>
      <point x="17" y="420" type="curve"/>
      <point x="68" y="422"/>
      <point x="118" y="429"/>
      <point x="154" y="440" type="curve"/>
      <point x="159" y="440"/>
      <point x="165" y="425"/>
      <point x="165" y="420" type="curve"/>
      <point x="161" y="412"/>
      <point x="158" y="380"/>
      <point x="158" y="351" type="curve" smooth="yes"/>
      <point x="158" y="204" type="line" smooth="yes"/>
      <point x="158" y="98"/>
      <point x="188" y="49"/>
      <point x="258" y="49" type="curve" smooth="yes"/>
      <point x="302" y="49"/>
      <point x="350" y="80"/>
      <point x="350" y="104" type="curve" smooth="yes"/>
      <point x="350" y="320" type="line" smooth="yes"/>
      <point x="350" y="333"/>
      <point x="350" y="359"/>
      <point x="342" y="374" type="curve" smooth="yes"/>
      <point x="332" y="392"/>
      <point x="299" y="394"/>
      <point x="286" y="394" type="curve"/>
      <point x="283" y="397"/>
      <point x="282" y="415"/>
      <point x="286" y="420" type="curve"/>
      <point x="337" y="422"/>
      <point x="387" y="429"/>
      <point x="423" y="440" type="curve"/>
      <point x="428" y="440"/>
      <point x="434" y="421"/>
      <point x="434" y="416" type="curve"/>
      <point x="430" y="408"/>
      <point x="427" y="380"/>
      <point x="427" y="351" type="curve" smooth="yes"/>
      <point x="427" y="141" type="line" smooth="yes"/>
      <point x="427" y="130"/>
      <point x="428" y="93"/>
      <point x="434" y="65" type="curve" smooth="yes"/>
      <point x="439" y="46"/>
      <point x="490" y="48"/>
      <point x="493" y="47" type="curve" smooth="yes"/>
      <point x="495" y="46"/>
      <point x="496" y="39"/>
      <point x="496" y="36" type="curve" smooth="yes"/>
      <point x="496" y="34"/>
      <point x="493" y="20"/>
      <point x="488" y="20" type="curve" smooth="yes"/>
      <point x="436" y="17"/>
      <point x="359" y="-8"/>
      <point x="358" y="-8" type="curve" smooth="yes"/>
      <point x="353" y="-8"/>
      <point x="350" y="1"/>
      <point x="350" y="8" type="curve" smooth="yes"/>
      <point x="350" y="54" type="line" smooth="yes"/>
      <point x="350" y="59"/>
      <point x="348" y="59"/>
      <point x="348" y="59" type="curve"/>
      <point x="320" y="29"/>
      <point x="257" y="-7"/>
      <point x="206" y="-7" type="curve" smooth="yes"/>
      <point x="100" y="-7"/>
      <point x="81" y="108"/>
      <point x="81" y="192" type="curve" smooth="yes"/>
      <point x="81" y="320" type="line" smooth="yes"/>
      <point x="81" y="333"/>
      <point x="81" y="359"/>
      <point x="73" y="374" type="curve" smooth="yes"/>
      <point x="63" y="392"/>
      <point x="30" y="394"/>
    </contour>
  </outline>
</glyph>
<glyph name="y" format="1">
  <advance width="469"/>
  <unicode hex="0079"/>
  <outline>
    <contour>
      <point x="2" y="401" type="curve" smooth="yes"/>
      <point x="0" y="401"/>
      <point x="0" y="428"/>
      <point x="2" y="430" type="curve"/>
      <point x="21" y="428"/>
      <point x="61" y="425"/>
      <point x="102" y="425" type="curve" smooth="yes"/>
      <point x="140" y="425"/>
      <point x="185" y="428"/>
      <point x="202" y="430" type="curve"/>
      <point x="204" y="424"/>
      <point x="203" y="401"/>
      <point x="198" y="401" type="curve" smooth="yes"/>
      <point x="191" y="401"/>
      <point x="148" y="399"/>
      <point x="148" y="384" type="curve" smooth="yes"/>
      <point x="148" y="383"/>
      <point x="149" y="382"/>
      <point x="150" y="380" type="curve" smooth="yes"/>
      <point x="256" y="110" type="line"/>
      <point x="256" y="110"/>
      <point x="306" y="243"/>
      <point x="344" y="337" type="curve" smooth="yes"/>
      <point x="349" y="349"/>
      <point x="350" y="362"/>
      <point x="350" y="369" type="curve" smooth="yes"/>
      <point x="350" y="389"/>
      <point x="326" y="401"/>
      <point x="292" y="401" type="curve" smooth="yes"/>
      <point x="287" y="401"/>
      <point x="287" y="425"/>
      <point x="292" y="430" type="curve"/>
      <point x="307" y="428"/>
      <point x="341" y="425"/>
      <point x="382" y="425" type="curve" smooth="yes"/>
      <point x="420" y="425"/>
      <point x="446" y="428"/>
      <point x="466" y="430" type="curve"/>
      <point x="470" y="424"/>
      <point x="468" y="401"/>
      <point x="464" y="401" type="curve" smooth="yes"/>
      <point x="456" y="401"/>
      <point x="412" y="395"/>
      <point x="400" y="367" type="curve" smooth="yes"/>
      <point x="341" y="226"/>
      <point x="308" y="148"/>
      <point x="250" y="6" type="curve" smooth="yes"/>
      <point x="225" y="-55"/>
      <point x="207" y="-119"/>
      <point x="171" y="-172" type="curve" smooth="yes"/>
      <point x="148" y="-206"/>
      <point x="117" y="-228"/>
      <point x="84" y="-228" type="curve" smooth="yes"/>
      <point x="65" y="-228"/>
      <point x="40" y="-221"/>
      <point x="40" y="-185" type="curve" smooth="yes"/>
      <point x="40" y="-173"/>
      <point x="47" y="-162"/>
      <point x="52" y="-156" type="curve"/>
      <point x="99" y="-156"/>
      <point x="126" y="-153"/>
      <point x="166" y="-99" type="curve" smooth="yes"/>
      <point x="182" y="-78"/>
      <point x="211" y="-9"/>
      <point x="214" y="2" type="curve"/>
      <point x="158" y="145"/>
      <point x="115" y="253"/>
      <point x="56" y="381" type="curve" smooth="yes"/>
      <point x="46" y="402"/>
      <point x="14" y="401"/>
    </contour>
  </outline>
</glyph>
<glyph name="z" format="1">
  <advance width="447"/>
  <unicode hex="007A"/>
  <outline>
    <contour>
      <point x="34" y="20" type="curve" smooth="yes"/>
      <point x="34" y="21"/>
      <point x="34" y="26"/>
      <point x="35" y="27" type="curve" smooth="yes"/>
      <point x="292" y="396" type="line"/>
      <point x="152" y="397" type="line" smooth="yes"/>
      <point x="95" y="397"/>
      <point x="84" y="345"/>
      <point x="76" y="327" type="curve" smooth="yes"/>
      <point x="74" y="323"/>
      <point x="64" y="318"/>
      <point x="54" y="318" type="curve" smooth="yes"/>
      <point x="48" y="318"/>
      <point x="43" y="319"/>
      <point x="43" y="321" type="curve" smooth="yes"/>
      <point x="47" y="336"/>
      <point x="56" y="386"/>
      <point x="59" y="439" type="curve"/>
      <point x="59" y="439"/>
      <point x="112" y="431"/>
      <point x="148" y="431" type="curve" smooth="yes"/>
      <point x="276" y="431" type="line" smooth="yes"/>
      <point x="330" y="431"/>
      <point x="357" y="434"/>
      <point x="398" y="439" type="curve"/>
      <point x="403" y="431"/>
      <point x="401" y="420"/>
      <point x="401" y="415" type="curve"/>
      <point x="401" y="415"/>
      <point x="136" y="38"/>
      <point x="136" y="35" type="curve"/>
      <point x="276" y="35" type="line" smooth="yes"/>
      <point x="337" y="35"/>
      <point x="374" y="82"/>
      <point x="386" y="125" type="curve" smooth="yes"/>
      <point x="387" y="130"/>
      <point x="389" y="131"/>
      <point x="393" y="131" type="curve" smooth="yes"/>
      <point x="401" y="131"/>
      <point x="414" y="125"/>
      <point x="419" y="119" type="curve"/>
      <point x="419" y="119"/>
      <point x="389" y="46"/>
      <point x="374" y="0" type="curve"/>
      <point x="49" y="0" type="line"/>
      <point x="42" y="2"/>
      <point x="34" y="12"/>
    </contour>
  </outline>
</glyph>
<glyph name="braceright" format="1">
  <advance width="223"/>
  <unicode hex="007D"/>
  <outline>
    <contour>
      <point x="41" y="-125" type="curve"/>
      <point x="68" y="-112"/>
      <point x="120" y="-64"/>
      <point x="120" y="-13" type="curve" smooth="yes"/>
      <point x="120" y="25"/>
      <point x="107" y="50"/>
      <point x="95" y="78" type="curve" smooth="yes"/>
      <point x="83" y="103"/>
      <point x="72" y="131"/>
      <point x="72" y="171" type="curve" smooth="yes"/>
      <point x="72" y="236"/>
      <point x="119" y="278"/>
      <point x="145" y="288" type="curve"/>
      <point x="119" y="298"/>
      <point x="72" y="340"/>
      <point x="72" y="405" type="curve" smooth="yes"/>
      <point x="72" y="445"/>
      <point x="83" y="473"/>
      <point x="95" y="498" type="curve" smooth="yes"/>
      <point x="107" y="526"/>
      <point x="120" y="551"/>
      <point x="120" y="589" type="curve" smooth="yes"/>
      <point x="120" y="640"/>
      <point x="68" y="688"/>
      <point x="41" y="701" type="curve"/>
      <point x="41" y="710"/>
      <point x="49" y="720"/>
      <point x="57" y="720" type="curve"/>
      <point x="100" y="703"/>
      <point x="164" y="638"/>
      <point x="164" y="541" type="curve" smooth="yes"/>
      <point x="164" y="510"/>
      <point x="153" y="484"/>
      <point x="141" y="458" type="curve" smooth="yes"/>
      <point x="130" y="433"/>
      <point x="118" y="409"/>
      <point x="118" y="383" type="curve" smooth="yes"/>
      <point x="118" y="330"/>
      <point x="155" y="309"/>
      <point x="194" y="299" type="curve"/>
      <point x="195" y="297"/>
      <point x="196" y="292"/>
      <point x="196" y="288" type="curve" smooth="yes"/>
      <point x="196" y="283"/>
      <point x="196" y="280"/>
      <point x="194" y="277" type="curve"/>
      <point x="155" y="267"/>
      <point x="118" y="246"/>
      <point x="118" y="193" type="curve" smooth="yes"/>
      <point x="118" y="167"/>
      <point x="130" y="143"/>
      <point x="141" y="118" type="curve" smooth="yes"/>
      <point x="153" y="92"/>
      <point x="164" y="66"/>
      <point x="164" y="35" type="curve" smooth="yes"/>
      <point x="164" y="-62"/>
      <point x="100" y="-127"/>
      <point x="57" y="-144" type="curve"/>
      <point x="49" y="-144"/>
      <point x="41" y="-134"/>
    </contour>
  </outline>
</glyph>
<glyph name="exclamdown" format="1">
  <advance width="215"/>
  <unicode hex="00A1"/>
  <outline>
    <contour>
      <point x="53" y="374" type="curve" smooth="yes"/>
      <point x="53" y="404"/>
      <point x="77" y="430"/>
      <point x="107" y="430" type="curve" smooth="yes"/>
      <point x="137" y="430"/>
      <point x="163" y="404"/>
      <point x="163" y="374" type="curve" smooth="yes"/>
      <point x="163" y="344"/>
      <point x="137" y="320"/>
      <point x="107" y="320" type="curve" smooth="yes"/>
      <point x="77" y="320"/>
      <point x="53" y="344"/>
    </contour>
    <contour>
      <point x="59" y="-165" type="curve" smooth="yes"/>
      <point x="59" y="-137"/>
      <point x="72" y="-3"/>
      <point x="93" y="247" type="curve"/>
      <point x="97" y="255"/>
      <point x="100" y="259"/>
      <point x="109" y="260" type="curve"/>
      <point x="114" y="258"/>
      <point x="120" y="255"/>
      <point x="123" y="249" type="curve"/>
      <point x="137" y="88"/>
      <point x="153" y="-114"/>
      <point x="153" y="-165" type="curve" smooth="yes"/>
      <point x="153" y="-193"/>
      <point x="135" y="-223"/>
      <point x="103" y="-223" type="curve" smooth="yes"/>
      <point x="72" y="-223"/>
      <point x="59" y="-191"/>
    </contour>
  </outline>
</glyph>
<glyph name="yen" format="1">
  <advance width="672"/>
  <unicode hex="00A5"/>
  <outline>
    <contour>
      <point x="203" y="218" type="line"/>
      <point x="197" y="224"/>
      <point x="214" y="255"/>
      <point x="223" y="255" type="curve" smooth="yes"/>
      <point x="299.976" y="255" type="line"/>
      <point x="298.92" y="260.64"/>
      <point x="297" y="267"/>
      <point x="294" y="273" type="curve" smooth="yes"/>
      <point x="236" y="378"/>
      <point x="211" y="420"/>
      <point x="152" y="526" type="curve" smooth="yes"/>
      <point x="131" y="563"/>
      <point x="114" y="579"/>
      <point x="86" y="595" type="curve" smooth="yes"/>
      <point x="69" y="605"/>
      <point x="42" y="611"/>
      <point x="30" y="611" type="curve" smooth="yes"/>
      <point x="25" y="611"/>
      <point x="25" y="635"/>
      <point x="30" y="640" type="curve"/>
      <point x="79" y="638"/>
      <point x="106" y="635"/>
      <point x="155" y="635" type="curve" smooth="yes"/>
      <point x="204" y="635"/>
      <point x="243" y="638"/>
      <point x="283" y="640" type="curve"/>
      <point x="285" y="634"/>
      <point x="286" y="611"/>
      <point x="281" y="611" type="curve" smooth="yes"/>
      <point x="267" y="611"/>
      <point x="221" y="605"/>
      <point x="221" y="579" type="curve" smooth="yes"/>
      <point x="221" y="571"/>
      <point x="225" y="562"/>
      <point x="233" y="549" type="curve" smooth="yes"/>
      <point x="372" y="311" type="line"/>
      <point x="421" y="399"/>
      <point x="490" y="536"/>
      <point x="504" y="570" type="curve" smooth="yes"/>
      <point x="505" y="573"/>
      <point x="507" y="579"/>
      <point x="507" y="585" type="curve" smooth="yes"/>
      <point x="507" y="591"/>
      <point x="488" y="610"/>
      <point x="432" y="610" type="curve" smooth="yes"/>
      <point x="429" y="610"/>
      <point x="428" y="636"/>
      <point x="430" y="639" type="curve" smooth="yes"/>
      <point x="467" y="637"/>
      <point x="496" y="634"/>
      <point x="533" y="634" type="curve" smooth="yes"/>
      <point x="585" y="634"/>
      <point x="603" y="637"/>
      <point x="643" y="639" type="curve"/>
      <point x="645" y="633"/>
      <point x="644" y="610"/>
      <point x="641" y="610" type="curve" smooth="yes"/>
      <point x="633" y="610"/>
      <point x="575" y="610"/>
      <point x="552" y="570" type="curve" smooth="yes"/>
      <point x="514" y="503"/>
      <point x="437" y="359"/>
      <point x="394" y="279" type="curve" smooth="yes"/>
      <point x="389.481" y="270.715"/>
      <point x="388.933" y="262.43"/>
      <point x="388.938" y="255" type="curve"/>
      <point x="485" y="255" type="line"/>
      <point x="499" y="244"/>
      <point x="481" y="222"/>
      <point x="475" y="218" type="curve"/>
      <point x="388.929" y="218" type="line"/>
      <point x="388.863" y="203.179"/>
      <point x="388.758" y="188.457"/>
      <point x="388.643" y="175" type="curve"/>
      <point x="485" y="175" type="line"/>
      <point x="499" y="164"/>
      <point x="481" y="142"/>
      <point x="475" y="138" type="curve"/>
      <point x="388.272" y="138" type="line"/>
      <point x="388.118" y="124.461"/>
      <point x="388" y="116"/>
      <point x="388" y="116" type="curve" smooth="yes"/>
      <point x="388" y="86"/>
      <point x="388" y="58"/>
      <point x="393" y="42" type="curve" smooth="yes"/>
      <point x="396" y="31"/>
      <point x="450" y="26"/>
      <point x="462" y="26" type="curve"/>
      <point x="466" y="21"/>
      <point x="467" y="2"/>
      <point x="462" y="-3" type="curve"/>
      <point x="421" y="-1"/>
      <point x="384" y="2"/>
      <point x="345" y="2" type="curve" smooth="yes"/>
      <point x="306" y="2"/>
      <point x="268" y="-1"/>
      <point x="227" y="-3" type="curve"/>
      <point x="222" y="2"/>
      <point x="223" y="21"/>
      <point x="227" y="26" type="curve"/>
      <point x="239" y="26"/>
      <point x="293" y="31"/>
      <point x="296" y="42" type="curve" smooth="yes"/>
      <point x="301" y="58"/>
      <point x="301" y="86"/>
      <point x="301" y="116" type="curve" smooth="yes"/>
      <point x="301" y="138" type="line"/>
      <point x="203" y="138" type="line"/>
      <point x="197" y="144"/>
      <point x="214" y="175"/>
      <point x="223" y="175" type="curve" smooth="yes"/>
      <point x="301" y="175" type="line"/>
      <point x="301" y="218" type="line"/>
    </contour>
  </outline>
</glyph>
<glyph name="section" format="1">
  <advance width="441"/>
  <unicode hex="00A7"/>
  <outline>
    <contour>
      <point x="321" y="51" type="curve"/>
      <point x="338" y="78"/>
      <point x="350" y="99"/>
      <point x="350" y="135" type="curve" smooth="yes"/>
      <point x="350" y="218"/>
      <point x="292" y="285"/>
      <point x="238" y="335" type="curve" smooth="yes"/>
      <point x="190" y="379"/>
      <point x="120" y="435"/>
      <point x="120" y="507" type="curve" smooth="yes"/>
      <point x="120" y="513"/>
      <point x="120" y="518"/>
      <point x="121" y="524" type="curve"/>
      <point x="104" y="497"/>
      <point x="92" y="476"/>
      <point x="92" y="440" type="curve" smooth="yes"/>
      <point x="92" y="357"/>
      <point x="150" y="290"/>
      <point x="204" y="240" type="curve" smooth="yes"/>
      <point x="252" y="196"/>
      <point x="322" y="140"/>
      <point x="322" y="68" type="curve" smooth="yes"/>
      <point x="322" y="62"/>
      <point x="322" y="57"/>
    </contour>
    <contour>
      <point x="306" y="-4" type="curve" smooth="yes"/>
      <point x="250" y="-64"/>
      <point x="196" y="-78"/>
      <point x="138" y="-78" type="curve" smooth="yes"/>
      <point x="124" y="-78"/>
      <point x="111" y="-76"/>
      <point x="97" y="-70" type="curve"/>
      <point x="92" y="-60"/>
      <point x="91" y="-50"/>
      <point x="91" y="-44" type="curve" smooth="yes"/>
      <point x="91" y="-30"/>
      <point x="111" y="-8"/>
      <point x="127" y="-8" type="curve" smooth="yes"/>
      <point x="144" y="-8"/>
      <point x="153" y="-15"/>
      <point x="163" y="-20" type="curve" smooth="yes"/>
      <point x="171" y="-24"/>
      <point x="180" y="-28"/>
      <point x="195" y="-28" type="curve" smooth="yes"/>
      <point x="226" y="-28"/>
      <point x="276" y="-12"/>
      <point x="276" y="26" type="curve" smooth="yes"/>
      <point x="276" y="72"/>
      <point x="201" y="149"/>
      <point x="154" y="192" type="curve" smooth="yes"/>
      <point x="102" y="240"/>
      <point x="38" y="310"/>
      <point x="38" y="396" type="curve" smooth="yes"/>
      <point x="38" y="455"/>
      <point x="97" y="536"/>
      <point x="131" y="574" type="curve" smooth="yes"/>
      <point x="187" y="637"/>
      <point x="243" y="653"/>
      <point x="304" y="653" type="curve" smooth="yes"/>
      <point x="318" y="653"/>
      <point x="331" y="651"/>
      <point x="345" y="645" type="curve"/>
      <point x="350" y="635"/>
      <point x="351" y="625"/>
      <point x="351" y="619" type="curve" smooth="yes"/>
      <point x="351" y="605"/>
      <point x="331" y="583"/>
      <point x="315" y="583" type="curve" smooth="yes"/>
      <point x="298" y="583"/>
      <point x="289" y="590"/>
      <point x="279" y="595" type="curve" smooth="yes"/>
      <point x="271" y="599"/>
      <point x="262" y="603"/>
      <point x="247" y="603" type="curve" smooth="yes"/>
      <point x="216" y="603"/>
      <point x="166" y="587"/>
      <point x="166" y="549" type="curve" smooth="yes"/>
      <point x="166" y="503"/>
      <point x="241" y="426"/>
      <point x="288" y="383" type="curve" smooth="yes"/>
      <point x="340" y="335"/>
      <point x="404" y="265"/>
      <point x="404" y="179" type="curve" smooth="yes"/>
      <point x="404" y="116"/>
      <point x="340" y="33"/>
    </contour>
  </outline>
</glyph>
<glyph name="copyright" format="1">
  <advance width="659"/>
  <unicode hex="00A9"/>
  <outline>
    <contour>
      <point x="56" y="342" type="curve" smooth="yes"/>
      <point x="56" y="493"/>
      <point x="178" y="615"/>
      <point x="329" y="615" type="curve" smooth="yes"/>
      <point x="480" y="615"/>
      <point x="603" y="493"/>
      <point x="603" y="342" type="curve" smooth="yes"/>
      <point x="603" y="191"/>
      <point x="480" y="69"/>
      <point x="329" y="69" type="curve" smooth="yes"/>
      <point x="178" y="69"/>
      <point x="56" y="191"/>
    </contour>
    <contour>
      <point x="89" y="342" type="curve" smooth="yes"/>
      <point x="89" y="209"/>
      <point x="197" y="100"/>
      <point x="330" y="100" type="curve" smooth="yes"/>
      <point x="463" y="100"/>
      <point x="572" y="209"/>
      <point x="572" y="342" type="curve" smooth="yes"/>
      <point x="572" y="475"/>
      <point x="463" y="584"/>
      <point x="330" y="584" type="curve" smooth="yes"/>
      <point x="197" y="584"/>
      <point x="89" y="475"/>
    </contour>
    <contour>
      <point x="187" y="336" type="curve" smooth="yes"/>
      <point x="187" y="416"/>
      <point x="245" y="483"/>
      <point x="328" y="483" type="curve" smooth="yes"/>
      <point x="358" y="483"/>
      <point x="406" y="477"/>
      <point x="440" y="464" type="curve"/>
      <point x="440" y="464"/>
      <point x="456" y="407"/>
      <point x="456" y="403" type="curve" smooth="yes"/>
      <point x="456" y="398"/>
      <point x="447" y="394"/>
      <point x="440" y="394" type="curve" smooth="yes"/>
      <point x="437" y="394"/>
      <point x="435" y="395"/>
      <point x="433" y="396" type="curve"/>
      <point x="430" y="409"/>
      <point x="411" y="449"/>
      <point x="340" y="449" type="curve" smooth="yes"/>
      <point x="286" y="449"/>
      <point x="244" y="400"/>
      <point x="244" y="345" type="curve" smooth="yes"/>
      <point x="244" y="264"/>
      <point x="303" y="227"/>
      <point x="349" y="227" type="curve" smooth="yes"/>
      <point x="379" y="227"/>
      <point x="408" y="234"/>
      <point x="421" y="246" type="curve" smooth="yes"/>
      <point x="433" y="257"/>
      <point x="434" y="279"/>
      <point x="436" y="279" type="curve" smooth="yes"/>
      <point x="439" y="279"/>
      <point x="455" y="278"/>
      <point x="456" y="276" type="curve"/>
      <point x="456" y="273"/>
      <point x="443" y="217"/>
      <point x="436" y="214" type="curve" smooth="yes"/>
      <point x="404" y="201"/>
      <point x="372" y="195"/>
      <point x="330" y="195" type="curve" smooth="yes"/>
      <point x="249" y="195"/>
      <point x="187" y="257"/>
    </contour>
  </outline>
</glyph>
<glyph name="ordfeminine" format="1">
  <advance width="345"/>
  <unicode hex="00AA"/>
  <outline>
    <contour>
      <point x="47" y="329" type="curve" smooth="yes"/>
      <point x="47" y="357"/>
      <point x="67" y="378"/>
      <point x="82" y="384" type="curve" smooth="yes"/>
      <point x="121" y="398"/>
      <point x="183" y="419"/>
      <point x="203" y="428" type="curve" smooth="yes"/>
      <point x="210" y="431"/>
      <point x="211" y="433"/>
      <point x="211" y="445" type="curve" smooth="yes"/>
      <point x="211" y="464" type="line" smooth="yes"/>
      <point x="211" y="495"/>
      <point x="190" y="526"/>
      <point x="152" y="526" type="curve" smooth="yes"/>
      <point x="128" y="526"/>
      <point x="118" y="514"/>
      <point x="113" y="487" type="curve" smooth="yes"/>
      <point x="109" y="463"/>
      <point x="98" y="454"/>
      <point x="81" y="454" type="curve" smooth="yes"/>
      <point x="66" y="454"/>
      <point x="57" y="469"/>
      <point x="57" y="483" type="curve" smooth="yes"/>
      <point x="57" y="486"/>
      <point x="59" y="497"/>
      <point x="62" y="500" type="curve" smooth="yes"/>
      <point x="83" y="520"/>
      <point x="137" y="556"/>
      <point x="188" y="556" type="curve" smooth="yes"/>
      <point x="227" y="556"/>
      <point x="264" y="515"/>
      <point x="264" y="462" type="curve" smooth="yes"/>
      <point x="264" y="319" type="line" smooth="yes"/>
      <point x="264" y="300"/>
      <point x="269" y="286"/>
      <point x="285" y="286" type="curve" smooth="yes"/>
      <point x="297" y="286"/>
      <point x="306" y="294"/>
      <point x="308" y="295" type="curve" smooth="yes"/>
      <point x="310" y="295"/>
      <point x="311" y="292"/>
      <point x="311" y="290" type="curve" smooth="yes"/>
      <point x="311" y="286"/>
      <point x="309" y="280"/>
      <point x="307" y="277" type="curve" smooth="yes"/>
      <point x="299" y="269"/>
      <point x="270" y="250"/>
      <point x="255" y="250" type="curve" smooth="yes"/>
      <point x="235" y="250"/>
      <point x="217" y="274"/>
      <point x="213" y="295" type="curve"/>
      <point x="205" y="287"/>
      <point x="152" y="249"/>
      <point x="128" y="249" type="curve" smooth="yes"/>
      <point x="82" y="249"/>
      <point x="47" y="284"/>
    </contour>
    <contour>
      <point x="104" y="335" type="curve" smooth="yes"/>
      <point x="104" y="309"/>
      <point x="125" y="286"/>
      <point x="151" y="286" type="curve" smooth="yes"/>
      <point x="175" y="286"/>
      <point x="211" y="313"/>
      <point x="211" y="320" type="curve" smooth="yes"/>
      <point x="211" y="405" type="line"/>
      <point x="192" y="399"/>
      <point x="159" y="390"/>
      <point x="147" y="385" type="curve" smooth="yes"/>
      <point x="122" y="375"/>
      <point x="104" y="361"/>
    </contour>
  </outline>
</glyph>
<glyph name="guillemotleft" format="1">
  <advance width="482"/>
  <unicode hex="00AB"/>
  <outline>
    <contour>
      <point x="27" y="246" type="curve" smooth="yes"/>
      <point x="27" y="256"/>
      <point x="28" y="255"/>
      <point x="32" y="264" type="curve"/>
      <point x="163" y="343"/>
      <point x="240" y="422"/>
      <point x="241" y="423" type="curve"/>
      <point x="257" y="418"/>
      <point x="261" y="414"/>
      <point x="263" y="411" type="curve"/>
      <point x="257" y="390"/>
      <point x="161" y="288"/>
      <point x="115" y="247" type="curve"/>
      <point x="161" y="206"/>
      <point x="257" y="104"/>
      <point x="263" y="83" type="curve"/>
      <point x="261" y="80"/>
      <point x="257" y="76"/>
      <point x="241" y="71" type="curve"/>
      <point x="240" y="72"/>
      <point x="163" y="151"/>
      <point x="32" y="230" type="curve"/>
      <point x="30" y="233"/>
      <point x="27" y="240"/>
    </contour>
    <contour>
      <point x="207" y="246" type="curve" smooth="yes"/>
      <point x="207" y="256"/>
      <point x="208" y="255"/>
      <point x="212" y="264" type="curve"/>
      <point x="343" y="343"/>
      <point x="420" y="422"/>
      <point x="421" y="423" type="curve"/>
      <point x="437" y="418"/>
      <point x="441" y="414"/>
      <point x="443" y="411" type="curve"/>
      <point x="437" y="390"/>
      <point x="341" y="288"/>
      <point x="295" y="247" type="curve"/>
      <point x="341" y="206"/>
      <point x="437" y="104"/>
      <point x="443" y="83" type="curve"/>
      <point x="441" y="80"/>
      <point x="437" y="76"/>
      <point x="421" y="71" type="curve"/>
      <point x="420" y="72"/>
      <point x="343" y="151"/>
      <point x="212" y="230" type="curve"/>
      <point x="210" y="233"/>
      <point x="207" y="240"/>
    </contour>
  </outline>
</glyph>
<glyph name="logicalnot" format="1">
  <advance width="587"/>
  <unicode hex="00AC"/>
  <outline>
    <contour>
      <point x="45" y="374" type="curve"/>
      <point x="45" y="374"/>
      <point x="50" y="420"/>
      <point x="60" y="420" type="curve" smooth="yes"/>
      <point x="516" y="420" type="line"/>
      <point x="516" y="169" type="line"/>
      <point x="515" y="168"/>
      <point x="489" y="154"/>
      <point x="469" y="154" type="curve"/>
      <point x="469" y="154"/>
      <point x="459" y="155"/>
      <point x="456" y="161" type="curve"/>
      <point x="456" y="364" type="line"/>
      <point x="51" y="364" type="line"/>
      <point x="51" y="364"/>
      <point x="45" y="364"/>
    </contour>
  </outline>
</glyph>
<glyph name="registered" format="1">
  <advance width="659"/>
  <unicode hex="00AE"/>
  <outline>
    <contour>
      <point x="56" y="407" type="curve" smooth="yes"/>
      <point x="56" y="558"/>
      <point x="178" y="680"/>
      <point x="329" y="680" type="curve" smooth="yes"/>
      <point x="480" y="680"/>
      <point x="603" y="558"/>
      <point x="603" y="407" type="curve" smooth="yes"/>
      <point x="603" y="256"/>
      <point x="480" y="133"/>
      <point x="329" y="133" type="curve" smooth="yes"/>
      <point x="178" y="133"/>
      <point x="56" y="256"/>
    </contour>
    <contour>
      <point x="89" y="407" type="curve" smooth="yes"/>
      <point x="89" y="274"/>
      <point x="197" y="165"/>
      <point x="330" y="165" type="curve" smooth="yes"/>
      <point x="463" y="165"/>
      <point x="572" y="274"/>
      <point x="572" y="407" type="curve" smooth="yes"/>
      <point x="572" y="540"/>
      <point x="463" y="648"/>
      <point x="330" y="648" type="curve" smooth="yes"/>
      <point x="197" y="648"/>
      <point x="89" y="540"/>
    </contour>
    <contour>
      <point x="206" y="273" type="curve"/>
      <point x="204" y="275"/>
      <point x="204" y="285"/>
      <point x="206" y="287" type="curve"/>
      <point x="211" y="287"/>
      <point x="234" y="289"/>
      <point x="235" y="294" type="curve" smooth="yes"/>
      <point x="237" y="301"/>
      <point x="237" y="312"/>
      <point x="237" y="325" type="curve" smooth="yes"/>
      <point x="237" y="502" type="line" smooth="yes"/>
      <point x="237" y="514"/>
      <point x="237" y="526"/>
      <point x="235" y="533" type="curve" smooth="yes"/>
      <point x="234" y="538"/>
      <point x="211" y="540"/>
      <point x="206" y="540" type="curve"/>
      <point x="204" y="542"/>
      <point x="204" y="552"/>
      <point x="206" y="554" type="curve"/>
      <point x="223" y="553"/>
      <point x="247" y="552"/>
      <point x="263" y="552" type="curve" smooth="yes"/>
      <point x="279" y="552"/>
      <point x="298" y="553"/>
      <point x="323" y="553" type="curve" smooth="yes"/>
      <point x="361" y="553"/>
      <point x="413" y="527"/>
      <point x="413" y="479" type="curve" smooth="yes"/>
      <point x="413" y="449"/>
      <point x="387" y="421"/>
      <point x="358" y="410" type="curve"/>
      <point x="380" y="373"/>
      <point x="402" y="344"/>
      <point x="430" y="310" type="curve" smooth="yes"/>
      <point x="443" y="294"/>
      <point x="455" y="289"/>
      <point x="478" y="287" type="curve"/>
      <point x="480" y="285"/>
      <point x="477" y="274"/>
      <point x="477" y="273" type="curve"/>
      <point x="449" y="273"/>
      <point x="417" y="275"/>
      <point x="409" y="278" type="curve" smooth="yes"/>
      <point x="403" y="280"/>
      <point x="392" y="283"/>
      <point x="382" y="296" type="curve" smooth="yes"/>
      <point x="376" y="304"/>
      <point x="339" y="357"/>
      <point x="312" y="398" type="curve" smooth="yes"/>
      <point x="309" y="402"/>
      <point x="305" y="403"/>
      <point x="299" y="403" type="curve" smooth="yes"/>
      <point x="284" y="403" type="line"/>
      <point x="284" y="325" type="line" smooth="yes"/>
      <point x="284" y="312"/>
      <point x="284" y="301"/>
      <point x="286" y="294" type="curve" smooth="yes"/>
      <point x="287" y="289"/>
      <point x="310" y="287"/>
      <point x="315" y="287" type="curve"/>
      <point x="317" y="285"/>
      <point x="317" y="275"/>
      <point x="315" y="273" type="curve"/>
      <point x="298" y="274"/>
      <point x="277" y="275"/>
      <point x="261" y="275" type="curve" smooth="yes"/>
      <point x="245" y="275"/>
      <point x="223" y="274"/>
    </contour>
    <contour>
      <point x="284" y="421" type="line"/>
      <point x="302" y="421" type="line" smooth="yes"/>
      <point x="338" y="421"/>
      <point x="365" y="436"/>
      <point x="365" y="469" type="curve" smooth="yes"/>
      <point x="365" y="507"/>
      <point x="354" y="536"/>
      <point x="307" y="536" type="curve" smooth="yes"/>
      <point x="302" y="536"/>
      <point x="288" y="536"/>
      <point x="286" y="532" type="curve" smooth="yes"/>
      <point x="284" y="527"/>
      <point x="284" y="513"/>
      <point x="284" y="500" type="curve" smooth="yes"/>
    </contour>
  </outline>
</glyph>
<glyph name="degree" format="1">
  <advance width="274"/>
  <unicode hex="00B0"/>
  <outline>
    <contour>
      <point x="38" y="536" type="curve" smooth="yes"/>
      <point x="38" y="590"/>
      <point x="83" y="634"/>
      <point x="137" y="634" type="curve" smooth="yes"/>
      <point x="191" y="634"/>
      <point x="235" y="590"/>
      <point x="235" y="536" type="curve" smooth="yes"/>
      <point x="235" y="482"/>
      <point x="191" y="437"/>
      <point x="137" y="437" type="curve" smooth="yes"/>
      <point x="83" y="437"/>
      <point x="38" y="482"/>
    </contour>
    <contour>
      <point x="75" y="536" type="curve" smooth="yes"/>
      <point x="75" y="502"/>
      <point x="103" y="474"/>
      <point x="137" y="474" type="curve" smooth="yes"/>
      <point x="171" y="474"/>
      <point x="198" y="502"/>
      <point x="198" y="536" type="curve" smooth="yes"/>
      <point x="198" y="570"/>
      <point x="171" y="597"/>
      <point x="137" y="597" type="curve" smooth="yes"/>
      <point x="103" y="597"/>
      <point x="75" y="570"/>
    </contour>
  </outline>
</glyph>
<glyph name="mu" format="1">
  <advance width="541"/>
  <unicode hex="00B5"/>
  <outline>
    <contour>
      <point x="78" y="-190" type="curve" smooth="yes"/>
      <point x="78" y="-172"/>
      <point x="87" y="100"/>
      <point x="99" y="204" type="curve"/>
      <point x="99" y="228"/>
      <point x="95" y="275"/>
      <point x="95" y="298" type="curve" smooth="yes"/>
      <point x="95" y="311"/>
      <point x="96" y="379"/>
      <point x="95" y="417" type="curve"/>
      <point x="100" y="425"/>
      <point x="107" y="437"/>
      <point x="119" y="437" type="curve" smooth="yes"/>
      <point x="129" y="437"/>
      <point x="172" y="413"/>
      <point x="172" y="400" type="curve" smooth="yes"/>
      <point x="172" y="382"/>
      <point x="168" y="335"/>
      <point x="149" y="246" type="curve" smooth="yes"/>
      <point x="148" y="240"/>
      <point x="144" y="223"/>
      <point x="144" y="223" type="curve"/>
      <point x="144" y="144"/>
      <point x="159" y="64"/>
      <point x="195" y="64" type="curve" smooth="yes"/>
      <point x="262" y="64"/>
      <point x="312" y="155"/>
      <point x="337" y="227" type="curve"/>
      <point x="337" y="298" type="line" smooth="yes"/>
      <point x="337" y="311"/>
      <point x="338" y="379"/>
      <point x="337" y="417" type="curve"/>
      <point x="342" y="425"/>
      <point x="349" y="437"/>
      <point x="361" y="437" type="curve" smooth="yes"/>
      <point x="371" y="437"/>
      <point x="414" y="413"/>
      <point x="414" y="400" type="curve" smooth="yes"/>
      <point x="414" y="382"/>
      <point x="405" y="335"/>
      <point x="391" y="246" type="curve" smooth="yes"/>
      <point x="389" y="236"/>
      <point x="381" y="195"/>
      <point x="381" y="195" type="curve"/>
      <point x="381" y="124"/>
      <point x="405" y="66"/>
      <point x="451" y="66" type="curve" smooth="yes"/>
      <point x="477" y="66"/>
      <point x="495" y="87"/>
      <point x="502" y="96" type="curve"/>
      <point x="505" y="96"/>
      <point x="508" y="92"/>
      <point x="511" y="87" type="curve" smooth="yes"/>
      <point x="513" y="83"/>
      <point x="514" y="79"/>
      <point x="514" y="76" type="curve" smooth="yes"/>
      <point x="501" y="32"/>
      <point x="461" y="-4"/>
      <point x="421" y="-4" type="curve" smooth="yes"/>
      <point x="373" y="-3"/>
      <point x="358" y="115"/>
      <point x="356" y="142" type="curve"/>
      <point x="326" y="72"/>
      <point x="271" y="-9"/>
      <point x="201" y="-9" type="curve" smooth="yes"/>
      <point x="159" y="-9"/>
      <point x="143" y="71"/>
      <point x="138" y="101" type="curve"/>
      <point x="140" y="76"/>
      <point x="133" y="-89"/>
      <point x="155" y="-207" type="curve"/>
      <point x="150" y="-215"/>
      <point x="143" y="-227"/>
      <point x="131" y="-227" type="curve" smooth="yes"/>
      <point x="121" y="-227"/>
      <point x="78" y="-203"/>
    </contour>
  </outline>
</glyph>
<glyph name="paragraph" format="1">
  <advance width="484"/>
  <unicode hex="00B6"/>
  <outline>
    <contour>
      <point x="34" y="469" type="curve" smooth="yes"/>
      <point x="34" y="578"/>
      <point x="123" y="652"/>
      <point x="205" y="652" type="curve" smooth="yes"/>
      <point x="264" y="652"/>
      <point x="243" y="648"/>
      <point x="302" y="648" type="curve" smooth="yes"/>
      <point x="369" y="648"/>
      <point x="423" y="653"/>
      <point x="423" y="653" type="curve"/>
      <point x="428" y="648"/>
      <point x="427" y="627"/>
      <point x="422" y="624" type="curve"/>
      <point x="407" y="624"/>
      <point x="370" y="616"/>
      <point x="365" y="604" type="curve" smooth="yes"/>
      <point x="363" y="597"/>
      <point x="362" y="591"/>
      <point x="362" y="540" type="curve" smooth="yes"/>
      <point x="362" y="339" type="line"/>
      <point x="367" y="338"/>
      <point x="411" y="352"/>
      <point x="411" y="352" type="curve"/>
      <point x="416" y="352"/>
      <point x="421" y="350"/>
      <point x="421" y="346" type="curve" smooth="yes"/>
      <point x="420" y="336"/>
      <point x="399" y="312"/>
      <point x="392" y="309" type="curve" smooth="yes"/>
      <point x="381" y="304"/>
      <point x="369" y="300"/>
      <point x="361" y="299" type="curve"/>
      <point x="361" y="116" type="line" smooth="yes"/>
      <point x="361" y="86"/>
      <point x="361" y="58"/>
      <point x="366" y="42" type="curve" smooth="yes"/>
      <point x="369" y="31"/>
      <point x="419" y="23"/>
      <point x="431" y="23" type="curve" smooth="yes"/>
      <point x="433" y="23"/>
      <point x="433" y="-2"/>
      <point x="431" y="-4" type="curve"/>
      <point x="368" y="-2"/>
      <point x="360" y="2"/>
      <point x="297" y="2" type="curve" smooth="yes"/>
      <point x="251" y="2"/>
      <point x="198" y="-2"/>
      <point x="158" y="-4" type="curve"/>
      <point x="156" y="2"/>
      <point x="155" y="19"/>
      <point x="160" y="23" type="curve"/>
      <point x="168" y="23"/>
      <point x="218" y="31"/>
      <point x="221" y="42" type="curve" smooth="yes"/>
      <point x="226" y="58"/>
      <point x="226" y="86"/>
      <point x="226" y="116" type="curve" smooth="yes"/>
      <point x="226" y="287" type="line"/>
      <point x="98" y="287"/>
      <point x="34" y="399"/>
    </contour>
    <contour>
      <point x="265" y="116" type="line" smooth="yes"/>
      <point x="265" y="86"/>
      <point x="265" y="58"/>
      <point x="268" y="42" type="curve" smooth="yes"/>
      <point x="269" y="35"/>
      <point x="289" y="36"/>
      <point x="293" y="36" type="curve" smooth="yes"/>
      <point x="300" y="36"/>
      <point x="318" y="36"/>
      <point x="319" y="42" type="curve" smooth="yes"/>
      <point x="322" y="58"/>
      <point x="322" y="86"/>
      <point x="322" y="116" type="curve" smooth="yes"/>
      <point x="321" y="292" type="line"/>
      <point x="307" y="291"/>
      <point x="281" y="289"/>
      <point x="265" y="288" type="curve"/>
    </contour>
    <contour>
      <point x="265" y="328" type="line"/>
      <point x="271" y="328"/>
      <point x="318" y="330"/>
      <point x="322" y="333" type="curve"/>
      <point x="322" y="606" type="line"/>
      <point x="318" y="610"/>
      <point x="303" y="611"/>
      <point x="293" y="611" type="curve" smooth="yes"/>
      <point x="283" y="611"/>
      <point x="271" y="611"/>
      <point x="265" y="605" type="curve"/>
    </contour>
  </outline>
</glyph>
<glyph name="periodcentered" format="1">
  <advance width="224"/>
  <unicode hex="00B7"/>
  <outline>
    <contour>
      <point x="54" y="264" type="curve" smooth="yes"/>
      <point x="54" y="296"/>
      <point x="80" y="322"/>
      <point x="112" y="322" type="curve" smooth="yes"/>
      <point x="144" y="322"/>
      <point x="170" y="296"/>
      <point x="170" y="264" type="curve" smooth="yes"/>
      <point x="170" y="232"/>
      <point x="144" y="205"/>
      <point x="112" y="205" type="curve" smooth="yes"/>
      <point x="80" y="205"/>
      <point x="54" y="232"/>
    </contour>
  </outline>
</glyph>
<glyph name="onehalf" format="1">
  <advance width="750"/>
  <unicode hex="00BD"/>
  <outline>
    <contour>
      <point x="37" y="558" type="curve"/>
      <point x="56" y="570"/>
      <point x="87" y="588"/>
      <point x="172" y="638" type="curve"/>
      <point x="179" y="636"/>
      <point x="185" y="629"/>
      <point x="185" y="622" type="curve" smooth="yes"/>
      <point x="185" y="622"/>
      <point x="177" y="573"/>
      <point x="177" y="534" type="curve" smooth="yes"/>
      <point x="177" y="336" type="line" smooth="yes"/>
      <point x="177" y="316"/>
      <point x="179" y="302"/>
      <point x="184" y="287" type="curve" smooth="yes"/>
      <point x="186" y="280"/>
      <point x="226" y="273"/>
      <point x="234" y="273" type="curve"/>
      <point x="239" y="268"/>
      <point x="236" y="253"/>
      <point x="235" y="251" type="curve"/>
      <point x="196" y="252"/>
      <point x="188" y="254"/>
      <point x="149" y="254" type="curve" smooth="yes"/>
      <point x="110" y="254"/>
      <point x="96" y="252"/>
      <point x="57" y="251" type="curve"/>
      <point x="52" y="254"/>
      <point x="53" y="269"/>
      <point x="57" y="273" type="curve"/>
      <point x="69" y="273"/>
      <point x="104" y="281"/>
      <point x="107" y="288" type="curve" smooth="yes"/>
      <point x="112" y="301"/>
      <point x="115" y="324"/>
      <point x="115" y="334" type="curve" smooth="yes"/>
      <point x="115" y="520" type="line" smooth="yes"/>
      <point x="115" y="539"/>
      <point x="108" y="555"/>
      <point x="98" y="555" type="curve" smooth="yes"/>
      <point x="87" y="555"/>
      <point x="70" y="547"/>
      <point x="50" y="540" type="curve"/>
      <point x="44" y="543"/>
      <point x="39" y="552"/>
    </contour>
    <contour>
      <point x="176" y="-4" type="curve"/>
      <point x="525" y="636" type="line" smooth="yes"/>
      <point x="526" y="639"/>
      <point x="539" y="647"/>
      <point x="556" y="644" type="curve" smooth="yes"/>
      <point x="562" y="643"/>
      <point x="564" y="637"/>
      <point x="564" y="634" type="curve"/>
      <point x="219" y="2" type="line" smooth="yes"/>
      <point x="216" y="-4"/>
      <point x="203" y="-16"/>
      <point x="187" y="-13" type="curve" smooth="yes"/>
      <point x="176" y="-11"/>
      <point x="176" y="-4"/>
    </contour>
    <contour>
      <point x="435" y="11" type="curve"/>
      <point x="473" y="52"/>
      <point x="527" y="101"/>
      <point x="567" y="152" type="curve" smooth="yes"/>
      <point x="599" y="193"/>
      <point x="623" y="235"/>
      <point x="623" y="275" type="curve" smooth="yes"/>
      <point x="623" y="317"/>
      <point x="599" y="347"/>
      <point x="557" y="347" type="curve" smooth="yes"/>
      <point x="512" y="347"/>
      <point x="488" y="320"/>
      <point x="470" y="298" type="curve" smooth="yes"/>
      <point x="466" y="294"/>
      <point x="452" y="310"/>
      <point x="453" y="315" type="curve"/>
      <point x="476" y="355"/>
      <point x="523" y="392"/>
      <point x="569" y="392" type="curve" smooth="yes"/>
      <point x="639" y="392"/>
      <point x="688" y="348"/>
      <point x="688" y="285" type="curve" smooth="yes"/>
      <point x="688" y="252"/>
      <point x="672" y="220"/>
      <point x="642" y="184" type="curve" smooth="yes"/>
      <point x="615" y="152"/>
      <point x="565" y="103"/>
      <point x="517" y="54" type="curve"/>
      <point x="637" y="54" type="line" smooth="yes"/>
      <point x="678" y="54"/>
      <point x="691" y="98"/>
      <point x="697" y="108" type="curve" smooth="yes"/>
      <point x="698" y="110"/>
      <point x="699" y="110"/>
      <point x="702" y="111" type="curve" smooth="yes"/>
      <point x="705" y="111"/>
      <point x="713" y="109"/>
      <point x="716" y="105" type="curve"/>
      <point x="705" y="76"/>
      <point x="693" y="32"/>
      <point x="679" y="-1" type="curve"/>
      <point x="447" y="-1" type="line" smooth="yes"/>
      <point x="441" y="-1"/>
      <point x="433" y="7"/>
    </contour>
  </outline>
</glyph>
<glyph name="threequarters" format="1">
  <advance width="700"/>
  <unicode hex="00BE"/>
  <outline>
    <contour>
      <point x="382" y="122" type="curve"/>
      <point x="587" y="395" type="line" smooth="yes"/>
      <point x="593.005" y="402.996"/>
      <point x="599" y="407"/>
      <point x="607" y="407" type="curve" smooth="yes"/>
      <point x="613" y="407"/>
      <point x="616" y="400"/>
      <point x="616" y="395" type="curve" smooth="yes"/>
      <point x="616" y="151" type="line"/>
      <point x="652" y="151" type="line"/>
      <point x="661" y="143"/>
      <point x="665" y="120"/>
      <point x="657" y="106" type="curve"/>
      <point x="616" y="106" type="line"/>
      <point x="616" y="0" type="line"/>
      <point x="614" y="-2"/>
      <point x="602" y="-3"/>
      <point x="588" y="-3" type="curve" smooth="yes"/>
      <point x="575" y="-3"/>
      <point x="562" y="-2"/>
      <point x="557" y="2" type="curve"/>
      <point x="557" y="106" type="line"/>
      <point x="392" y="106" type="line"/>
      <point x="387" y="107"/>
      <point x="383" y="111"/>
    </contour>
    <contour>
      <point x="443" y="151" type="curve"/>
      <point x="557" y="151" type="line"/>
      <point x="557" y="305" type="line"/>
      <point x="516" y="253"/>
      <point x="488" y="209"/>
    </contour>
    <contour>
      <point x="35" y="288" type="curve" smooth="yes"/>
      <point x="35" y="308"/>
      <point x="50" y="321"/>
      <point x="66" y="321" type="curve" smooth="yes"/>
      <point x="83" y="321"/>
      <point x="90" y="304"/>
      <point x="102" y="292" type="curve" smooth="yes"/>
      <point x="112" y="282"/>
      <point x="126" y="277"/>
      <point x="141" y="277" type="curve" smooth="yes"/>
      <point x="183" y="277"/>
      <point x="213" y="307"/>
      <point x="213" y="368" type="curve" smooth="yes"/>
      <point x="213" y="417"/>
      <point x="178" y="454"/>
      <point x="141" y="454" type="curve" smooth="yes"/>
      <point x="123" y="454"/>
      <point x="106" y="447"/>
      <point x="101" y="446" type="curve"/>
      <point x="98.7565" y="448.243"/>
      <point x="92.8758" y="460.752"/>
      <point x="96" y="467" type="curve"/>
      <point x="145" y="477"/>
      <point x="189" y="507"/>
      <point x="189" y="556" type="curve" smooth="yes"/>
      <point x="189" y="582"/>
      <point x="164" y="607"/>
      <point x="138" y="607" type="curve" smooth="yes"/>
      <point x="101" y="607"/>
      <point x="74" y="576"/>
      <point x="68" y="570" type="curve"/>
      <point x="63" y="572"/>
      <point x="58" y="585"/>
      <point x="59" y="586" type="curve" smooth="yes"/>
      <point x="73" y="607"/>
      <point x="105" y="646"/>
      <point x="158" y="646" type="curve" smooth="yes"/>
      <point x="200" y="646"/>
      <point x="245" y="620"/>
      <point x="245" y="569" type="curve" smooth="yes"/>
      <point x="245" y="525"/>
      <point x="209" y="496"/>
      <point x="187" y="486" type="curve"/>
      <point x="213" y="486"/>
      <point x="277" y="452"/>
      <point x="277" y="386" type="curve" smooth="yes"/>
      <point x="277" y="298"/>
      <point x="201" y="249"/>
      <point x="114" y="249" type="curve" smooth="yes"/>
      <point x="92" y="249"/>
      <point x="57" y="255"/>
      <point x="47" y="264" type="curve"/>
      <point x="47" y="264"/>
      <point x="35" y="275"/>
    </contour>
    <contour>
      <point x="181" y="-4" type="curve"/>
      <point x="530" y="636" type="line" smooth="yes"/>
      <point x="531" y="639"/>
      <point x="544" y="647"/>
      <point x="561" y="644" type="curve" smooth="yes"/>
      <point x="567" y="643"/>
      <point x="569" y="637"/>
      <point x="569" y="634" type="curve"/>
      <point x="224" y="2" type="line" smooth="yes"/>
      <point x="221" y="-4"/>
      <point x="208" y="-16"/>
      <point x="192" y="-13" type="curve" smooth="yes"/>
      <point x="181" y="-11"/>
      <point x="181" y="-4"/>
    </contour>
  </outline>
</glyph>
<glyph name="Eth" format="1">
  <advance width="710"/>
  <unicode hex="00D0"/>
  <outline>
    <contour>
      <point x="49" y="311" type="line" smooth="yes"/>
      <point x="45" y="311"/>
      <point x="44" y="339"/>
      <point x="50" y="348" type="curve"/>
      <point x="119" y="348" type="line"/>
      <point x="119" y="543" type="line" smooth="yes"/>
      <point x="119" y="573"/>
      <point x="119" y="601"/>
      <point x="114" y="617" type="curve" smooth="yes"/>
      <point x="111" y="628"/>
      <point x="57" y="633"/>
      <point x="45" y="633" type="curve"/>
      <point x="41" y="638"/>
      <point x="40" y="657"/>
      <point x="45" y="662" type="curve"/>
      <point x="86" y="660"/>
      <point x="124" y="657"/>
      <point x="163" y="657" type="curve" smooth="yes"/>
      <point x="202" y="657"/>
      <point x="264" y="658"/>
      <point x="308" y="658" type="curve" smooth="yes"/>
      <point x="527" y="658"/>
      <point x="659" y="519"/>
      <point x="659" y="334" type="curve" smooth="yes"/>
      <point x="659" y="164"/>
      <point x="577" y="-3"/>
      <point x="295" y="-3" type="curve" smooth="yes"/>
      <point x="45" y="-3" type="line"/>
      <point x="40" y="2"/>
      <point x="41" y="21"/>
      <point x="45" y="26" type="curve"/>
      <point x="57" y="26"/>
      <point x="111" y="31"/>
      <point x="114" y="42" type="curve" smooth="yes"/>
      <point x="119" y="58"/>
      <point x="119" y="86"/>
      <point x="119" y="116" type="curve" smooth="yes"/>
      <point x="119" y="311" type="line"/>
    </contour>
    <contour>
      <point x="207" y="115" type="line" smooth="yes"/>
      <point x="207" y="101"/>
      <point x="208" y="49"/>
      <point x="213" y="43" type="curve" smooth="yes"/>
      <point x="221" y="32"/>
      <point x="258" y="29"/>
      <point x="295" y="29" type="curve" smooth="yes"/>
      <point x="437" y="29"/>
      <point x="560" y="118"/>
      <point x="560" y="313" type="curve" smooth="yes"/>
      <point x="560" y="539"/>
      <point x="425" y="626"/>
      <point x="281" y="626" type="curve" smooth="yes"/>
      <point x="269" y="626"/>
      <point x="215" y="625"/>
      <point x="212" y="615" type="curve" smooth="yes"/>
      <point x="207" y="599"/>
      <point x="207" y="570"/>
      <point x="207" y="541" type="curve" smooth="yes"/>
      <point x="207" y="348" type="line"/>
      <point x="365" y="348" type="line" smooth="yes"/>
      <point x="369" y="348"/>
      <point x="369" y="320"/>
      <point x="365" y="311" type="curve"/>
      <point x="207" y="311" type="line"/>
    </contour>
  </outline>
</glyph>
<glyph name="multiply" format="1">
  <advance width="464"/>
  <unicode hex="00D7"/>
  <outline>
    <contour>
      <point x="55" y="105" type="curve"/>
      <point x="199" y="247" type="line"/>
      <point x="55" y="391" type="line"/>
      <point x="55" y="405"/>
      <point x="70" y="429"/>
      <point x="79" y="429" type="curve" smooth="yes"/>
      <point x="82" y="429"/>
      <point x="84" y="429"/>
      <point x="86" y="427" type="curve" smooth="yes"/>
      <point x="235" y="283" type="line"/>
      <point x="380" y="427" type="line" smooth="yes"/>
      <point x="381" y="428"/>
      <point x="383" y="429"/>
      <point x="386" y="429" type="curve" smooth="yes"/>
      <point x="395" y="429"/>
      <point x="408" y="399"/>
      <point x="408" y="389" type="curve"/>
      <point x="268" y="250" type="line"/>
      <point x="269" y="249"/>
      <point x="408" y="105"/>
      <point x="408" y="105" type="curve"/>
      <point x="408" y="90"/>
      <point x="397" y="65"/>
      <point x="386" y="65" type="curve" smooth="yes"/>
      <point x="384" y="65"/>
      <point x="381" y="65"/>
      <point x="379" y="67" type="curve" smooth="yes"/>
      <point x="232" y="214" type="line"/>
      <point x="83" y="66" type="line" smooth="yes"/>
      <point x="81" y="65"/>
      <point x="79" y="64"/>
      <point x="77" y="64" type="curve" smooth="yes"/>
      <point x="68" y="64"/>
      <point x="55" y="95"/>
    </contour>
  </outline>
</glyph>
<glyph name="Oslash" format="1">
  <advance width="748"/>
  <unicode hex="00D8"/>
  <outline>
    <contour>
      <point x="49" y="328" type="curve" smooth="yes"/>
      <point x="49" y="515"/>
      <point x="197" y="667"/>
      <point x="373" y="667" type="curve" smooth="yes"/>
      <point x="432.103" y="667"/>
      <point x="488.274" y="651.212"/>
      <point x="536.818" y="622.704" type="curve"/>
      <point x="565" y="667" type="line"/>
      <point x="574" y="665"/>
      <point x="598" y="651"/>
      <point x="594" y="645" type="curve" smooth="yes"/>
      <point x="567.044" y="602.567" type="line"/>
      <point x="646.442" y="542.917"/>
      <point x="699" y="445.795"/>
      <point x="699" y="328" type="curve" smooth="yes"/>
      <point x="699" y="141"/>
      <point x="549" y="-10"/>
      <point x="373" y="-10" type="curve" smooth="yes"/>
      <point x="312.802" y="-10"/>
      <point x="255.88" y="6.37822"/>
      <point x="207.035" y="35.8535" type="curve"/>
      <point x="176" y="-13" type="line"/>
      <point x="167" y="-10"/>
      <point x="143" y="4"/>
      <point x="147" y="10" type="curve" smooth="yes"/>
      <point x="176.685" y="56.6582" type="line"/>
      <point x="99.5451" y="116.387"/>
      <point x="49" y="212.289"/>
    </contour>
    <contour>
      <point x="503.578" y="570.459" type="line"/>
      <point x="465.449" y="608.86"/>
      <point x="416.581" y="633"/>
      <point x="358" y="633" type="curve" smooth="yes"/>
      <point x="208" y="633"/>
      <point x="148" y="484"/>
      <point x="148" y="350" type="curve" smooth="yes"/>
      <point x="148" y="268.579"/>
      <point x="171.731" y="182.742"/>
      <point x="216.728" y="119.597" type="curve"/>
    </contour>
    <contour>
      <point x="528.323" y="541.614" type="curve"/>
      <point x="241.269" y="89.744" type="line"/>
      <point x="279.568" y="49.5053"/>
      <point x="329.138" y="24"/>
      <point x="389" y="24" type="curve" smooth="yes"/>
      <point x="539" y="24"/>
      <point x="600" y="174"/>
      <point x="600" y="309" type="curve" smooth="yes"/>
      <point x="600" y="391.855"/>
      <point x="575.14" y="478.71"/>
    </contour>
  </outline>
</glyph>
<glyph name="germandbls" format="1">
  <advance width="537"/>
  <unicode hex="00DF"/>
  <outline>
    <contour>
      <point x="28" y="-3" type="curve"/>
      <point x="23" y="2"/>
      <point x="24" y="21"/>
      <point x="28" y="26" type="curve"/>
      <point x="40" y="26"/>
      <point x="88" y="31"/>
      <point x="91" y="42" type="curve" smooth="yes"/>
      <point x="96" y="58"/>
      <point x="96" y="86"/>
      <point x="96" y="116" type="curve" smooth="yes"/>
      <point x="96" y="391" type="line"/>
      <point x="38" y="391" type="line" smooth="yes"/>
      <point x="35" y="391"/>
      <point x="33" y="397"/>
      <point x="33" y="400" type="curve" smooth="yes"/>
      <point x="33" y="404"/>
      <point x="58" y="431"/>
      <point x="59" y="432" type="curve"/>
      <point x="96" y="432" type="line"/>
      <point x="96" y="438" type="line" smooth="yes"/>
      <point x="96" y="560"/>
      <point x="187" y="693"/>
      <point x="267" y="693" type="curve" smooth="yes"/>
      <point x="361" y="693"/>
      <point x="443" y="655"/>
      <point x="443" y="561" type="curve" smooth="yes"/>
      <point x="443" y="495.898"/>
      <point x="397.319" y="457.195"/>
      <point x="358.331" y="425" type="curve" smooth="yes"/>
      <point x="322" y="395"/>
      <point x="305" y="380.122"/>
      <point x="305" y="359" type="curve" smooth="yes"/>
      <point x="305" y="318"/>
      <point x="356" y="290"/>
      <point x="403" y="265" type="curve" smooth="yes"/>
      <point x="450" y="240"/>
      <point x="511" y="206"/>
      <point x="511" y="137" type="curve" smooth="yes"/>
      <point x="511" y="58"/>
      <point x="455" y="-10"/>
      <point x="379" y="-10" type="curve" smooth="yes"/>
      <point x="318" y="-10"/>
      <point x="271" y="16"/>
      <point x="261" y="33" type="curve"/>
      <point x="262" y="66"/>
      <point x="268.486" y="91"/>
      <point x="295" y="91" type="curve" smooth="yes"/>
      <point x="309.766" y="91"/>
      <point x="318.607" y="77.1792"/>
      <point x="327.75" y="62" type="curve" smooth="yes"/>
      <point x="341" y="40"/>
      <point x="353.442" y="21"/>
      <point x="381" y="21" type="curve" smooth="yes"/>
      <point x="417" y="21"/>
      <point x="443" y="52"/>
      <point x="443" y="102" type="curve" smooth="yes"/>
      <point x="443" y="147"/>
      <point x="403" y="170"/>
      <point x="359" y="193" type="curve" smooth="yes"/>
      <point x="306" y="221"/>
      <point x="247" y="251"/>
      <point x="247" y="325" type="curve" smooth="yes"/>
      <point x="247" y="356.723"/>
      <point x="269.819" y="378.747"/>
      <point x="295.637" y="404" type="curve" smooth="yes"/>
      <point x="331.452" y="439.031"/>
      <point x="368" y="476.461"/>
      <point x="368" y="549" type="curve" smooth="yes"/>
      <point x="368" y="614"/>
      <point x="334" y="660"/>
      <point x="270" y="660" type="curve" smooth="yes"/>
      <point x="181" y="660"/>
      <point x="173" y="557"/>
      <point x="173" y="475" type="curve" smooth="yes"/>
      <point x="173" y="116" type="line" smooth="yes"/>
      <point x="173" y="86"/>
      <point x="173" y="58"/>
      <point x="178" y="42" type="curve" smooth="yes"/>
      <point x="181" y="31"/>
      <point x="233" y="26"/>
      <point x="245" y="26" type="curve"/>
      <point x="249" y="21"/>
      <point x="250" y="2"/>
      <point x="245" y="-3" type="curve"/>
      <point x="204" y="-1"/>
      <point x="173" y="2"/>
      <point x="134" y="2" type="curve" smooth="yes"/>
      <point x="95" y="2"/>
      <point x="69" y="-1"/>
    </contour>
  </outline>
</glyph>
<glyph name="thorn" format="1">
  <advance width="495"/>
  <unicode hex="00FE"/>
  <outline>
    <contour>
      <point x="3" y="-197" type="curve"/>
      <point x="15" y="-197"/>
      <point x="63" y="-192"/>
      <point x="66" y="-181" type="curve" smooth="yes"/>
      <point x="71" y="-165"/>
      <point x="71" y="-137"/>
      <point x="71" y="-107" type="curve" smooth="yes"/>
      <point x="71" y="558" type="line" smooth="yes"/>
      <point x="71" y="572"/>
      <point x="71" y="598"/>
      <point x="66" y="610" type="curve" smooth="yes"/>
      <point x="60" y="624"/>
      <point x="33" y="628"/>
      <point x="5" y="628" type="curve" smooth="yes"/>
      <point x="4" y="628"/>
      <point x="2" y="653"/>
      <point x="6" y="654" type="curve" smooth="yes"/>
      <point x="56" y="659"/>
      <point x="106" y="675"/>
      <point x="148" y="694" type="curve"/>
      <point x="153" y="694"/>
      <point x="159" y="685"/>
      <point x="159" y="678" type="curve" smooth="yes"/>
      <point x="159" y="678"/>
      <point x="148" y="646"/>
      <point x="148" y="591" type="curve" smooth="yes"/>
      <point x="148" y="384" type="line" smooth="yes"/>
      <point x="148" y="383"/>
      <point x="148" y="379"/>
      <point x="150" y="379" type="curve" smooth="yes"/>
      <point x="151" y="379"/>
      <point x="152" y="380"/>
      <point x="153" y="381" type="curve" smooth="yes"/>
      <point x="178" y="402"/>
      <point x="235" y="438"/>
      <point x="275" y="438" type="curve" smooth="yes"/>
      <point x="399" y="438"/>
      <point x="456" y="318"/>
      <point x="456" y="232" type="curve" smooth="yes"/>
      <point x="456" y="103"/>
      <point x="335" y="-8"/>
      <point x="222" y="-8" type="curve" smooth="yes"/>
      <point x="196" y="-8"/>
      <point x="168" y="-2"/>
      <point x="152" y="3" type="curve"/>
      <point x="152" y="3"/>
      <point x="148" y="-2"/>
      <point x="148" y="-10" type="curve" smooth="yes"/>
      <point x="148" y="-107" type="line" smooth="yes"/>
      <point x="148" y="-137"/>
      <point x="148" y="-165"/>
      <point x="153" y="-181" type="curve" smooth="yes"/>
      <point x="156" y="-192"/>
      <point x="204" y="-197"/>
      <point x="216" y="-197" type="curve"/>
      <point x="220" y="-202"/>
      <point x="221" y="-221"/>
      <point x="216" y="-226" type="curve"/>
      <point x="175" y="-224"/>
      <point x="148" y="-221"/>
      <point x="109" y="-221" type="curve" smooth="yes"/>
      <point x="70" y="-221"/>
      <point x="44" y="-224"/>
      <point x="3" y="-226" type="curve"/>
      <point x="-2" y="-221"/>
      <point x="-1" y="-202"/>
    </contour>
    <contour>
      <point x="148" y="100" type="line" smooth="yes"/>
      <point x="148" y="48"/>
      <point x="206" y="27"/>
      <point x="241" y="27" type="curve" smooth="yes"/>
      <point x="324" y="27"/>
      <point x="372" y="114"/>
      <point x="372" y="195" type="curve" smooth="yes"/>
      <point x="372" y="314"/>
      <point x="308" y="379"/>
      <point x="232" y="379" type="curve" smooth="yes"/>
      <point x="191" y="379"/>
      <point x="148" y="354"/>
      <point x="148" y="340" type="curve" smooth="yes"/>
    </contour>
  </outline>
</glyph>
<glyph name="Eogonek" format="1">
  <advance width="587"/>
  <unicode hex="0118"/>
  <outline>
    <contour>
      <point x="45" y="-3" type="curve"/>
      <point x="40" y="2"/>
      <point x="41" y="21"/>
      <point x="45" y="26" type="curve"/>
      <point x="57" y="26"/>
      <point x="111" y="31"/>
      <point x="114" y="42" type="curve" smooth="yes"/>
      <point x="119" y="58"/>
      <point x="119" y="86"/>
      <point x="119" y="116" type="curve" smooth="yes"/>
      <point x="119" y="543" type="line" smooth="yes"/>
      <point x="119" y="573"/>
      <point x="119" y="601"/>
      <point x="114" y="617" type="curve" smooth="yes"/>
      <point x="111" y="628"/>
      <point x="57" y="633"/>
      <point x="45" y="633" type="curve"/>
      <point x="41" y="638"/>
      <point x="40" y="657"/>
      <point x="45" y="662" type="curve"/>
      <point x="86" y="660"/>
      <point x="124" y="657"/>
      <point x="163" y="657" type="curve" smooth="yes"/>
      <point x="257" y="657"/>
      <point x="376" y="664"/>
      <point x="485" y="664" type="curve"/>
      <point x="492" y="614"/>
      <point x="505" y="573"/>
      <point x="514" y="528" type="curve"/>
      <point x="511" y="525"/>
      <point x="503" y="523"/>
      <point x="496" y="523" type="curve" smooth="yes"/>
      <point x="489" y="523"/>
      <point x="483" y="525"/>
      <point x="482" y="530" type="curve" smooth="yes"/>
      <point x="460" y="610"/>
      <point x="419" y="624"/>
      <point x="366" y="624" type="curve" smooth="yes"/>
      <point x="280" y="624" type="line" smooth="yes"/>
      <point x="268" y="624"/>
      <point x="214" y="623"/>
      <point x="211" y="613" type="curve" smooth="yes"/>
      <point x="206" y="597"/>
      <point x="206" y="569"/>
      <point x="206" y="542" type="curve" smooth="yes"/>
      <point x="206" y="355" type="line" smooth="yes"/>
      <point x="206" y="350"/>
      <point x="227" y="349"/>
      <point x="249" y="349" type="curve" smooth="yes"/>
      <point x="302" y="349" type="line" smooth="yes"/>
      <point x="398" y="349"/>
      <point x="395" y="355"/>
      <point x="412" y="421" type="curve" smooth="yes"/>
      <point x="413" y="426"/>
      <point x="420" y="428"/>
      <point x="427" y="428" type="curve" smooth="yes"/>
      <point x="434" y="428"/>
      <point x="441" y="426"/>
      <point x="444" y="423" type="curve"/>
      <point x="444" y="234" type="line"/>
      <point x="442" y="232"/>
      <point x="435" y="230"/>
      <point x="428" y="230" type="curve" smooth="yes"/>
      <point x="421" y="230"/>
      <point x="414" y="233"/>
      <point x="412" y="238" type="curve" smooth="yes"/>
      <point x="397" y="295"/>
      <point x="393" y="298"/>
      <point x="384" y="304" type="curve" smooth="yes"/>
      <point x="373" y="311"/>
      <point x="316" y="312"/>
      <point x="278" y="312" type="curve" smooth="yes"/>
      <point x="250" y="312"/>
      <point x="206" y="312"/>
      <point x="206" y="303" type="curve" smooth="yes"/>
      <point x="206" y="113" type="line" smooth="yes"/>
      <point x="206" y="98"/>
      <point x="206" y="49"/>
      <point x="212" y="44" type="curve" smooth="yes"/>
      <point x="225" y="34"/>
      <point x="241" y="34"/>
      <point x="283" y="34" type="curve" smooth="yes"/>
      <point x="331" y="34" type="line" smooth="yes"/>
      <point x="378" y="34"/>
      <point x="429" y="44"/>
      <point x="457" y="61" type="curve" smooth="yes"/>
      <point x="489" y="80"/>
      <point x="504" y="119"/>
      <point x="520" y="162" type="curve" smooth="yes"/>
      <point x="521" y="166"/>
      <point x="527" y="168"/>
      <point x="534" y="168" type="curve" smooth="yes"/>
      <point x="544" y="168"/>
      <point x="556" y="165"/>
      <point x="559" y="162" type="curve"/>
      <point x="540" y="108"/>
      <point x="512" y="40"/>
      <point x="505" y="-4" type="curve"/>
      <point x="446" y="-4"/>
      <point x="380" y="-79"/>
      <point x="380" y="-122" type="curve" smooth="yes"/>
      <point x="380" y="-137"/>
      <point x="387" y="-165"/>
      <point x="421" y="-165" type="curve" smooth="yes"/>
      <point x="472" y="-165"/>
      <point x="496" y="-127"/>
      <point x="502" y="-127" type="curve" smooth="yes"/>
      <point x="503" y="-127"/>
      <point x="506" y="-132"/>
      <point x="506" y="-140" type="curve" smooth="yes"/>
      <point x="506" y="-145"/>
      <point x="505" y="-154"/>
      <point x="502" y="-158" type="curve" smooth="yes"/>
      <point x="480" y="-187"/>
      <point x="442" y="-224"/>
      <point x="397" y="-224" type="curve" smooth="yes"/>
      <point x="341" y="-224"/>
      <point x="326" y="-174"/>
      <point x="326" y="-147" type="curve" smooth="yes"/>
      <point x="326" y="-96"/>
      <point x="380" y="-38"/>
      <point x="430" y="-3" type="curve"/>
      <point x="348" y="-2"/>
      <point x="297" y="0"/>
      <point x="164" y="0" type="curve" smooth="yes"/>
      <point x="117" y="0"/>
      <point x="84" y="-3"/>
    </contour>
  </outline>
</glyph>
<glyph name="hbar" format="1">
  <advance width="516"/>
  <unicode hex="0127"/>
  <outline>
    <contour>
      <point x="23" y="537" type="curve" smooth="yes"/>
      <point x="23" y="542"/>
      <point x="25" y="553"/>
      <point x="29" y="560" type="curve"/>
      <point x="87.9994" y="560" type="line"/>
      <point x="87.9881" y="573.6"/>
      <point x="87.756" y="598.586"/>
      <point x="83" y="610" type="curve" smooth="yes"/>
      <point x="77" y="624"/>
      <point x="50" y="628"/>
      <point x="22" y="628" type="curve" smooth="yes"/>
      <point x="21" y="628"/>
      <point x="19" y="653"/>
      <point x="23" y="654" type="curve" smooth="yes"/>
      <point x="73" y="659"/>
      <point x="123" y="675"/>
      <point x="165" y="694" type="curve" smooth="yes"/>
      <point x="170" y="694"/>
      <point x="176" y="685"/>
      <point x="176" y="678" type="curve" smooth="yes"/>
      <point x="176" y="678"/>
      <point x="165" y="646"/>
      <point x="165" y="591" type="curve" smooth="yes"/>
      <point x="165" y="560" type="line"/>
      <point x="294" y="560" type="line" smooth="yes"/>
      <point x="298" y="560"/>
      <point x="300" y="556"/>
      <point x="300" y="552" type="curve" smooth="yes"/>
      <point x="300" y="547"/>
      <point x="298" y="533"/>
      <point x="294" y="525" type="curve"/>
      <point x="165" y="525" type="line"/>
      <point x="165" y="365" type="line" smooth="yes"/>
      <point x="165" y="364"/>
      <point x="166" y="363"/>
      <point x="168" y="363" type="curve" smooth="yes"/>
      <point x="169" y="363"/>
      <point x="170" y="364"/>
      <point x="171" y="365" type="curve" smooth="yes"/>
      <point x="191" y="387"/>
      <point x="258" y="438"/>
      <point x="306" y="438" type="curve" smooth="yes"/>
      <point x="414" y="438"/>
      <point x="435" y="371"/>
      <point x="435" y="226" type="curve" smooth="yes"/>
      <point x="435" y="116" type="line" smooth="yes"/>
      <point x="435" y="86"/>
      <point x="435" y="58"/>
      <point x="440" y="42" type="curve" smooth="yes"/>
      <point x="443" y="31"/>
      <point x="491" y="26"/>
      <point x="503" y="26" type="curve"/>
      <point x="507" y="21"/>
      <point x="508" y="2"/>
      <point x="503" y="-3" type="curve"/>
      <point x="462" y="-1"/>
      <point x="435" y="2"/>
      <point x="396" y="2" type="curve" smooth="yes"/>
      <point x="357" y="2"/>
      <point x="331" y="-1"/>
      <point x="290" y="-3" type="curve"/>
      <point x="285" y="2"/>
      <point x="286" y="21"/>
      <point x="290" y="26" type="curve"/>
      <point x="302" y="26"/>
      <point x="350" y="31"/>
      <point x="353" y="42" type="curve" smooth="yes"/>
      <point x="358" y="58"/>
      <point x="358" y="86"/>
      <point x="358" y="116" type="curve" smooth="yes"/>
      <point x="358" y="216" type="line" smooth="yes"/>
      <point x="358" y="340"/>
      <point x="338" y="380"/>
      <point x="260" y="380" type="curve" smooth="yes"/>
      <point x="223" y="380"/>
      <point x="165" y="334"/>
      <point x="165" y="325" type="curve" smooth="yes"/>
      <point x="165" y="116" type="line" smooth="yes"/>
      <point x="165" y="86"/>
      <point x="165" y="58"/>
      <point x="170" y="42" type="curve" smooth="yes"/>
      <point x="173" y="31"/>
      <point x="221" y="26"/>
      <point x="233" y="26" type="curve"/>
      <point x="237" y="21"/>
      <point x="238" y="2"/>
      <point x="233" y="-3" type="curve"/>
      <point x="192" y="-1"/>
      <point x="165" y="2"/>
      <point x="126" y="2" type="curve" smooth="yes"/>
      <point x="87" y="2"/>
      <point x="61" y="-1"/>
      <point x="20" y="-3" type="curve"/>
      <point x="15" y="2"/>
      <point x="16" y="21"/>
      <point x="20" y="26" type="curve"/>
      <point x="32" y="26"/>
      <point x="80" y="31"/>
      <point x="83" y="42" type="curve" smooth="yes"/>
      <point x="88" y="58"/>
      <point x="88" y="86"/>
      <point x="88" y="116" type="curve" smooth="yes"/>
      <point x="88" y="525" type="line"/>
      <point x="28" y="525" type="line" smooth="yes"/>
      <point x="24" y="525"/>
      <point x="23" y="533"/>
    </contour>
  </outline>
</glyph>
<glyph name="dotlessi" format="1">
  <advance width="270"/>
  <unicode hex="0131"/>
  <outline>
    <contour>
      <point x="34" y="372" type="curve"/>
      <point x="32" y="374"/>
      <point x="30" y="393"/>
      <point x="34" y="398" type="curve"/>
      <point x="85" y="405"/>
      <point x="137" y="419"/>
      <point x="177" y="440" type="curve"/>
      <point x="182" y="440"/>
      <point x="188" y="429"/>
      <point x="188" y="424" type="curve" smooth="yes"/>
      <point x="187" y="417"/>
      <point x="181" y="368"/>
      <point x="181" y="358" type="curve" smooth="yes"/>
      <point x="181" y="116" type="line" smooth="yes"/>
      <point x="181" y="86"/>
      <point x="181" y="58"/>
      <point x="186" y="42" type="curve" smooth="yes"/>
      <point x="189" y="31"/>
      <point x="237" y="26"/>
      <point x="249" y="26" type="curve"/>
      <point x="253" y="21"/>
      <point x="254" y="2"/>
      <point x="249" y="-3" type="curve"/>
      <point x="208" y="-1"/>
      <point x="181" y="2"/>
      <point x="142" y="2" type="curve" smooth="yes"/>
      <point x="103" y="2"/>
      <point x="77" y="-1"/>
      <point x="36" y="-3" type="curve"/>
      <point x="31" y="2"/>
      <point x="32" y="21"/>
      <point x="36" y="26" type="curve"/>
      <point x="48" y="26"/>
      <point x="96" y="31"/>
      <point x="99" y="42" type="curve" smooth="yes"/>
      <point x="104" y="58"/>
      <point x="104" y="86"/>
      <point x="104" y="116" type="curve" smooth="yes"/>
      <point x="104" y="302" type="line" smooth="yes"/>
      <point x="104" y="315"/>
      <point x="104" y="342"/>
      <point x="99" y="354" type="curve" smooth="yes"/>
      <point x="92" y="371"/>
      <point x="41" y="372"/>
    </contour>
  </outline>
</glyph>
<glyph name="kgreenlandic" format="1">
  <advance width="533"/>
  <unicode hex="0138"/>
  <outline>
    <contour>
      <point x="34" y="372" type="curve"/>
      <point x="32" y="374"/>
      <point x="30" y="393"/>
      <point x="34" y="398" type="curve"/>
      <point x="85" y="405"/>
      <point x="137" y="419"/>
      <point x="177" y="440" type="curve"/>
      <point x="182" y="440"/>
      <point x="188" y="429"/>
      <point x="188" y="424" type="curve" smooth="yes"/>
      <point x="187" y="417"/>
      <point x="181" y="368"/>
      <point x="181" y="358" type="curve" smooth="yes"/>
      <point x="181" y="235" type="line"/>
      <point x="198" y="241"/>
      <point x="229" y="267"/>
      <point x="263" y="296" type="curve" smooth="yes"/>
      <point x="315" y="340"/>
      <point x="355" y="369"/>
      <point x="355" y="379" type="curve" smooth="yes"/>
      <point x="355" y="394"/>
      <point x="316" y="395"/>
      <point x="307" y="396" type="curve"/>
      <point x="302" y="403"/>
      <point x="304" y="423"/>
      <point x="309" y="425" type="curve"/>
      <point x="338" y="422"/>
      <point x="373" y="420"/>
      <point x="405" y="420" type="curve" smooth="yes"/>
      <point x="439" y="420"/>
      <point x="471" y="422"/>
      <point x="493" y="425" type="curve"/>
      <point x="497" y="419"/>
      <point x="496" y="400"/>
      <point x="493" y="396" type="curve"/>
      <point x="479" y="396"/>
      <point x="437" y="388"/>
      <point x="416" y="373" type="curve" smooth="yes"/>
      <point x="405" y="365"/>
      <point x="313" y="299"/>
      <point x="254" y="249" type="curve"/>
      <point x="329" y="168"/>
      <point x="410" y="73"/>
      <point x="434" y="53" type="curve" smooth="yes"/>
      <point x="460" y="32"/>
      <point x="500" y="25"/>
      <point x="526" y="26" type="curve"/>
      <point x="528" y="23"/>
      <point x="530" y="7"/>
      <point x="527" y="2" type="curve"/>
      <point x="520" y="-1"/>
      <point x="489" y="-4"/>
      <point x="462" y="-4" type="curve" smooth="yes"/>
      <point x="403" y="-4"/>
      <point x="354" y="24"/>
      <point x="339" y="40" type="curve" smooth="yes"/>
      <point x="339" y="40"/>
      <point x="253" y="133"/>
      <point x="196" y="195" type="curve" smooth="yes"/>
      <point x="192" y="200"/>
      <point x="181" y="204"/>
      <point x="181" y="204" type="curve"/>
      <point x="181" y="116" type="line" smooth="yes"/>
      <point x="181" y="86"/>
      <point x="181" y="58"/>
      <point x="186" y="42" type="curve" smooth="yes"/>
      <point x="189" y="31"/>
      <point x="237" y="26"/>
      <point x="249" y="26" type="curve"/>
      <point x="253" y="21"/>
      <point x="254" y="2"/>
      <point x="249" y="-3" type="curve"/>
      <point x="208" y="-1"/>
      <point x="181" y="2"/>
      <point x="142" y="2" type="curve" smooth="yes"/>
      <point x="103" y="2"/>
      <point x="77" y="-1"/>
      <point x="36" y="-3" type="curve"/>
      <point x="31" y="2"/>
      <point x="32" y="21"/>
      <point x="36" y="26" type="curve"/>
      <point x="48" y="26"/>
      <point x="96" y="31"/>
      <point x="99" y="42" type="curve" smooth="yes"/>
      <point x="104" y="58"/>
      <point x="104" y="86"/>
      <point x="104" y="116" type="curve" smooth="yes"/>
      <point x="104" y="302" type="line" smooth="yes"/>
      <point x="104" y="315"/>
      <point x="104" y="342"/>
      <point x="99" y="354" type="curve" smooth="yes"/>
      <point x="92" y="371"/>
      <point x="41" y="372"/>
    </contour>
  </outline>
</glyph>
<glyph name="Lslash" format="1">
  <advance width="564"/>
  <unicode hex="0141"/>
  <outline>
    <contour>
      <point x="35" y="196" type="line" smooth="yes"/>
      <point x="30" y="192"/>
      <point x="30" y="237"/>
      <point x="35" y="242" type="curve"/>
      <point x="119" y="297.164" type="line"/>
      <point x="119" y="543" type="line" smooth="yes"/>
      <point x="119" y="573"/>
      <point x="119" y="601"/>
      <point x="114" y="617" type="curve" smooth="yes"/>
      <point x="111" y="628"/>
      <point x="57" y="633"/>
      <point x="45" y="633" type="curve"/>
      <point x="41" y="638"/>
      <point x="40" y="657"/>
      <point x="45" y="662" type="curve"/>
      <point x="86" y="660"/>
      <point x="124" y="657"/>
      <point x="163" y="657" type="curve" smooth="yes"/>
      <point x="202" y="657"/>
      <point x="239" y="660"/>
      <point x="280" y="662" type="curve"/>
      <point x="285" y="657"/>
      <point x="284" y="638"/>
      <point x="280" y="633" type="curve"/>
      <point x="268" y="633"/>
      <point x="214" y="628"/>
      <point x="211" y="617" type="curve" smooth="yes"/>
      <point x="206" y="601"/>
      <point x="206" y="573"/>
      <point x="206" y="543" type="curve" smooth="yes"/>
      <point x="206" y="343.299" type="line"/>
      <point x="370" y="451" type="line" smooth="yes"/>
      <point x="376" y="455"/>
      <point x="371" y="411"/>
      <point x="366" y="407" type="curve" smooth="yes"/>
      <point x="206" y="299.399" type="line"/>
      <point x="206" y="116" type="line" smooth="yes"/>
      <point x="206" y="101"/>
      <point x="206" y="49"/>
      <point x="212" y="44" type="curve" smooth="yes"/>
      <point x="225" y="34"/>
      <point x="241" y="34"/>
      <point x="283" y="34" type="curve" smooth="yes"/>
      <point x="340" y="34" type="line" smooth="yes"/>
      <point x="378" y="34"/>
      <point x="429" y="42"/>
      <point x="457" y="61" type="curve" smooth="yes"/>
      <point x="482" y="78"/>
      <point x="504" y="109"/>
      <point x="520" y="162" type="curve" smooth="yes"/>
      <point x="521" y="166"/>
      <point x="527" y="168"/>
      <point x="534" y="168" type="curve" smooth="yes"/>
      <point x="544" y="168"/>
      <point x="556" y="165"/>
      <point x="559" y="162" type="curve" smooth="yes"/>
      <point x="540" y="108"/>
      <point x="512" y="40"/>
      <point x="505" y="-4" type="curve"/>
      <point x="396" y="-4"/>
      <point x="297" y="0"/>
      <point x="164" y="0" type="curve" smooth="yes"/>
      <point x="117" y="0"/>
      <point x="84" y="-3"/>
      <point x="45" y="-3" type="curve"/>
      <point x="40" y="2"/>
      <point x="41" y="21"/>
      <point x="45" y="26" type="curve"/>
      <point x="57" y="26"/>
      <point x="111" y="31"/>
      <point x="114" y="42" type="curve" smooth="yes"/>
      <point x="119" y="58"/>
      <point x="119" y="86"/>
      <point x="119" y="116" type="curve" smooth="yes"/>
      <point x="119" y="253.134" type="line"/>
    </contour>
  </outline>
</glyph>
<glyph name="Scedilla" format="1">
  <advance width="502"/>
  <unicode hex="015E"/>
  <outline>
    <contour>
      <point x="49" y="174" type="curve"/>
      <point x="55" y="180"/>
      <point x="66" y="186"/>
      <point x="75" y="186" type="curve" smooth="yes"/>
      <point x="82" y="186"/>
      <point x="85" y="182"/>
      <point x="86" y="177" type="curve" smooth="yes"/>
      <point x="94" y="139"/>
      <point x="132" y="24"/>
      <point x="252" y="24" type="curve" smooth="yes"/>
      <point x="317" y="24"/>
      <point x="372" y="68"/>
      <point x="372" y="146" type="curve" smooth="yes"/>
      <point x="372" y="215"/>
      <point x="336" y="237"/>
      <point x="239" y="290" type="curve" smooth="yes"/>
      <point x="163" y="332"/>
      <point x="65" y="390"/>
      <point x="65" y="490" type="curve" smooth="yes"/>
      <point x="65" y="596"/>
      <point x="161" y="666"/>
      <point x="261" y="666" type="curve" smooth="yes"/>
      <point x="323" y="666"/>
      <point x="346" y="653"/>
      <point x="412" y="638" type="curve"/>
      <point x="420" y="586"/>
      <point x="424" y="523"/>
      <point x="426" y="496" type="curve" smooth="yes"/>
      <point x="427" y="489"/>
      <point x="412" y="485"/>
      <point x="405" y="485" type="curve" smooth="yes"/>
      <point x="402" y="485"/>
      <point x="397" y="486"/>
      <point x="394" y="489" type="curve" smooth="yes"/>
      <point x="388" y="539"/>
      <point x="339" y="632"/>
      <point x="254" y="632" type="curve" smooth="yes"/>
      <point x="172" y="632"/>
      <point x="145" y="569"/>
      <point x="145" y="521" type="curve" smooth="yes"/>
      <point x="145" y="449"/>
      <point x="205" y="413"/>
      <point x="277" y="371" type="curve" smooth="yes"/>
      <point x="361" y="322"/>
      <point x="459" y="265"/>
      <point x="459" y="173" type="curve" smooth="yes"/>
      <point x="459" y="68.7023"/>
      <point x="367.301" y="-2.33205"/>
      <point x="266.587" y="-9.4165" type="curve"/>
      <point x="249" y="-31" type="line"/>
      <point x="279" y="-31" type="line" smooth="yes"/>
      <point x="310" y="-31"/>
      <point x="331" y="-58"/>
      <point x="331" y="-89" type="curve" smooth="yes"/>
      <point x="331" y="-144"/>
      <point x="281" y="-178"/>
      <point x="220" y="-178" type="curve" smooth="yes"/>
      <point x="206" y="-178"/>
      <point x="187" y="-173"/>
      <point x="180" y="-168" type="curve"/>
      <point x="179" y="-162"/>
      <point x="176" y="-158"/>
      <point x="176" y="-151" type="curve" smooth="yes"/>
      <point x="176" y="-143"/>
      <point x="186" y="-135"/>
      <point x="193" y="-135" type="curve" smooth="yes"/>
      <point x="207" y="-135"/>
      <point x="217" y="-150"/>
      <point x="236" y="-150" type="curve" smooth="yes"/>
      <point x="269" y="-150"/>
      <point x="287" y="-131"/>
      <point x="287" y="-111" type="curve" smooth="yes"/>
      <point x="287" y="-83"/>
      <point x="266" y="-71"/>
      <point x="251" y="-71" type="curve" smooth="yes"/>
      <point x="238" y="-71"/>
      <point x="232" y="-74"/>
      <point x="220" y="-79" type="curve" smooth="yes"/>
      <point x="218" y="-79"/>
      <point x="206" y="-69"/>
      <point x="208" y="-64" type="curve" smooth="yes"/>
      <point x="217.781" y="-47.9953"/>
      <point x="233.095" y="-26.4565"/>
      <point x="242.697" y="-9.92785" type="curve"/>
      <point x="177.495" y="-8.64757"/>
      <point x="117.241" y="9.35896"/>
      <point x="70" y="19" type="curve"/>
      <point x="58" y="78"/>
      <point x="49" y="162"/>
    </contour>
  </outline>
</glyph>
<glyph name="scedilla" format="1">
  <advance width="369"/>
  <unicode hex="015F"/>
  <outline>
    <contour>
      <point x="125" y="-131" type="curve" smooth="yes"/>
      <point x="125" y="-124"/>
      <point x="133" y="-117"/>
      <point x="139" y="-117" type="curve" smooth="yes"/>
      <point x="151" y="-117"/>
      <point x="160" y="-130"/>
      <point x="176" y="-130" type="curve" smooth="yes"/>
      <point x="204" y="-130"/>
      <point x="219" y="-114"/>
      <point x="219" y="-97" type="curve" smooth="yes"/>
      <point x="219" y="-73"/>
      <point x="201" y="-63"/>
      <point x="188" y="-63" type="curve" smooth="yes"/>
      <point x="177" y="-63"/>
      <point x="172" y="-66"/>
      <point x="162" y="-70" type="curve" smooth="yes"/>
      <point x="160" y="-70"/>
      <point x="150" y="-61"/>
      <point x="152" y="-57" type="curve" smooth="yes"/>
      <point x="160.003" y="-43.661"/>
      <point x="172.752" y="-24.7863"/>
      <point x="181.103" y="-10.9246" type="curve"/>
      <point x="179.406" y="-10.9748"/>
      <point x="177.705" y="-11"/>
      <point x="176" y="-11" type="curve" smooth="yes"/>
      <point x="130" y="-11"/>
      <point x="103" y="0"/>
      <point x="59" y="8" type="curve"/>
      <point x="51" y="29"/>
      <point x="42" y="86"/>
      <point x="42" y="112" type="curve"/>
      <point x="46" y="115"/>
      <point x="55" y="118"/>
      <point x="60" y="118" type="curve" smooth="yes"/>
      <point x="63" y="118"/>
      <point x="66" y="118"/>
      <point x="69" y="116" type="curve" smooth="yes"/>
      <point x="81" y="74"/>
      <point x="124" y="21"/>
      <point x="177" y="21" type="curve" smooth="yes"/>
      <point x="218" y="21"/>
      <point x="249" y="47"/>
      <point x="249" y="93" type="curve" smooth="yes"/>
      <point x="249" y="139.656"/>
      <point x="211.957" y="163.085"/>
      <point x="168" y="185.623" type="curve" smooth="yes"/>
      <point x="99" y="221"/>
      <point x="51" y="251.189"/>
      <point x="51" y="315" type="curve" smooth="yes"/>
      <point x="51" y="389"/>
      <point x="122" y="437"/>
      <point x="196" y="437" type="curve" smooth="yes"/>
      <point x="235" y="437"/>
      <point x="254" y="429"/>
      <point x="298" y="424" type="curve"/>
      <point x="305" y="393"/>
      <point x="309" y="350"/>
      <point x="310" y="314" type="curve" smooth="yes"/>
      <point x="310" y="310"/>
      <point x="305" y="309"/>
      <point x="300" y="309" type="curve" smooth="yes"/>
      <point x="295" y="309"/>
      <point x="288" y="310"/>
      <point x="283" y="314" type="curve" smooth="yes"/>
      <point x="273" y="351"/>
      <point x="242" y="406"/>
      <point x="199" y="406" type="curve" smooth="yes"/>
      <point x="151" y="406"/>
      <point x="128" y="379"/>
      <point x="128" y="343" type="curve" smooth="yes"/>
      <point x="128" y="297"/>
      <point x="159.047" y="280.085"/>
      <point x="215" y="249" type="curve" smooth="yes"/>
      <point x="278" y="214"/>
      <point x="330" y="182"/>
      <point x="330" y="127" type="curve" smooth="yes"/>
      <point x="330" y="55.035"/>
      <point x="272.377" y="2.01452"/>
      <point x="202.716" y="-8.91824" type="curve"/>
      <point x="187" y="-29" type="line"/>
      <point x="212" y="-29" type="line" smooth="yes"/>
      <point x="238" y="-29"/>
      <point x="256" y="-52"/>
      <point x="256" y="-78" type="curve" smooth="yes"/>
      <point x="256" y="-125"/>
      <point x="214" y="-154"/>
      <point x="162" y="-154" type="curve" smooth="yes"/>
      <point x="150" y="-154"/>
      <point x="134" y="-149"/>
      <point x="128" y="-145" type="curve" smooth="yes"/>
      <point x="127" y="-140"/>
      <point x="125" y="-137"/>
    </contour>
  </outline>
</glyph>
<glyph name="Tcommaaccent" format="1">
  <advance width="626"/>
  <unicode hex="0162"/>
  <outline>
    <contour>
      <point x="12" y="506" type="curve" smooth="yes"/>
      <point x="23" y="559"/>
      <point x="31" y="617"/>
      <point x="38" y="678" type="curve"/>
      <point x="44" y="681"/>
      <point x="55" y="678"/>
      <point x="61" y="675" type="curve" smooth="yes"/>
      <point x="73" y="669"/>
      <point x="101" y="661"/>
      <point x="117" y="661" type="curve" smooth="yes"/>
      <point x="508" y="661" type="line" smooth="yes"/>
      <point x="524" y="661"/>
      <point x="556" y="670"/>
      <point x="568" y="676" type="curve" smooth="yes"/>
      <point x="578" y="681"/>
      <point x="581" y="681"/>
      <point x="587" y="678" type="curve"/>
      <point x="594" y="617"/>
      <point x="602" y="559"/>
      <point x="613" y="506" type="curve" smooth="yes"/>
      <point x="610" y="503"/>
      <point x="603" y="498"/>
      <point x="594" y="499" type="curve" smooth="yes"/>
      <point x="589" y="499"/>
      <point x="582" y="501"/>
      <point x="580" y="504" type="curve" smooth="yes"/>
      <point x="566" y="574"/>
      <point x="534" y="626"/>
      <point x="484" y="626" type="curve" smooth="yes"/>
      <point x="357" y="626" type="line"/>
      <point x="357" y="116" type="line" smooth="yes"/>
      <point x="357" y="86"/>
      <point x="357" y="58"/>
      <point x="362" y="42" type="curve" smooth="yes"/>
      <point x="365" y="31"/>
      <point x="419" y="26"/>
      <point x="431" y="26" type="curve"/>
      <point x="435" y="21"/>
      <point x="436" y="2"/>
      <point x="431" y="-3" type="curve"/>
      <point x="393.565" y="-1.1739"/>
      <point x="359.465" y="1.48585"/>
      <point x="324.132" y="1.93458" type="curve"/>
      <point x="303" y="-24" type="line"/>
      <point x="333" y="-24" type="line" smooth="yes"/>
      <point x="364" y="-24"/>
      <point x="385" y="-51"/>
      <point x="385" y="-82" type="curve" smooth="yes"/>
      <point x="385" y="-137"/>
      <point x="335" y="-171"/>
      <point x="274" y="-171" type="curve" smooth="yes"/>
      <point x="260" y="-171"/>
      <point x="241" y="-166"/>
      <point x="234" y="-161" type="curve"/>
      <point x="233" y="-155"/>
      <point x="230" y="-151"/>
      <point x="230" y="-144" type="curve" smooth="yes"/>
      <point x="230" y="-136"/>
      <point x="240" y="-128"/>
      <point x="247" y="-128" type="curve" smooth="yes"/>
      <point x="261" y="-128"/>
      <point x="271" y="-143"/>
      <point x="290" y="-143" type="curve" smooth="yes"/>
      <point x="323" y="-143"/>
      <point x="341" y="-124"/>
      <point x="341" y="-104" type="curve" smooth="yes"/>
      <point x="341" y="-76"/>
      <point x="320" y="-64"/>
      <point x="305" y="-64" type="curve" smooth="yes"/>
      <point x="292" y="-64"/>
      <point x="286" y="-67"/>
      <point x="274" y="-72" type="curve" smooth="yes"/>
      <point x="272" y="-72"/>
      <point x="260" y="-62"/>
      <point x="262" y="-57" type="curve" smooth="yes"/>
      <point x="272.758" y="-39.3959"/>
      <point x="290.212" y="-15.0963"/>
      <point x="299.393" y="1.86682" type="curve"/>
      <point x="265.439" y="1.2646"/>
      <point x="231.868" y="-1.25036"/>
      <point x="196" y="-3" type="curve"/>
      <point x="191" y="2"/>
      <point x="192" y="21"/>
      <point x="196" y="26" type="curve"/>
      <point x="208" y="26"/>
      <point x="262" y="31"/>
      <point x="265" y="42" type="curve" smooth="yes"/>
      <point x="270" y="58"/>
      <point x="270" y="86"/>
      <point x="270" y="116" type="curve" smooth="yes"/>
      <point x="270" y="626" type="line"/>
      <point x="141" y="626" type="line" smooth="yes"/>
      <point x="91" y="626"/>
      <point x="59" y="574"/>
      <point x="45" y="504" type="curve" smooth="yes"/>
      <point x="43" y="501"/>
      <point x="36" y="499"/>
      <point x="31" y="499" type="curve" smooth="yes"/>
      <point x="22" y="498"/>
      <point x="15" y="503"/>
    </contour>
  </outline>
</glyph>
<glyph name="Uogonek" format="1">
  <advance width="723"/>
  <unicode hex="0172"/>
  <outline>
    <contour>
      <point x="29" y="633" type="curve"/>
      <point x="25" y="638"/>
      <point x="24" y="657"/>
      <point x="29" y="662" type="curve"/>
      <point x="70" y="660"/>
      <point x="108" y="657"/>
      <point x="147" y="657" type="curve" smooth="yes"/>
      <point x="186" y="657"/>
      <point x="223" y="660"/>
      <point x="264" y="662" type="curve"/>
      <point x="269" y="657"/>
      <point x="268" y="638"/>
      <point x="264" y="633" type="curve"/>
      <point x="252" y="633"/>
      <point x="198" y="628"/>
      <point x="195" y="617" type="curve" smooth="yes"/>
      <point x="190" y="601"/>
      <point x="190" y="573"/>
      <point x="190" y="543" type="curve" smooth="yes"/>
      <point x="190" y="296" type="line" smooth="yes"/>
      <point x="190" y="213"/>
      <point x="207" y="152"/>
      <point x="239" y="112" type="curve" smooth="yes"/>
      <point x="270" y="73"/>
      <point x="317" y="54"/>
      <point x="376" y="54" type="curve" smooth="yes"/>
      <point x="479" y="54"/>
      <point x="567" y="102"/>
      <point x="570" y="274" type="curve"/>
      <point x="570" y="545" type="line" smooth="yes"/>
      <point x="570" y="581"/>
      <point x="570" y="598"/>
      <point x="560" y="614" type="curve" smooth="yes"/>
      <point x="554" y="624"/>
      <point x="504" y="634"/>
      <point x="488" y="634" type="curve"/>
      <point x="483" y="641"/>
      <point x="484" y="657"/>
      <point x="486" y="663" type="curve"/>
      <point x="526" y="661"/>
      <point x="553" y="658"/>
      <point x="597" y="658" type="curve" smooth="yes"/>
      <point x="643" y="658"/>
      <point x="658" y="661"/>
      <point x="704" y="663" type="curve"/>
      <point x="707" y="658"/>
      <point x="709" y="645"/>
      <point x="704" y="634" type="curve"/>
      <point x="692" y="634"/>
      <point x="633" y="626"/>
      <point x="626" y="614" type="curve" smooth="yes"/>
      <point x="617" y="599"/>
      <point x="616" y="584"/>
      <point x="616" y="546" type="curve" smooth="yes"/>
      <point x="616" y="276" type="line" smooth="yes"/>
      <point x="616" y="147"/>
      <point x="578" y="87"/>
      <point x="501" y="29" type="curve" smooth="yes"/>
      <point x="473" y="8"/>
      <point x="364" y="-68"/>
      <point x="364" y="-122" type="curve" smooth="yes"/>
      <point x="364" y="-137"/>
      <point x="371" y="-165"/>
      <point x="405" y="-165" type="curve" smooth="yes"/>
      <point x="456" y="-165"/>
      <point x="480" y="-127"/>
      <point x="486" y="-127" type="curve" smooth="yes"/>
      <point x="487" y="-127"/>
      <point x="491" y="-132"/>
      <point x="491" y="-140" type="curve" smooth="yes"/>
      <point x="491" y="-145"/>
      <point x="489" y="-153"/>
      <point x="486" y="-157" type="curve" smooth="yes"/>
      <point x="464" y="-186"/>
      <point x="426" y="-224"/>
      <point x="381" y="-224" type="curve" smooth="yes"/>
      <point x="325" y="-224"/>
      <point x="310" y="-174"/>
      <point x="310" y="-147" type="curve" smooth="yes"/>
      <point x="310" y="-93"/>
      <point x="366" y="-31"/>
      <point x="419" y="2" type="curve"/>
      <point x="403" y="-3"/>
      <point x="373" y="-4"/>
      <point x="355" y="-4" type="curve" smooth="yes"/>
      <point x="283" y="-4"/>
      <point x="221" y="20"/>
      <point x="177" y="62" type="curve" smooth="yes"/>
      <point x="131" y="106"/>
      <point x="103" y="171"/>
      <point x="103" y="251" type="curve" smooth="yes"/>
      <point x="103" y="543" type="line" smooth="yes"/>
      <point x="103" y="573"/>
      <point x="103" y="601"/>
      <point x="98" y="617" type="curve" smooth="yes"/>
      <point x="95" y="628"/>
      <point x="41" y="633"/>
    </contour>
  </outline>
</glyph>
<glyph name="uni0189" format="1">
  <advance width="717"/>
  <unicode hex="0189"/>
  <outline>
    <contour>
      <point x="56" y="311" type="line" smooth="yes"/>
      <point x="52" y="311"/>
      <point x="51" y="339"/>
      <point x="57" y="348" type="curve"/>
      <point x="126" y="348" type="line"/>
      <point x="126" y="543" type="line" smooth="yes"/>
      <point x="126" y="573"/>
      <point x="126" y="601"/>
      <point x="121" y="617" type="curve" smooth="yes"/>
      <point x="118" y="628"/>
      <point x="64" y="633"/>
      <point x="52" y="633" type="curve"/>
      <point x="48" y="638"/>
      <point x="47" y="657"/>
      <point x="52" y="662" type="curve"/>
      <point x="93" y="660"/>
      <point x="131" y="657"/>
      <point x="170" y="657" type="curve" smooth="yes"/>
      <point x="209" y="657"/>
      <point x="271" y="658"/>
      <point x="315" y="658" type="curve" smooth="yes"/>
      <point x="534" y="658"/>
      <point x="666" y="519"/>
      <point x="666" y="334" type="curve" smooth="yes"/>
      <point x="666" y="164"/>
      <point x="584" y="-3"/>
      <point x="302" y="-3" type="curve" smooth="yes"/>
      <point x="52" y="-3" type="line"/>
      <point x="47" y="2"/>
      <point x="48" y="21"/>
      <point x="52" y="26" type="curve"/>
      <point x="64" y="26"/>
      <point x="118" y="31"/>
      <point x="121" y="42" type="curve" smooth="yes"/>
      <point x="126" y="58"/>
      <point x="126" y="86"/>
      <point x="126" y="116" type="curve" smooth="yes"/>
      <point x="126" y="311" type="line"/>
    </contour>
    <contour>
      <point x="214" y="115" type="line" smooth="yes"/>
      <point x="214" y="101"/>
      <point x="215" y="49"/>
      <point x="220" y="43" type="curve" smooth="yes"/>
      <point x="228" y="32"/>
      <point x="265" y="29"/>
      <point x="302" y="29" type="curve" smooth="yes"/>
      <point x="444" y="29"/>
      <point x="567" y="118"/>
      <point x="567" y="313" type="curve" smooth="yes"/>
      <point x="567" y="539"/>
      <point x="432" y="626"/>
      <point x="288" y="626" type="curve" smooth="yes"/>
      <point x="276" y="626"/>
      <point x="222" y="625"/>
      <point x="219" y="615" type="curve" smooth="yes"/>
      <point x="214" y="599"/>
      <point x="214" y="570"/>
      <point x="214" y="541" type="curve" smooth="yes"/>
      <point x="214" y="348" type="line"/>
      <point x="372" y="348" type="line" smooth="yes"/>
      <point x="376" y="348"/>
      <point x="376" y="320"/>
      <point x="372" y="311" type="curve"/>
      <point x="214" y="311" type="line"/>
    </contour>
  </outline>
</glyph>
<glyph name="Ohorn" format="1">
  <advance width="769"/>
  <unicode hex="01A0"/>
  <outline>
    <contour>
      <point x="48" y="328" type="curve" smooth="yes"/>
      <point x="48" y="515"/>
      <point x="196" y="667"/>
      <point x="372" y="667" type="curve" smooth="yes"/>
      <point x="426" y="667"/>
      <point x="479" y="653"/>
      <point x="524" y="629" type="curve" smooth="yes"/>
      <point x="559" y="611"/>
      <point x="601" y="592"/>
      <point x="631" y="592" type="curve" smooth="yes"/>
      <point x="656" y="592"/>
      <point x="670" y="606"/>
      <point x="670" y="624" type="curve" smooth="yes"/>
      <point x="670" y="641"/>
      <point x="644" y="650"/>
      <point x="644" y="674" type="curve" smooth="yes"/>
      <point x="644" y="694"/>
      <point x="667" y="708"/>
      <point x="689" y="708" type="curve" smooth="yes"/>
      <point x="699" y="708"/>
      <point x="705" y="707"/>
      <point x="713" y="704" type="curve"/>
      <point x="722" y="695"/>
      <point x="732" y="680"/>
      <point x="732" y="653" type="curve" smooth="yes"/>
      <point x="732" y="596"/>
      <point x="666" y="561"/>
      <point x="625" y="561" type="curve" smooth="yes"/>
      <point x="624" y="561"/>
      <point x="614" y="561"/>
      <point x="610" y="562" type="curve"/>
      <point x="664" y="503"/>
      <point x="698" y="422"/>
      <point x="698" y="328" type="curve" smooth="yes"/>
      <point x="698" y="141"/>
      <point x="548" y="-10"/>
      <point x="372" y="-10" type="curve" smooth="yes"/>
      <point x="196" y="-10"/>
      <point x="48" y="130"/>
    </contour>
    <contour>
      <point x="147" y="350" type="curve" smooth="yes"/>
      <point x="147" y="195"/>
      <point x="233" y="24"/>
      <point x="388" y="24" type="curve" smooth="yes"/>
      <point x="538" y="24"/>
      <point x="599" y="174"/>
      <point x="599" y="309" type="curve" smooth="yes"/>
      <point x="599" y="464"/>
      <point x="512" y="633"/>
      <point x="357" y="633" type="curve" smooth="yes"/>
      <point x="207" y="633"/>
      <point x="147" y="484"/>
    </contour>
  </outline>
</glyph>
<glyph name="uhorn" format="1">
  <advance width="515"/>
  <unicode hex="01B0"/>
  <outline>
    <contour>
      <point x="423" y="436" type="curve" smooth="yes"/>
      <point x="447.514" y="440.903"/>
      <point x="471" y="451"/>
      <point x="471" y="467" type="curve" smooth="yes"/>
      <point x="471" y="473.956"/>
      <point x="468.129" y="478.191"/>
      <point x="462.978" y="485" type="curve" smooth="yes"/>
      <point x="457.996" y="491.585"/>
      <point x="453" y="499.202"/>
      <point x="453" y="511" type="curve" smooth="yes"/>
      <point x="453" y="531"/>
      <point x="469" y="543"/>
      <point x="494" y="543" type="curve" smooth="yes"/>
      <point x="504" y="543"/>
      <point x="519" y="538"/>
      <point x="526" y="533" type="curve"/>
      <point x="534" y="523"/>
      <point x="537" y="510"/>
      <point x="537" y="495" type="curve" smooth="yes"/>
      <point x="537" y="450"/>
      <point x="497.058" y="426.819"/>
      <point x="457" y="414" type="curve" smooth="yes"/>
      <point x="432" y="406"/>
      <point x="427" y="396"/>
      <point x="427" y="351" type="curve" smooth="yes"/>
      <point x="427" y="141" type="line" smooth="yes"/>
      <point x="427" y="130"/>
      <point x="428" y="93"/>
      <point x="434" y="65" type="curve" smooth="yes"/>
      <point x="439" y="46"/>
      <point x="490" y="48"/>
      <point x="493" y="47" type="curve" smooth="yes"/>
      <point x="495" y="46"/>
      <point x="496" y="39"/>
      <point x="496" y="36" type="curve" smooth="yes"/>
      <point x="496" y="34"/>
      <point x="493" y="20"/>
      <point x="488" y="20" type="curve" smooth="yes"/>
      <point x="436" y="17"/>
      <point x="359" y="-8"/>
      <point x="358" y="-8" type="curve" smooth="yes"/>
      <point x="353" y="-8"/>
      <point x="350" y="1"/>
      <point x="350" y="8" type="curve" smooth="yes"/>
      <point x="350" y="54" type="line" smooth="yes"/>
      <point x="350" y="59"/>
      <point x="348" y="59"/>
      <point x="348" y="59" type="curve"/>
      <point x="320" y="29"/>
      <point x="257" y="-7"/>
      <point x="206" y="-7" type="curve" smooth="yes"/>
      <point x="100" y="-7"/>
      <point x="81" y="108"/>
      <point x="81" y="192" type="curve" smooth="yes"/>
      <point x="81" y="320" type="line" smooth="yes"/>
      <point x="81" y="333"/>
      <point x="81" y="359"/>
      <point x="73" y="374" type="curve" smooth="yes"/>
      <point x="63" y="392"/>
      <point x="30" y="394"/>
      <point x="17" y="394" type="curve"/>
      <point x="14" y="397"/>
      <point x="13" y="415"/>
      <point x="17" y="420" type="curve"/>
      <point x="68" y="422"/>
      <point x="118" y="429"/>
      <point x="154" y="440" type="curve"/>
      <point x="159" y="440"/>
      <point x="165" y="425"/>
      <point x="165" y="420" type="curve"/>
      <point x="161" y="412"/>
      <point x="158" y="380"/>
      <point x="158" y="351" type="curve" smooth="yes"/>
      <point x="158" y="204" type="line" smooth="yes"/>
      <point x="158" y="98"/>
      <point x="188" y="49"/>
      <point x="258" y="49" type="curve" smooth="yes"/>
      <point x="302" y="49"/>
      <point x="350" y="80"/>
      <point x="350" y="104" type="curve" smooth="yes"/>
      <point x="350" y="320" type="line" smooth="yes"/>
      <point x="350" y="333"/>
      <point x="350" y="359"/>
      <point x="342" y="374" type="curve" smooth="yes"/>
      <point x="332" y="392"/>
      <point x="299" y="394"/>
      <point x="286" y="394" type="curve"/>
      <point x="283" y="397"/>
      <point x="282" y="415"/>
      <point x="286" y="420" type="curve"/>
      <point x="341.264" y="422.206"/>
      <point x="383" y="428"/>
    </contour>
  </outline>
</glyph>
<glyph name="AEacute" format="1">
  <advance width="897"/>
  <unicode hex="01FC"/>
  <outline>
    <contour>
      <point x="-14" y="-3" type="curve"/>
      <point x="-17" y="0"/>
      <point x="-17" y="19"/>
      <point x="-14" y="26" type="curve"/>
      <point x="-2" y="26"/>
      <point x="29" y="36"/>
      <point x="43" y="45" type="curve" smooth="yes"/>
      <point x="68" y="61"/>
      <point x="98" y="104"/>
      <point x="118" y="137" type="curve" smooth="yes"/>
      <point x="395" y="584" type="line" smooth="yes"/>
      <point x="398" y="589"/>
      <point x="402" y="597"/>
      <point x="402" y="604" type="curve" smooth="yes"/>
      <point x="402" y="622"/>
      <point x="369" y="629"/>
      <point x="357" y="629" type="curve"/>
      <point x="352" y="635"/>
      <point x="355" y="656"/>
      <point x="357" y="658" type="curve"/>
      <point x="357" y="658"/>
      <point x="406" y="657"/>
      <point x="473" y="657" type="curve" smooth="yes"/>
      <point x="567" y="657"/>
      <point x="685" y="664"/>
      <point x="794" y="664" type="curve"/>
      <point x="801" y="614"/>
      <point x="814" y="573"/>
      <point x="823" y="528" type="curve"/>
      <point x="820" y="525"/>
      <point x="812" y="523"/>
      <point x="805" y="523" type="curve" smooth="yes"/>
      <point x="798" y="523"/>
      <point x="792" y="525"/>
      <point x="791" y="530" type="curve" smooth="yes"/>
      <point x="769" y="610"/>
      <point x="728" y="624"/>
      <point x="675" y="624" type="curve" smooth="yes"/>
      <point x="589" y="624" type="line" smooth="yes"/>
      <point x="577" y="624"/>
      <point x="523" y="623"/>
      <point x="520" y="613" type="curve" smooth="yes"/>
      <point x="515" y="597"/>
      <point x="515" y="569"/>
      <point x="515" y="542" type="curve" smooth="yes"/>
      <point x="515" y="355" type="line" smooth="yes"/>
      <point x="515" y="350"/>
      <point x="536" y="349"/>
      <point x="558" y="349" type="curve" smooth="yes"/>
      <point x="611" y="349" type="line" smooth="yes"/>
      <point x="707" y="349"/>
      <point x="704" y="355"/>
      <point x="721" y="421" type="curve" smooth="yes"/>
      <point x="722" y="426"/>
      <point x="729" y="428"/>
      <point x="736" y="428" type="curve" smooth="yes"/>
      <point x="743" y="428"/>
      <point x="750" y="426"/>
      <point x="753" y="423" type="curve"/>
      <point x="753" y="234" type="line"/>
      <point x="751" y="232"/>
      <point x="744" y="230"/>
      <point x="737" y="230" type="curve" smooth="yes"/>
      <point x="730" y="230"/>
      <point x="723" y="233"/>
      <point x="721" y="238" type="curve" smooth="yes"/>
      <point x="706" y="295"/>
      <point x="702" y="298"/>
      <point x="693" y="304" type="curve" smooth="yes"/>
      <point x="682" y="311"/>
      <point x="625" y="312"/>
      <point x="587" y="312" type="curve" smooth="yes"/>
      <point x="559" y="312"/>
      <point x="515" y="312"/>
      <point x="515" y="303" type="curve" smooth="yes"/>
      <point x="515" y="113" type="line" smooth="yes"/>
      <point x="515" y="98"/>
      <point x="515" y="49"/>
      <point x="521" y="44" type="curve" smooth="yes"/>
      <point x="534" y="34"/>
      <point x="550" y="34"/>
      <point x="592" y="34" type="curve" smooth="yes"/>
      <point x="640" y="34" type="line" smooth="yes"/>
      <point x="687" y="34"/>
      <point x="738" y="44"/>
      <point x="766" y="61" type="curve" smooth="yes"/>
      <point x="798" y="80"/>
      <point x="813" y="119"/>
      <point x="829" y="162" type="curve" smooth="yes"/>
      <point x="830" y="166"/>
      <point x="836" y="168"/>
      <point x="843" y="168" type="curve" smooth="yes"/>
      <point x="853" y="168"/>
      <point x="865" y="165"/>
      <point x="868" y="162" type="curve"/>
      <point x="849" y="108"/>
      <point x="821" y="40"/>
      <point x="814" y="-4" type="curve"/>
      <point x="705" y="-4"/>
      <point x="606" y="0"/>
      <point x="473" y="0" type="curve" smooth="yes"/>
      <point x="406" y="0"/>
      <point x="357" y="-3"/>
      <point x="357" y="-3" type="curve"/>
      <point x="353" y="2"/>
      <point x="355" y="26"/>
      <point x="357" y="26" type="curve" smooth="yes"/>
      <point x="369" y="26"/>
      <point x="418" y="37"/>
      <point x="423" y="49" type="curve"/>
      <point x="429" y="72"/>
      <point x="430" y="118"/>
      <point x="430" y="135" type="curve" smooth="yes"/>
      <point x="430" y="255" type="line"/>
      <point x="412" y="256"/>
      <point x="366" y="257"/>
      <point x="341" y="257" type="curve" smooth="yes"/>
      <point x="300" y="257"/>
      <point x="285" y="255"/>
      <point x="239" y="252" type="curve" smooth="yes"/>
      <point x="237" y="252"/>
      <point x="234" y="249"/>
      <point x="234" y="249" type="curve"/>
      <point x="234" y="249"/>
      <point x="192" y="178"/>
      <point x="161" y="129" type="curve" smooth="yes"/>
      <point x="141" y="98"/>
      <point x="121" y="65"/>
      <point x="121" y="52" type="curve" smooth="yes"/>
      <point x="121" y="28"/>
      <point x="177" y="26"/>
      <point x="185" y="26" type="curve"/>
      <point x="188" y="23"/>
      <point x="189" y="3"/>
      <point x="187" y="-3" type="curve"/>
      <point x="147" y="-1"/>
      <point x="134" y="2"/>
      <point x="90" y="2" type="curve" smooth="yes"/>
      <point x="44" y="2"/>
      <point x="32" y="-1"/>
    </contour>
    <contour>
      <point x="266" y="300" type="curve"/>
      <point x="266" y="300"/>
      <point x="265" y="296"/>
      <point x="267" y="296" type="curve" smooth="yes"/>
      <point x="293" y="295"/>
      <point x="323" y="295"/>
      <point x="346" y="295" type="curve" smooth="yes"/>
      <point x="377" y="295"/>
      <point x="411" y="296"/>
      <point x="430" y="297" type="curve"/>
      <point x="430" y="566" type="line"/>
      <point x="409" y="533"/>
      <point x="266" y="300"/>
    </contour>
    <component base="acutecomb.cap" xOffset="607"/>
  </outline>
</glyph>
<glyph name="oslashacute" format="1">
  <advance width="509"/>
  <unicode hex="01FF"/>
  <outline>
    <contour>
      <point x="42" y="213" type="curve" smooth="yes"/>
      <point x="42" y="342"/>
      <point x="134" y="439"/>
      <point x="255" y="439" type="curve" smooth="yes"/>
      <point x="294.23" y="439"/>
      <point x="329.044" y="430.786"/>
      <point x="358.601" y="415.958" type="curve"/>
      <point x="372" y="437" type="line"/>
      <point x="379" y="434"/>
      <point x="402" y="423"/>
      <point x="399" y="417" type="curve" smooth="yes"/>
      <point x="387.179" y="398.393" type="line"/>
      <point x="439.415" y="359.62"/>
      <point x="469" y="296.083"/>
      <point x="469" y="221" type="curve" smooth="yes"/>
      <point x="469" y="92"/>
      <point x="378" y="-7"/>
      <point x="257" y="-7" type="curve" smooth="yes"/>
      <point x="214.886" y="-7"/>
      <point x="177.759" y="2.67022"/>
      <point x="146.725" y="19.8997" type="curve"/>
      <point x="129" y="-8" type="line"/>
      <point x="121" y="-4"/>
      <point x="99" y="7"/>
      <point x="102" y="13" type="curve" smooth="yes"/>
      <point x="118.524" y="38.9484" type="line"/>
      <point x="69.692" y="78.6055"/>
      <point x="42" y="140.798"/>
    </contour>
    <contour>
      <point x="216" y="503" type="curve" smooth="yes"/>
      <point x="216" y="509"/>
      <point x="281" y="602"/>
      <point x="313" y="642" type="curve" smooth="yes"/>
      <point x="314" y="643"/>
      <point x="326" y="650"/>
      <point x="340" y="650" type="curve" smooth="yes"/>
      <point x="375" y="650"/>
      <point x="376" y="626"/>
      <point x="376" y="621" type="curve" smooth="yes"/>
      <point x="376" y="589"/>
      <point x="235" y="490"/>
      <point x="225" y="490" type="curve" smooth="yes"/>
      <point x="218" y="490"/>
      <point x="216" y="497"/>
    </contour>
    <contour>
      <point x="179.164" y="70.9621" type="line"/>
      <point x="201.536" y="43.6146"/>
      <point x="230.985" y="26"/>
      <point x="267" y="26" type="curve" smooth="yes"/>
      <point x="352" y="26"/>
      <point x="383" y="113"/>
      <point x="383" y="198" type="curve" smooth="yes"/>
      <point x="383" y="245.781"/>
      <point x="370.868" y="296.959"/>
      <point x="347.918" y="336.594" type="curve"/>
    </contour>
    <contour>
      <point x="158.732" y="102.09" type="curve"/>
      <point x="326.827" y="366.062" type="line"/>
      <point x="305.04" y="390.516"/>
      <point x="277.24" y="406"/>
      <point x="244" y="406" type="curve" smooth="yes"/>
      <point x="159" y="406"/>
      <point x="128" y="319"/>
      <point x="128" y="233" type="curve" smooth="yes"/>
      <point x="128" y="188.079"/>
      <point x="138.509" y="140.37"/>
    </contour>
  </outline>
</glyph>
<glyph name="uni021A" format="1">
  <advance width="627"/>
  <unicode hex="021A"/>
  <outline>
    <contour>
      <point x="282" y="-220" type="curve" smooth="yes"/>
      <point x="282" y="-215"/>
      <point x="328" y="-185"/>
      <point x="328" y="-161" type="curve" smooth="yes"/>
      <point x="328" y="-134"/>
      <point x="291" y="-131"/>
      <point x="291" y="-101" type="curve" smooth="yes"/>
      <point x="291" y="-76"/>
      <point x="310" y="-46"/>
      <point x="370" y="-46" type="curve"/>
      <point x="382" y="-56"/>
      <point x="392" y="-83"/>
      <point x="392" y="-99" type="curve" smooth="yes"/>
      <point x="392" y="-168"/>
      <point x="340" y="-208"/>
      <point x="310" y="-225" type="curve" smooth="yes"/>
      <point x="309" y="-226"/>
      <point x="306" y="-227"/>
      <point x="302" y="-227" type="curve" smooth="yes"/>
      <point x="289" y="-227"/>
      <point x="282" y="-223"/>
    </contour>
    <component base="T"/>
  </outline>
</glyph>
<glyph name="uni02BF" format="1">
  <advance width="195"/>
  <unicode hex="02BF"/>
  <outline>
    <contour>
      <point x="30" y="569" type="curve" smooth="yes"/>
      <point x="30" y="639"/>
      <point x="88" y="698"/>
      <point x="162" y="698" type="curve"/>
      <point x="170" y="685"/>
      <point x="168" y="670"/>
      <point x="165" y="664" type="curve"/>
      <point x="110" y="664"/>
      <point x="81" y="623"/>
      <point x="81" y="568" type="curve" smooth="yes"/>
      <point x="81" y="517"/>
      <point x="114" y="472"/>
      <point x="161" y="472" type="curve"/>
      <point x="166" y="458"/>
      <point x="167" y="447"/>
      <point x="164" y="438" type="curve"/>
      <point x="91" y="438"/>
      <point x="30" y="499"/>
    </contour>
  </outline>
</glyph>
<glyph name="acutecomb" format="1">
  <advance width="0"/>
  <unicode hex="0301"/>
  <outline>
    <contour>
      <point x="-74" y="507" type="curve" smooth="yes"/>
      <point x="-74" y="513"/>
      <point x="-9" y="606"/>
      <point x="23" y="646" type="curve" smooth="yes"/>
      <point x="24" y="647"/>
      <point x="36" y="654"/>
      <point x="50" y="654" type="curve" smooth="yes"/>
      <point x="85" y="654"/>
      <point x="86" y="630"/>
      <point x="86" y="625" type="curve" smooth="yes"/>
      <point x="86" y="593"/>
      <point x="-55" y="494"/>
      <point x="-65" y="494" type="curve" smooth="yes"/>
      <point x="-72" y="494"/>
      <point x="-74" y="501"/>
    </contour>
  </outline>
</glyph>
<glyph name="uni0304" format="1">
  <advance width="0"/>
  <unicode hex="0304"/>
  <outline>
    <contour>
      <point x="-115" y="525" type="line"/>
      <point x="-125" y="529"/>
      <point x="-118" y="561"/>
      <point x="-109" y="567" type="curve"/>
      <point x="115" y="567" type="line"/>
      <point x="122" y="562"/>
      <point x="119" y="536"/>
      <point x="109" y="525" type="curve"/>
    </contour>
  </outline>
</glyph>
<glyph name="uni0306" format="1">
  <advance width="0"/>
  <unicode hex="0306"/>
  <outline>
    <contour>
      <point x="-109" y="611" type="curve" smooth="yes"/>
      <point x="-109" y="616"/>
      <point x="-97" y="624"/>
      <point x="-91" y="624" type="curve" smooth="yes"/>
      <point x="-89" y="624"/>
      <point x="-87" y="623"/>
      <point x="-87" y="621" type="curve" smooth="yes"/>
      <point x="-77" y="578"/>
      <point x="-42" y="549"/>
      <point x="0" y="549" type="curve" smooth="yes"/>
      <point x="42" y="549"/>
      <point x="77" y="578"/>
      <point x="87" y="621" type="curve" smooth="yes"/>
      <point x="87" y="623"/>
      <point x="89" y="624"/>
      <point x="91" y="624" type="curve" smooth="yes"/>
      <point x="97" y="624"/>
      <point x="109" y="616"/>
      <point x="109" y="611" type="curve" smooth="yes"/>
      <point x="109" y="610"/>
      <point x="108" y="605"/>
      <point x="108" y="603" type="curve" smooth="yes"/>
      <point x="99" y="550"/>
      <point x="54" y="503"/>
      <point x="0" y="503" type="curve" smooth="yes"/>
      <point x="-54" y="503"/>
      <point x="-99" y="547"/>
      <point x="-108" y="604" type="curve" smooth="yes"/>
      <point x="-108" y="606"/>
      <point x="-109" y="610"/>
    </contour>
  </outline>
</glyph>
<glyph name="uni0307" format="1">
  <advance width="0"/>
  <unicode hex="0307"/>
  <outline>
    <contour>
      <point x="-50" y="564" type="curve" smooth="yes"/>
      <point x="-50" y="592"/>
      <point x="-28" y="614"/>
      <point x="0" y="614" type="curve" smooth="yes"/>
      <point x="28" y="614"/>
      <point x="50" y="592"/>
      <point x="50" y="564" type="curve" smooth="yes"/>
      <point x="50" y="536"/>
      <point x="28" y="514"/>
      <point x="0" y="514" type="curve" smooth="yes"/>
      <point x="-28" y="514"/>
      <point x="-50" y="536"/>
    </contour>
  </outline>
</glyph>
<glyph name="uni0312" format="1">
  <advance width="0"/>
  <unicode hex="0312"/>
  <outline>
    <contour>
      <point x="-56" y="555" type="curve" smooth="yes"/>
      <point x="-56" y="624"/>
      <point x="1" y="668"/>
      <point x="26" y="681" type="curve" smooth="yes"/>
      <point x="27" y="682"/>
      <point x="30" y="683"/>
      <point x="34" y="683" type="curve" smooth="yes"/>
      <point x="47" y="683"/>
      <point x="54" y="679"/>
      <point x="54" y="676" type="curve" smooth="yes"/>
      <point x="54" y="671"/>
      <point x="8" y="641"/>
      <point x="8" y="617" type="curve" smooth="yes"/>
      <point x="8" y="590"/>
      <point x="45" y="587"/>
      <point x="45" y="557" type="curve" smooth="yes"/>
      <point x="45" y="532"/>
      <point x="26" y="502"/>
      <point x="-34" y="502" type="curve"/>
      <point x="-46" y="512"/>
      <point x="-56" y="539"/>
    </contour>
  </outline>
</glyph>
